<svg id="my-svg" xmlns="http://www.w3.org/2000/svg" xmlns:xlink="http://www.w3.org/1999/xlink" style="max-width: 372.148px; background-color: transparent;" viewBox="-8 -8 372.1484375 368.5" role="img" aria-roledescription="flowchart-v2"><style>#my-svg{font-family:'IBM Plex Mono',monospace;font-size:14px;fill:var(--nlab);}#my-svg .error-icon{fill:var(--surface);}#my-svg .error-text{fill:var(--nlab);stroke:var(--nlab);}#my-svg .edge-thickness-normal{stroke-width:2px;}#my-svg .edge-thickness-thick{stroke-width:3.5px;}#my-svg .edge-pattern-solid{stroke-dasharray:0;}#my-svg .edge-pattern-dashed{stroke-dasharray:3;}#my-svg .edge-pattern-dotted{stroke-dasharray:2;}#my-svg .marker{fill:var(--edge);stroke:var(--edge);}#my-svg .marker.cross{stroke:var(--edge);}#my-svg svg{font-family:'IBM Plex Mono',monospace;font-size:14px;}#my-svg .label{font-family:'IBM Plex Mono',monospace;color:var(--nlab);}#my-svg .cluster-label text{fill:var(--nlab);}#my-svg .cluster-label span,#my-svg p{color:var(--nlab);}#my-svg .label text,#my-svg span,#my-svg p{fill:var(--nlab);color:var(--nlab);}#my-svg .node rect,#my-svg .node circle,#my-svg .node ellipse,#my-svg .node polygon,#my-svg .node path{fill:var(--node-fill);stroke:var(--node-stroke);stroke-width:1px;}#my-svg .flowchart-label text{text-anchor:middle;}#my-svg .node .katex path{fill:var(--nlab);stroke:var(--nlab);stroke-width:1px;}#my-svg .node .label{text-align:center;}#my-svg .node.clickable{cursor:pointer;}#my-svg .arrowheadPath{fill:var(--edge);}#my-svg .edgePath .path{stroke:var(--edge);stroke-width:2.0px;}#my-svg .flowchart-link{stroke:var(--edge);fill:none;}#my-svg .edgeLabel{background-color:var(--surface);text-align:center;}#my-svg .edgeLabel rect{opacity:0.5;background-color:var(--surface);fill:var(--surface);}#my-svg .labelBkg{background-color:var(--surface);}#my-svg .cluster rect{fill:var(--surface);stroke:var(--border);stroke-width:1px;}#my-svg .cluster text{fill:var(--nlab);}#my-svg .cluster span,#my-svg p{color:var(--nlab);}#my-svg div.mermaidTooltip{position:absolute;text-align:center;max-width:200px;padding:2px;font-family:'IBM Plex Mono',monospace;font-size:12px;background:var(--surface);border:1px solid hsl(21.7021276596, 55.9183673469%, 38.0392156863%);border-radius:2px;pointer-events:none;z-index:100;}#my-svg .flowchartTitleText{text-anchor:middle;font-size:18px;fill:var(--nlab);}#my-svg :root{--mermaid-font-family:"trebuchet ms",verdana,arial,sans-serif;}</style><g><marker id="my-svg_flowchart-pointEnd" class="marker flowchart" viewBox="0 0 10 10" refX="6" refY="5" markerUnits="userSpaceOnUse" markerWidth="12" markerHeight="12" orient="auto"><path d="M 0 0 L 10 5 L 0 10 z" class="arrowMarkerPath" style="stroke-width: 1; stroke-dasharray: 1, 0;"/></marker><marker id="my-svg_flowchart-pointStart" class="marker flowchart" viewBox="0 0 10 10" refX="4.5" refY="5" markerUnits="userSpaceOnUse" markerWidth="12" markerHeight="12" orient="auto"><path d="M 0 5 L 10 10 L 10 0 z" class="arrowMarkerPath" style="stroke-width: 1; stroke-dasharray: 1, 0;"/></marker><marker id="my-svg_flowchart-circleEnd" class="marker flowchart" viewBox="0 0 10 10" refX="11" refY="5" markerUnits="userSpaceOnUse" markerWidth="11" markerHeight="11" orient="auto"><circle cx="5" cy="5" r="5" class="arrowMarkerPath" style="stroke-width: 1; stroke-dasharray: 1, 0;"/></marker><marker id="my-svg_flowchart-circleStart" class="marker flowchart" viewBox="0 0 10 10" refX="-1" refY="5" markerUnits="userSpaceOnUse" markerWidth="11" markerHeight="11" orient="auto"><circle cx="5" cy="5" r="5" class="arrowMarkerPath" style="stroke-width: 1; stroke-dasharray: 1, 0;"/></marker><marker id="my-svg_flowchart-crossEnd" class="marker cross flowchart" viewBox="0 0 11 11" refX="12" refY="5.2" markerUnits="userSpaceOnUse" markerWidth="11" markerHeight="11" orient="auto"><path d="M 1,1 l 9,9 M 10,1 l -9,9" class="arrowMarkerPath" style="stroke-width: 2; stroke-dasharray: 1, 0;"/></marker><marker id="my-svg_flowchart-crossStart" class="marker cross flowchart" viewBox="0 0 11 11" refX="-1" refY="5.2" markerUnits="userSpaceOnUse" markerWidth="11" markerHeight="11" orient="auto"><path d="M 1,1 l 9,9 M 10,1 l -9,9" class="arrowMarkerPath" style="stroke-width: 2; stroke-dasharray: 1, 0;"/></marker><g class="root"><g class="clusters"/><g class="edgePaths"><path d="M225.83,30.5L225.83,34.667C225.83,38.833,225.83,47.167,225.83,54.617C225.83,62.067,225.83,68.633,225.83,71.917L225.83,75.2" id="L-A-B-0" class="edge-thickness-normal edge-pattern-solid flowchart-link LS-A LE-B" style="fill:none;" marker-end="url(#my-svg_flowchart-pointEnd)"/><path d="M198.396,111L190.9,115.167C183.405,119.333,168.413,127.667,160.918,135.117C153.422,142.567,153.422,149.133,153.422,152.417L153.422,155.7" id="L-B-C-0" class="edge-thickness-normal edge-pattern-solid flowchart-link LS-B LE-C" style="fill:none;" marker-end="url(#my-svg_flowchart-pointEnd)"/><path d="M125.192,191.5L117.479,195.667C109.766,199.833,94.34,208.167,86.627,215.617C78.914,223.067,78.914,229.633,78.914,232.917L78.914,236.2" id="L-C-D-0" class="edge-thickness-normal edge-pattern-solid flowchart-link LS-C LE-D" style="fill:none;" marker-end="url(#my-svg_flowchart-pointEnd)"/><path d="M253.264,111L260.76,115.167C268.256,119.333,283.247,127.667,290.743,135.117C298.238,142.567,298.238,149.133,298.238,152.417L298.238,155.7" id="L-B-E-0" class="edge-thickness-normal edge-pattern-solid flowchart-link LS-B LE-E" style="fill:none;" marker-end="url(#my-svg_flowchart-pointEnd)"/><path d="M181.652,191.5L189.365,195.667C197.078,199.833,212.504,208.167,220.217,215.617C227.93,223.067,227.93,229.633,227.93,232.917L227.93,236.2" id="L-C-F-0" class="edge-thickness-normal edge-pattern-solid flowchart-link LS-C LE-F" style="fill:none;" marker-end="url(#my-svg_flowchart-pointEnd)"/><path d="M78.914,272L78.914,276.167C78.914,280.333,78.914,288.667,78.914,296.117C78.914,303.567,78.914,310.133,78.914,313.417L78.914,316.7" id="L-D-G-0" class="edge-thickness-normal edge-pattern-solid flowchart-link LS-D LE-G" style="fill:none;" marker-end="url(#my-svg_flowchart-pointEnd)"/></g><g class="edgeLabels"><g class="edgeLabel"><g class="label" transform="translate(0, 0)"><rect rx="0" ry="0" width="0" height="0"/><text style=""><tspan xml:space="preserve" dy="1em" x="0" class="row"/></text></g></g><g class="edgeLabel"><g class="label" transform="translate(0, 0)"><rect rx="0" ry="0" width="0" height="0"/><text style=""><tspan xml:space="preserve" dy="1em" x="0" class="row"/></text></g></g><g class="edgeLabel"><g class="label" transform="translate(0, 0)"><rect rx="0" ry="0" width="0" height="0"/><text style=""><tspan xml:space="preserve" dy="1em" x="0" class="row"/></text></g></g><g class="edgeLabel"><g class="label" transform="translate(0, 0)"><rect rx="0" ry="0" width="0" height="0"/><text style=""><tspan xml:space="preserve" dy="1em" x="0" class="row"/></text></g></g><g class="edgeLabel"><g class="label" transform="translate(0, 0)"><rect rx="0" ry="0" width="0" height="0"/><text style=""><tspan xml:space="preserve" dy="1em" x="0" class="row"/></text></g></g><g class="edgeLabel"><g class="label" transform="translate(0, 0)"><rect rx="0" ry="0" width="0" height="0"/><text style=""><tspan xml:space="preserve" dy="1em" x="0" class="row"/></text></g></g></g><g class="nodes"><g class="node default default flowchart-label" id="flowchart-A-0" data-node="true" data-id="A" transform="translate(225.830078125, 15.25)"><rect class="basic label-container" style="" rx="0" ry="0" x="-70.51171875" y="-15.25" width="141.0234375" height="30.5"/><g class="label" style="" transform="translate(0, -7.75)"><rect/><text style=""><tspan xml:space="preserve" dy="1em" x="0" class="row">Data Collection</tspan></text></g></g><g class="node default default flowchart-label" id="flowchart-B-1" data-node="true" data-id="B" transform="translate(225.830078125, 95.75)"><rect class="basic label-container" style="" rx="0" ry="0" x="-49.5078125" y="-15.25" width="99.015625" height="30.5"/><g class="label" style="" transform="translate(0, -7.75)"><rect/><text style=""><tspan xml:space="preserve" dy="1em" x="0" class="row">Active Use</tspan></text></g></g><g class="node default default flowchart-label" id="flowchart-C-3" data-node="true" data-id="C" transform="translate(153.421875, 176.25)"><rect class="basic label-container" style="" rx="0" ry="0" x="-36.90625" y="-15.25" width="73.8125" height="30.5"/><g class="label" style="" transform="translate(0, -7.75)"><rect/><text style=""><tspan xml:space="preserve" dy="1em" x="0" class="row">Archive</tspan></text></g></g><g class="node default default flowchart-label" id="flowchart-D-5" data-node="true" data-id="D" transform="translate(78.9140625, 256.75)"><rect class="basic label-container" style="" rx="0" ry="0" x="-41.10546875" y="-15.25" width="82.2109375" height="30.5"/><g class="label" style="" transform="translate(0, -7.75)"><rect/><text style=""><tspan xml:space="preserve" dy="1em" x="0" class="row">Deletion</tspan></text></g></g><g class="node default default flowchart-label" id="flowchart-E-7" data-node="true" data-id="E" transform="translate(298.23828125, 176.25)"><rect class="basic label-container" style="" rx="0" ry="0" x="-57.91015625" y="-15.25" width="115.8203125" height="30.5"/><g class="label" style="" transform="translate(0, -7.75)"><rect/><text style=""><tspan xml:space="preserve" dy="1em" x="0" class="row">e.g. 30 days</tspan></text></g></g><g class="node default default flowchart-label" id="flowchart-F-9" data-node="true" data-id="F" transform="translate(227.9296875, 256.75)"><rect class="basic label-container" style="" rx="0" ry="0" x="-57.91015625" y="-15.25" width="115.8203125" height="30.5"/><g class="label" style="" transform="translate(0, -7.75)"><rect/><text style=""><tspan xml:space="preserve" dy="1em" x="0" class="row">e.g. 90 days</tspan></text></g></g><g class="node default default flowchart-label" id="flowchart-G-11" data-node="true" data-id="G" transform="translate(78.9140625, 337.25)"><rect class="basic label-container" style="" rx="0" ry="0" x="-78.9140625" y="-15.25" width="157.828125" height="30.5"/><g class="label" style="" transform="translate(0, -7.75)"><rect/><text style=""><tspan xml:space="preserve" dy="1em" x="0" class="row">Permanent erasure</tspan></text></g></g></g></g></g></svg>