<svg id="my-svg" xmlns="http://www.w3.org/2000/svg" xmlns:xlink="http://www.w3.org/1999/xlink" style="max-width: 277.031px; background-color: transparent;" viewBox="-15.5 -8 277.03125 900.5" role="img" aria-roledescription="flowchart-v2"><style>#my-svg{font-family:'IBM Plex Mono',monospace;font-size:14px;fill:var(--nlab);}#my-svg .error-icon{fill:var(--surface);}#my-svg .error-text{fill:var(--nlab);stroke:var(--nlab);}#my-svg .edge-thickness-normal{stroke-width:2px;}#my-svg .edge-thickness-thick{stroke-width:3.5px;}#my-svg .edge-pattern-solid{stroke-dasharray:0;}#my-svg .edge-pattern-dashed{stroke-dasharray:3;}#my-svg .edge-pattern-dotted{stroke-dasharray:2;}#my-svg .marker{fill:var(--edge);stroke:var(--edge);}#my-svg .marker.cross{stroke:var(--edge);}#my-svg svg{font-family:'IBM Plex Mono',monospace;font-size:14px;}#my-svg .label{font-family:'IBM Plex Mono',monospace;color:var(--nlab);}#my-svg .cluster-label text{fill:var(--nlab);}#my-svg .cluster-label span,#my-svg p{color:var(--nlab);}#my-svg .label text,#my-svg span,#my-svg p{fill:var(--nlab);color:var(--nlab);}#my-svg .node rect,#my-svg .node circle,#my-svg .node ellipse,#my-svg .node polygon,#my-svg .node path{fill:var(--node-fill);stroke:var(--node-stroke);stroke-width:1px;}#my-svg .flowchart-label text{text-anchor:middle;}#my-svg .node .katex path{fill:var(--nlab);stroke:var(--nlab);stroke-width:1px;}#my-svg .node .label{text-align:center;}#my-svg .node.clickable{cursor:pointer;}#my-svg .arrowheadPath{fill:var(--edge);}#my-svg .edgePath .path{stroke:var(--edge);stroke-width:2.0px;}#my-svg .flowchart-link{stroke:var(--edge);fill:none;}#my-svg .edgeLabel{background-color:var(--surface);text-align:center;}#my-svg .edgeLabel rect{opacity:0.5;background-color:var(--surface);fill:var(--surface);}#my-svg .labelBkg{background-color:var(--surface);}#my-svg .cluster rect{fill:var(--surface);stroke:var(--border);stroke-width:1px;}#my-svg .cluster text{fill:var(--nlab);}#my-svg .cluster span,#my-svg p{color:var(--nlab);}#my-svg div.mermaidTooltip{position:absolute;text-align:center;max-width:200px;padding:2px;font-family:'IBM Plex Mono',monospace;font-size:12px;background:var(--surface);border:1px solid hsl(21.7021276596, 55.9183673469%, 38.0392156863%);border-radius:2px;pointer-events:none;z-index:100;}#my-svg .flowchartTitleText{text-anchor:middle;font-size:18px;fill:var(--nlab);}#my-svg :root{--mermaid-font-family:"trebuchet ms",verdana,arial,sans-serif;}</style><g><marker id="my-svg_flowchart-pointEnd" class="marker flowchart" viewBox="0 0 10 10" refX="6" refY="5" markerUnits="userSpaceOnUse" markerWidth="12" markerHeight="12" orient="auto"><path d="M 0 0 L 10 5 L 0 10 z" class="arrowMarkerPath" style="stroke-width: 1; stroke-dasharray: 1, 0;"/></marker><marker id="my-svg_flowchart-pointStart" class="marker flowchart" viewBox="0 0 10 10" refX="4.5" refY="5" markerUnits="userSpaceOnUse" markerWidth="12" markerHeight="12" orient="auto"><path d="M 0 5 L 10 10 L 10 0 z" class="arrowMarkerPath" style="stroke-width: 1; stroke-dasharray: 1, 0;"/></marker><marker id="my-svg_flowchart-circleEnd" class="marker flowchart" viewBox="0 0 10 10" refX="11" refY="5" markerUnits="userSpaceOnUse" markerWidth="11" markerHeight="11" orient="auto"><circle cx="5" cy="5" r="5" class="arrowMarkerPath" style="stroke-width: 1; stroke-dasharray: 1, 0;"/></marker><marker id="my-svg_flowchart-circleStart" class="marker flowchart" viewBox="0 0 10 10" refX="-1" refY="5" markerUnits="userSpaceOnUse" markerWidth="11" markerHeight="11" orient="auto"><circle cx="5" cy="5" r="5" class="arrowMarkerPath" style="stroke-width: 1; stroke-dasharray: 1, 0;"/></marker><marker id="my-svg_flowchart-crossEnd" class="marker cross flowchart" viewBox="0 0 11 11" refX="12" refY="5.2" markerUnits="userSpaceOnUse" markerWidth="11" markerHeight="11" orient="auto"><path d="M 1,1 l 9,9 M 10,1 l -9,9" class="arrowMarkerPath" style="stroke-width: 2; stroke-dasharray: 1, 0;"/></marker><marker id="my-svg_flowchart-crossStart" class="marker cross flowchart" viewBox="0 0 11 11" refX="-1" refY="5.2" markerUnits="userSpaceOnUse" markerWidth="11" markerHeight="11" orient="auto"><path d="M 1,1 l 9,9 M 10,1 l -9,9" class="arrowMarkerPath" style="stroke-width: 2; stroke-dasharray: 1, 0;"/></marker><g class="root"><g class="clusters"/><g class="edgePaths"/><g class="edgeLabels"/><g class="nodes"><g class="root" transform="translate(0.69921875, -8)"><g class="clusters"><g class="cluster default flowchart-label" id="Without"><rect style="" rx="0" ry="0" x="8" y="8" width="244.6328125" height="497"/><g class="cluster-label" transform="translate(130.31640625, 8)"><text style=""><tspan xml:space="preserve" dy="1em" x="0" class="row">Without trace IDs in logs</tspan></text></g></g></g><g class="edgePaths"><path d="M130.316,63.5L130.316,67.667C130.316,71.833,130.316,80.167,130.316,87.617C130.316,95.067,130.316,101.633,130.316,104.917L130.316,108.2" id="L-A2-B2-0" class="edge-thickness-normal edge-pattern-solid flowchart-link LS-A2 LE-B2" style="fill:none;" marker-end="url(#my-svg_flowchart-pointEnd)"/><path d="M130.316,144L130.316,148.167C130.316,152.333,130.316,160.667,130.316,168.117C130.316,175.567,130.316,182.133,130.316,185.417L130.316,188.7" id="L-B2-C2-0" class="edge-thickness-normal edge-pattern-solid flowchart-link LS-B2 LE-C2" style="fill:none;" marker-end="url(#my-svg_flowchart-pointEnd)"/><path d="M130.316,224.5L130.316,228.667C130.316,232.833,130.316,241.167,130.316,248.617C130.316,256.067,130.316,262.633,130.316,265.917L130.316,269.2" id="L-C2-D2-0" class="edge-thickness-normal edge-pattern-solid flowchart-link LS-C2 LE-D2" style="fill:none;" marker-end="url(#my-svg_flowchart-pointEnd)"/><path d="M130.316,319L130.316,323.167C130.316,327.333,130.316,335.667,130.316,343.117C130.316,350.567,130.316,357.133,130.316,360.417L130.316,363.7" id="L-D2-E2-0" class="edge-thickness-normal edge-pattern-solid flowchart-link LS-D2 LE-E2" style="fill:none;" marker-end="url(#my-svg_flowchart-pointEnd)"/><path d="M130.316,399.5L130.316,403.667C130.316,407.833,130.316,416.167,130.316,423.617C130.316,431.067,130.316,437.633,130.316,440.917L130.316,444.2" id="L-E2-F2-0" class="edge-thickness-normal edge-pattern-solid flowchart-link LS-E2 LE-F2" style="fill:none;" marker-end="url(#my-svg_flowchart-pointEnd)"/></g><g class="edgeLabels"><g class="edgeLabel"><g class="label" transform="translate(0, 0)"><rect rx="0" ry="0" width="0" height="0"/><text style=""><tspan xml:space="preserve" dy="1em" x="0" class="row"/></text></g></g><g class="edgeLabel"><g class="label" transform="translate(0, 0)"><rect rx="0" ry="0" width="0" height="0"/><text style=""><tspan xml:space="preserve" dy="1em" x="0" class="row"/></text></g></g><g class="edgeLabel"><g class="label" transform="translate(0, 0)"><rect rx="0" ry="0" width="0" height="0"/><text style=""><tspan xml:space="preserve" dy="1em" x="0" class="row"/></text></g></g><g class="edgeLabel"><g class="label" transform="translate(0, 0)"><rect rx="0" ry="0" width="0" height="0"/><text style=""><tspan xml:space="preserve" dy="1em" x="0" class="row"/></text></g></g><g class="edgeLabel"><g class="label" transform="translate(0, 0)"><rect rx="0" ry="0" width="0" height="0"/><text style=""><tspan xml:space="preserve" dy="1em" x="0" class="row"/></text></g></g></g><g class="nodes"><g class="node default default flowchart-label" id="flowchart-B2-7" data-node="true" data-id="B2" transform="translate(130.31640625, 128.75)"><rect class="basic label-container" style="" rx="0" ry="0" x="-49.5078125" y="-15.25" width="99.015625" height="30.5"/><g class="label" style="" transform="translate(0, -7.75)"><rect/><text style=""><tspan xml:space="preserve" dy="1em" x="0" class="row">Open trace</tspan></text></g></g><g class="node default default flowchart-label" id="flowchart-A2-6" data-node="true" data-id="A2" transform="translate(130.31640625, 48.25)"><rect class="basic label-container" style="" rx="0" ry="0" x="-53.7109375" y="-15.25" width="107.421875" height="30.5"/><g class="label" style="" transform="translate(0, -7.75)"><rect/><text style=""><tspan xml:space="preserve" dy="1em" x="0" class="row">Alert fires</tspan></text></g></g><g class="node default default flowchart-label" id="flowchart-C2-9" data-node="true" data-id="C2" transform="translate(130.31640625, 209.25)"><rect class="basic label-container" style="" rx="0" ry="0" x="-66.3125" y="-15.25" width="132.625" height="30.5"/><g class="label" style="" transform="translate(0, -7.75)"><rect/><text style=""><tspan xml:space="preserve" dy="1em" x="0" class="row">Note timestamp</tspan></text></g></g><g class="node default default flowchart-label" id="flowchart-D2-11" data-node="true" data-id="D2" transform="translate(130.31640625, 296.75)"><rect class="basic label-container" style="" rx="0" ry="0" x="-87.31640625" y="-22.25" width="174.6328125" height="44.5"/><g class="label" style="" transform="translate(0, -14.75)"><rect/><text style=""><tspan xml:space="preserve" dy="1em" x="0" class="row">Search logs by time</tspan><tspan xml:space="preserve" dy="1em" x="0" class="row">across all services</tspan></text></g></g><g class="node default default flowchart-label" id="flowchart-E2-13" data-node="true" data-id="E2" transform="translate(130.31640625, 384.25)"><rect class="basic label-container" style="" rx="0" ry="0" x="-70.51171875" y="-15.25" width="141.0234375" height="30.5"/><g class="label" style="" transform="translate(0, -7.75)"><rect/><text style=""><tspan xml:space="preserve" dy="1em" x="0" class="row">Filter manually</tspan></text></g></g><g class="node default default flowchart-label" id="flowchart-F2-15" data-node="true" data-id="F2" transform="translate(130.31640625, 464.75)"><rect class="basic label-container" style="" rx="0" ry="0" x="-74.7109375" y="-15.25" width="149.421875" height="30.5"/><g class="label" style="" transform="translate(0, -7.75)"><rect/><text style=""><tspan xml:space="preserve" dy="1em" x="0" class="row">Maybe root cause</tspan></text></g></g></g></g><g class="root" transform="translate(-7.5, 539)"><g class="clusters"><g class="cluster default flowchart-label" id="With"><rect style="" rx="0" ry="0" x="8" y="8" width="253.03125" height="337.5"/><g class="cluster-label" transform="translate(134.515625, 8)"><text style=""><tspan xml:space="preserve" dy="1em" x="0" class="row">With trace IDs in logs</tspan></text></g></g></g><g class="edgePaths"><path d="M134.516,63.5L134.516,67.667C134.516,71.833,134.516,80.167,134.516,87.617C134.516,95.067,134.516,101.633,134.516,104.917L134.516,108.2" id="L-A1-B1-0" class="edge-thickness-normal edge-pattern-solid flowchart-link LS-A1 LE-B1" style="fill:none;" marker-end="url(#my-svg_flowchart-pointEnd)"/><path d="M134.516,144L134.516,149.458C134.516,154.917,134.516,165.833,134.516,175.867C134.516,185.9,134.516,195.05,134.516,199.625L134.516,204.2" id="L-B1-C1-0" class="edge-thickness-normal edge-pattern-solid flowchart-link LS-B1 LE-C1" style="fill:none;" marker-end="url(#my-svg_flowchart-pointEnd)"/><path d="M134.516,240L134.516,244.167C134.516,248.333,134.516,256.667,134.516,264.117C134.516,271.567,134.516,278.133,134.516,281.417L134.516,284.7" id="L-C1-D1-0" class="edge-thickness-normal edge-pattern-solid flowchart-link LS-C1 LE-D1" style="fill:none;" marker-end="url(#my-svg_flowchart-pointEnd)"/></g><g class="edgeLabels"><g class="edgeLabel"><g class="label" transform="translate(0, 0)"><rect rx="0" ry="0" width="0" height="0"/><text style=""><tspan xml:space="preserve" dy="1em" x="0" class="row"/></text></g></g><g class="edgeLabel" transform="translate(134.515625, 176.75)"><g class="label" transform="translate(-21.00390625, -7.75)"><rect rx="0" ry="0" width="42.0078125" height="15.5"/><text style=""><tspan xml:space="preserve" dy="1em" x="0" class="row">click</tspan></text></g></g><g class="edgeLabel"><g class="label" transform="translate(0, 0)"><rect rx="0" ry="0" width="0" height="0"/><text style=""><tspan xml:space="preserve" dy="1em" x="0" class="row"/></text></g></g></g><g class="nodes"><g class="node default default flowchart-label" id="flowchart-B1-1" data-node="true" data-id="B1" transform="translate(134.515625, 128.75)"><rect class="basic label-container" style="" rx="0" ry="0" x="-49.5078125" y="-15.25" width="99.015625" height="30.5"/><g class="label" style="" transform="translate(0, -7.75)"><rect/><text style=""><tspan xml:space="preserve" dy="1em" x="0" class="row">Open trace</tspan></text></g></g><g class="node default default flowchart-label" id="flowchart-A1-0" data-node="true" data-id="A1" transform="translate(134.515625, 48.25)"><rect class="basic label-container" style="" rx="0" ry="0" x="-53.7109375" y="-15.25" width="107.421875" height="30.5"/><g class="label" style="" transform="translate(0, -7.75)"><rect/><text style=""><tspan xml:space="preserve" dy="1em" x="0" class="row">Alert fires</tspan></text></g></g><g class="node default default flowchart-label" id="flowchart-C1-3" data-node="true" data-id="C1" transform="translate(134.515625, 224.75)"><rect class="basic label-container" style="" rx="0" ry="0" x="-91.515625" y="-15.25" width="183.03125" height="30.5"/><g class="label" style="" transform="translate(0, -7.75)"><rect/><text style=""><tspan xml:space="preserve" dy="1em" x="0" class="row">Correlated log lines</tspan></text></g></g><g class="node default default flowchart-label" id="flowchart-D1-5" data-node="true" data-id="D1" transform="translate(134.515625, 305.25)"><rect class="basic label-container" style="" rx="0" ry="0" x="-49.5078125" y="-15.25" width="99.015625" height="30.5"/><g class="label" style="" transform="translate(0, -7.75)"><rect/><text style=""><tspan xml:space="preserve" dy="1em" x="0" class="row">Root cause</tspan></text></g></g></g></g></g></g></g></svg>