<svg id="my-svg" xmlns="http://www.w3.org/2000/svg" xmlns:xlink="http://www.w3.org/1999/xlink" style="max-width: 885.305px; background-color: transparent;" viewBox="-8 -8 885.3046875 207.5" role="img" aria-roledescription="flowchart-v2"><style>#my-svg{font-family:'IBM Plex Mono',monospace;font-size:14px;fill:var(--nlab);}#my-svg .error-icon{fill:var(--surface);}#my-svg .error-text{fill:var(--nlab);stroke:var(--nlab);}#my-svg .edge-thickness-normal{stroke-width:2px;}#my-svg .edge-thickness-thick{stroke-width:3.5px;}#my-svg .edge-pattern-solid{stroke-dasharray:0;}#my-svg .edge-pattern-dashed{stroke-dasharray:3;}#my-svg .edge-pattern-dotted{stroke-dasharray:2;}#my-svg .marker{fill:var(--edge);stroke:var(--edge);}#my-svg .marker.cross{stroke:var(--edge);}#my-svg svg{font-family:'IBM Plex Mono',monospace;font-size:14px;}#my-svg .label{font-family:'IBM Plex Mono',monospace;color:var(--nlab);}#my-svg .cluster-label text{fill:var(--nlab);}#my-svg .cluster-label span,#my-svg p{color:var(--nlab);}#my-svg .label text,#my-svg span,#my-svg p{fill:var(--nlab);color:var(--nlab);}#my-svg .node rect,#my-svg .node circle,#my-svg .node ellipse,#my-svg .node polygon,#my-svg .node path{fill:var(--node-fill);stroke:var(--node-stroke);stroke-width:1px;}#my-svg .flowchart-label text{text-anchor:middle;}#my-svg .node .katex path{fill:var(--nlab);stroke:var(--nlab);stroke-width:1px;}#my-svg .node .label{text-align:center;}#my-svg .node.clickable{cursor:pointer;}#my-svg .arrowheadPath{fill:var(--edge);}#my-svg .edgePath .path{stroke:var(--edge);stroke-width:2.0px;}#my-svg .flowchart-link{stroke:var(--edge);fill:none;}#my-svg .edgeLabel{background-color:var(--surface);text-align:center;}#my-svg .edgeLabel rect{opacity:0.5;background-color:var(--surface);fill:var(--surface);}#my-svg .labelBkg{background-color:var(--surface);}#my-svg .cluster rect{fill:var(--surface);stroke:var(--border);stroke-width:1px;}#my-svg .cluster text{fill:var(--nlab);}#my-svg .cluster span,#my-svg p{color:var(--nlab);}#my-svg div.mermaidTooltip{position:absolute;text-align:center;max-width:200px;padding:2px;font-family:'IBM Plex Mono',monospace;font-size:12px;background:var(--surface);border:1px solid hsl(21.7021276596, 55.9183673469%, 38.0392156863%);border-radius:2px;pointer-events:none;z-index:100;}#my-svg .flowchartTitleText{text-anchor:middle;font-size:18px;fill:var(--nlab);}#my-svg :root{--mermaid-font-family:"trebuchet ms",verdana,arial,sans-serif;}</style><g><marker id="my-svg_flowchart-pointEnd" class="marker flowchart" viewBox="0 0 10 10" refX="6" refY="5" markerUnits="userSpaceOnUse" markerWidth="12" markerHeight="12" orient="auto"><path d="M 0 0 L 10 5 L 0 10 z" class="arrowMarkerPath" style="stroke-width: 1; stroke-dasharray: 1, 0;"/></marker><marker id="my-svg_flowchart-pointStart" class="marker flowchart" viewBox="0 0 10 10" refX="4.5" refY="5" markerUnits="userSpaceOnUse" markerWidth="12" markerHeight="12" orient="auto"><path d="M 0 5 L 10 10 L 10 0 z" class="arrowMarkerPath" style="stroke-width: 1; stroke-dasharray: 1, 0;"/></marker><marker id="my-svg_flowchart-circleEnd" class="marker flowchart" viewBox="0 0 10 10" refX="11" refY="5" markerUnits="userSpaceOnUse" markerWidth="11" markerHeight="11" orient="auto"><circle cx="5" cy="5" r="5" class="arrowMarkerPath" style="stroke-width: 1; stroke-dasharray: 1, 0;"/></marker><marker id="my-svg_flowchart-circleStart" class="marker flowchart" viewBox="0 0 10 10" refX="-1" refY="5" markerUnits="userSpaceOnUse" markerWidth="11" markerHeight="11" orient="auto"><circle cx="5" cy="5" r="5" class="arrowMarkerPath" style="stroke-width: 1; stroke-dasharray: 1, 0;"/></marker><marker id="my-svg_flowchart-crossEnd" class="marker cross flowchart" viewBox="0 0 11 11" refX="12" refY="5.2" markerUnits="userSpaceOnUse" markerWidth="11" markerHeight="11" orient="auto"><path d="M 1,1 l 9,9 M 10,1 l -9,9" class="arrowMarkerPath" style="stroke-width: 2; stroke-dasharray: 1, 0;"/></marker><marker id="my-svg_flowchart-crossStart" class="marker cross flowchart" viewBox="0 0 11 11" refX="-1" refY="5.2" markerUnits="userSpaceOnUse" markerWidth="11" markerHeight="11" orient="auto"><path d="M 1,1 l 9,9 M 10,1 l -9,9" class="arrowMarkerPath" style="stroke-width: 2; stroke-dasharray: 1, 0;"/></marker><g class="root"><g class="clusters"/><g class="edgePaths"><path d="M412.447,21.496L367.526,27.163C322.604,32.831,232.761,44.165,187.84,53.116C142.918,62.067,142.918,68.633,142.918,71.917L142.918,75.2" id="L-A-B-0" class="edge-thickness-normal edge-pattern-solid flowchart-link LS-A LE-B" style="fill:none;" marker-end="url(#my-svg_flowchart-pointEnd)"/><path d="M461.955,30.5L461.955,34.667C461.955,38.833,461.955,47.167,461.955,54.617C461.955,62.067,461.955,68.633,461.955,71.917L461.955,75.2" id="L-A-C-0" class="edge-thickness-normal edge-pattern-solid flowchart-link LS-A LE-C" style="fill:none;" marker-end="url(#my-svg_flowchart-pointEnd)"/><path d="M511.463,21.936L552.884,27.53C594.306,33.124,677.149,44.312,718.571,53.189C759.992,62.067,759.992,68.633,759.992,71.917L759.992,75.2" id="L-A-D-0" class="edge-thickness-normal edge-pattern-solid flowchart-link LS-A LE-D" style="fill:none;" marker-end="url(#my-svg_flowchart-pointEnd)"/><path d="M112.301,111L103.936,115.167C95.57,119.333,78.84,127.667,70.475,135.117C62.109,142.567,62.109,149.133,62.109,152.417L62.109,155.7" id="L-B-B1-0" class="edge-thickness-normal edge-pattern-solid flowchart-link LS-B LE-B1" style="fill:none;" marker-end="url(#my-svg_flowchart-pointEnd)"/><path d="M173.535,111L181.9,115.167C190.265,119.333,206.996,127.667,215.361,135.117C223.727,142.567,223.727,149.133,223.727,152.417L223.727,155.7" id="L-B-B2-0" class="edge-thickness-normal edge-pattern-solid flowchart-link LS-B LE-B2" style="fill:none;" marker-end="url(#my-svg_flowchart-pointEnd)"/><path d="M431.337,111L422.972,115.167C414.606,119.333,397.875,127.667,389.51,135.117C381.145,142.567,381.145,149.133,381.145,152.417L381.145,155.7" id="L-C-C1-0" class="edge-thickness-normal edge-pattern-solid flowchart-link LS-C LE-C1" style="fill:none;" marker-end="url(#my-svg_flowchart-pointEnd)"/><path d="M492.573,111L500.938,115.167C509.304,119.333,526.035,127.667,534.4,135.117C542.766,142.567,542.766,149.133,542.766,152.417L542.766,155.7" id="L-C-C2-0" class="edge-thickness-normal edge-pattern-solid flowchart-link LS-C LE-C2" style="fill:none;" marker-end="url(#my-svg_flowchart-pointEnd)"/><path d="M734.15,111L727.089,115.167C720.028,119.333,705.907,127.667,698.846,135.117C691.785,142.567,691.785,149.133,691.785,152.417L691.785,155.7" id="L-D-D1-0" class="edge-thickness-normal edge-pattern-solid flowchart-link LS-D LE-D1" style="fill:none;" marker-end="url(#my-svg_flowchart-pointEnd)"/><path d="M785.835,111L792.895,115.167C799.956,119.333,814.078,127.667,821.138,135.117C828.199,142.567,828.199,149.133,828.199,152.417L828.199,155.7" id="L-D-D2-0" class="edge-thickness-normal edge-pattern-solid flowchart-link LS-D LE-D2" style="fill:none;" marker-end="url(#my-svg_flowchart-pointEnd)"/></g><g class="edgeLabels"><g class="edgeLabel"><g class="label" transform="translate(0, 0)"><rect rx="0" ry="0" width="0" height="0"/><text style=""><tspan xml:space="preserve" dy="1em" x="0" class="row"/></text></g></g><g class="edgeLabel"><g class="label" transform="translate(0, 0)"><rect rx="0" ry="0" width="0" height="0"/><text style=""><tspan xml:space="preserve" dy="1em" x="0" class="row"/></text></g></g><g class="edgeLabel"><g class="label" transform="translate(0, 0)"><rect rx="0" ry="0" width="0" height="0"/><text style=""><tspan xml:space="preserve" dy="1em" x="0" class="row"/></text></g></g><g class="edgeLabel"><g class="label" transform="translate(0, 0)"><rect rx="0" ry="0" width="0" height="0"/><text style=""><tspan xml:space="preserve" dy="1em" x="0" class="row"/></text></g></g><g class="edgeLabel"><g class="label" transform="translate(0, 0)"><rect rx="0" ry="0" width="0" height="0"/><text style=""><tspan xml:space="preserve" dy="1em" x="0" class="row"/></text></g></g><g class="edgeLabel"><g class="label" transform="translate(0, 0)"><rect rx="0" ry="0" width="0" height="0"/><text style=""><tspan xml:space="preserve" dy="1em" x="0" class="row"/></text></g></g><g class="edgeLabel"><g class="label" transform="translate(0, 0)"><rect rx="0" ry="0" width="0" height="0"/><text style=""><tspan xml:space="preserve" dy="1em" x="0" class="row"/></text></g></g><g class="edgeLabel"><g class="label" transform="translate(0, 0)"><rect rx="0" ry="0" width="0" height="0"/><text style=""><tspan xml:space="preserve" dy="1em" x="0" class="row"/></text></g></g><g class="edgeLabel"><g class="label" transform="translate(0, 0)"><rect rx="0" ry="0" width="0" height="0"/><text style=""><tspan xml:space="preserve" dy="1em" x="0" class="row"/></text></g></g></g><g class="nodes"><g class="node default default flowchart-label" id="flowchart-A-0" data-node="true" data-id="A" transform="translate(461.955078125, 15.25)"><rect class="basic label-container" style="" rx="0" ry="0" x="-49.5078125" y="-15.25" width="99.015625" height="30.5"/><g class="label" style="" transform="translate(0, -7.75)"><rect/><text style=""><tspan xml:space="preserve" dy="1em" x="0" class="row">Data Value</tspan></text></g></g><g class="node default default flowchart-label" id="flowchart-B-1" data-node="true" data-id="B" transform="translate(142.91796875, 95.75)"><rect class="basic label-container" style="" rx="0" ry="0" x="-53.7109375" y="-15.25" width="107.421875" height="30.5"/><g class="label" style="" transform="translate(0, -7.75)"><rect/><text style=""><tspan xml:space="preserve" dy="1em" x="0" class="row">Statistical</tspan></text></g></g><g class="node default default flowchart-label" id="flowchart-C-3" data-node="true" data-id="C" transform="translate(461.955078125, 95.75)"><rect class="basic label-container" style="" rx="0" ry="0" x="-49.5078125" y="-15.25" width="99.015625" height="30.5"/><g class="label" style="" transform="translate(0, -7.75)"><rect/><text style=""><tspan xml:space="preserve" dy="1em" x="0" class="row">Relational</tspan></text></g></g><g class="node default default flowchart-label" id="flowchart-D-5" data-node="true" data-id="D" transform="translate(759.9921875, 95.75)"><rect class="basic label-container" style="" rx="0" ry="0" x="-41.10546875" y="-15.25" width="82.2109375" height="30.5"/><g class="label" style="" transform="translate(0, -7.75)"><rect/><text style=""><tspan xml:space="preserve" dy="1em" x="0" class="row">Temporal</tspan></text></g></g><g class="node default default flowchart-label" id="flowchart-B1-7" data-node="true" data-id="B1" transform="translate(62.109375, 176.25)"><rect class="basic label-container" style="" rx="0" ry="0" x="-62.109375" y="-15.25" width="124.21875" height="30.5"/><g class="label" style="" transform="translate(0, -7.75)"><rect/><text style=""><tspan xml:space="preserve" dy="1em" x="0" class="row">Distributions</tspan></text></g></g><g class="node default default flowchart-label" id="flowchart-B2-9" data-node="true" data-id="B2" transform="translate(223.7265625, 176.25)"><rect class="basic label-container" style="" rx="0" ry="0" x="-49.5078125" y="-15.25" width="99.015625" height="30.5"/><g class="label" style="" transform="translate(0, -7.75)"><rect/><text style=""><tspan xml:space="preserve" dy="1em" x="0" class="row">Aggregates</tspan></text></g></g><g class="node default default flowchart-label" id="flowchart-C1-11" data-node="true" data-id="C1" transform="translate(381.14453125, 176.25)"><rect class="basic label-container" style="" rx="0" ry="0" x="-57.91015625" y="-15.25" width="115.8203125" height="30.5"/><g class="label" style="" transform="translate(0, -7.75)"><rect/><text style=""><tspan xml:space="preserve" dy="1em" x="0" class="row">Dependencies</tspan></text></g></g><g class="node default default flowchart-label" id="flowchart-C2-13" data-node="true" data-id="C2" transform="translate(542.765625, 176.25)"><rect class="basic label-container" style="" rx="0" ry="0" x="-53.7109375" y="-15.25" width="107.421875" height="30.5"/><g class="label" style="" transform="translate(0, -7.75)"><rect/><text style=""><tspan xml:space="preserve" dy="1em" x="0" class="row">Hierarchies</tspan></text></g></g><g class="node default default flowchart-label" id="flowchart-D1-15" data-node="true" data-id="D1" transform="translate(691.78515625, 176.25)"><rect class="basic label-container" style="" rx="0" ry="0" x="-45.30859375" y="-15.25" width="90.6171875" height="30.5"/><g class="label" style="" transform="translate(0, -7.75)"><rect/><text style=""><tspan xml:space="preserve" dy="1em" x="0" class="row">Sequences</tspan></text></g></g><g class="node default default flowchart-label" id="flowchart-D2-17" data-node="true" data-id="D2" transform="translate(828.19921875, 176.25)"><rect class="basic label-container" style="" rx="0" ry="0" x="-41.10546875" y="-15.25" width="82.2109375" height="30.5"/><g class="label" style="" transform="translate(0, -7.75)"><rect/><text style=""><tspan xml:space="preserve" dy="1em" x="0" class="row">Patterns</tspan></text></g></g></g></g></g></svg>