<svg id="my-svg" xmlns="http://www.w3.org/2000/svg" xmlns:xlink="http://www.w3.org/1999/xlink" style="max-width: 651.141px; background-color: transparent;" viewBox="-8 -8 651.140625 798.421875" role="img" aria-roledescription="flowchart-v2"><style>#my-svg{font-family:'IBM Plex Mono',monospace;font-size:14px;fill:var(--nlab);}#my-svg .error-icon{fill:var(--surface);}#my-svg .error-text{fill:var(--nlab);stroke:var(--nlab);}#my-svg .edge-thickness-normal{stroke-width:2px;}#my-svg .edge-thickness-thick{stroke-width:3.5px;}#my-svg .edge-pattern-solid{stroke-dasharray:0;}#my-svg .edge-pattern-dashed{stroke-dasharray:3;}#my-svg .edge-pattern-dotted{stroke-dasharray:2;}#my-svg .marker{fill:var(--edge);stroke:var(--edge);}#my-svg .marker.cross{stroke:var(--edge);}#my-svg svg{font-family:'IBM Plex Mono',monospace;font-size:14px;}#my-svg .label{font-family:'IBM Plex Mono',monospace;color:var(--nlab);}#my-svg .cluster-label text{fill:var(--nlab);}#my-svg .cluster-label span,#my-svg p{color:var(--nlab);}#my-svg .label text,#my-svg span,#my-svg p{fill:var(--nlab);color:var(--nlab);}#my-svg .node rect,#my-svg .node circle,#my-svg .node ellipse,#my-svg .node polygon,#my-svg .node path{fill:var(--node-fill);stroke:var(--node-stroke);stroke-width:1px;}#my-svg .flowchart-label text{text-anchor:middle;}#my-svg .node .katex path{fill:var(--nlab);stroke:var(--nlab);stroke-width:1px;}#my-svg .node .label{text-align:center;}#my-svg .node.clickable{cursor:pointer;}#my-svg .arrowheadPath{fill:var(--edge);}#my-svg .edgePath .path{stroke:var(--edge);stroke-width:2.0px;}#my-svg .flowchart-link{stroke:var(--edge);fill:none;}#my-svg .edgeLabel{background-color:var(--surface);text-align:center;}#my-svg .edgeLabel rect{opacity:0.5;background-color:var(--surface);fill:var(--surface);}#my-svg .labelBkg{background-color:var(--surface);}#my-svg .cluster rect{fill:var(--surface);stroke:var(--border);stroke-width:1px;}#my-svg .cluster text{fill:var(--nlab);}#my-svg .cluster span,#my-svg p{color:var(--nlab);}#my-svg div.mermaidTooltip{position:absolute;text-align:center;max-width:200px;padding:2px;font-family:'IBM Plex Mono',monospace;font-size:12px;background:var(--surface);border:1px solid hsl(21.7021276596, 55.9183673469%, 38.0392156863%);border-radius:2px;pointer-events:none;z-index:100;}#my-svg .flowchartTitleText{text-anchor:middle;font-size:18px;fill:var(--nlab);}#my-svg .edgeLabel rect{opacity:1;stroke:var(--surface);stroke-width:6px;stroke-linejoin:round;}#my-svg :root{--mermaid-font-family:"trebuchet ms",verdana,arial,sans-serif;}</style><g><marker id="my-svg_flowchart-pointEnd" class="marker flowchart" viewBox="0 0 10 10" refX="6" refY="5" markerUnits="userSpaceOnUse" markerWidth="12" markerHeight="12" orient="auto"><path d="M 0 0 L 10 5 L 0 10 z" class="arrowMarkerPath" style="stroke-width: 1; stroke-dasharray: 1, 0;"/></marker><marker id="my-svg_flowchart-pointStart" class="marker flowchart" viewBox="0 0 10 10" refX="4.5" refY="5" markerUnits="userSpaceOnUse" markerWidth="12" markerHeight="12" orient="auto"><path d="M 0 5 L 10 10 L 10 0 z" class="arrowMarkerPath" style="stroke-width: 1; stroke-dasharray: 1, 0;"/></marker><marker id="my-svg_flowchart-circleEnd" class="marker flowchart" viewBox="0 0 10 10" refX="11" refY="5" markerUnits="userSpaceOnUse" markerWidth="11" markerHeight="11" orient="auto"><circle cx="5" cy="5" r="5" class="arrowMarkerPath" style="stroke-width: 1; stroke-dasharray: 1, 0;"/></marker><marker id="my-svg_flowchart-circleStart" class="marker flowchart" viewBox="0 0 10 10" refX="-1" refY="5" markerUnits="userSpaceOnUse" markerWidth="11" markerHeight="11" orient="auto"><circle cx="5" cy="5" r="5" class="arrowMarkerPath" style="stroke-width: 1; stroke-dasharray: 1, 0;"/></marker><marker id="my-svg_flowchart-crossEnd" class="marker cross flowchart" viewBox="0 0 11 11" refX="12" refY="5.2" markerUnits="userSpaceOnUse" markerWidth="11" markerHeight="11" orient="auto"><path d="M 1,1 l 9,9 M 10,1 l -9,9" class="arrowMarkerPath" style="stroke-width: 2; stroke-dasharray: 1, 0;"/></marker><marker id="my-svg_flowchart-crossStart" class="marker cross flowchart" viewBox="0 0 11 11" refX="-1" refY="5.2" markerUnits="userSpaceOnUse" markerWidth="11" markerHeight="11" orient="auto"><path d="M 1,1 l 9,9 M 10,1 l -9,9" class="arrowMarkerPath" style="stroke-width: 2; stroke-dasharray: 1, 0;"/></marker><g class="root"><g class="clusters"/><g class="edgePaths"><path d="M299.117,33L299.117,33L299.117,58L299.315,58L299.315,78.201L299.513,78.201" id="L-A-B-0" class="edge-thickness-normal edge-pattern-solid flowchart-link LS-A LE-B" style="fill:none;" marker-end="url(#my-svg_flowchart-pointEnd)"/><path d="M262.384,153.079L190.495,153.079L190.495,214.813L118.605,214.813L118.605,248.813L118.605,248.813L118.605,282.813L118.605,282.813L118.605,302.513L118.605,302.513" id="L-B-C-0" class="edge-thickness-normal edge-pattern-solid flowchart-link LS-B LE-C" style="fill:none;" marker-end="url(#my-svg_flowchart-pointEnd)"/><path d="M335.729,154.201L399.278,154.201L399.278,214.813L462.828,214.813L462.828,248.813L462.828,248.813L462.828,282.813L462.828,282.813L462.828,302.513L462.828,302.513" id="L-B-D-0" class="edge-thickness-normal edge-pattern-solid flowchart-link LS-B LE-D" style="fill:none;" marker-end="url(#my-svg_flowchart-pointEnd)"/><path d="M118.605,340.813L118.605,340.813L118.605,365.813L118.605,365.813L118.605,385.513L118.605,385.513" id="L-C-E-0" class="edge-thickness-normal edge-pattern-solid flowchart-link LS-C LE-E" style="fill:none;" marker-end="url(#my-svg_flowchart-pointEnd)"/><path d="M462.828,340.813L462.828,340.813L462.828,365.813L462.828,365.813L462.828,385.513L462.828,385.513" id="L-D-F-0" class="edge-thickness-normal edge-pattern-solid flowchart-link LS-D LE-F" style="fill:none;" marker-end="url(#my-svg_flowchart-pointEnd)"/><path d="M118.605,423.813L118.605,423.813L118.605,448.813L118.804,448.813L118.804,469.014L119.002,469.014" id="L-E-G-0" class="edge-thickness-normal edge-pattern-solid flowchart-link LS-E LE-G" style="fill:none;" marker-end="url(#my-svg_flowchart-pointEnd)"/><path d="M462.828,423.813L462.828,423.813L462.828,448.813L463.026,448.813L463.026,469.014L463.224,469.014" id="L-F-H-0" class="edge-thickness-normal edge-pattern-solid flowchart-link LS-F LE-H" style="fill:none;" marker-end="url(#my-svg_flowchart-pointEnd)"/><path d="M82.018,644.834L62.009,644.834L62.009,715.422L42,715.422L42,744.122L42,744.122" id="L-G-I-0" class="edge-thickness-normal edge-pattern-solid flowchart-link LS-G LE-I" style="fill:none;" marker-end="url(#my-svg_flowchart-pointEnd)"/><path d="M156.193,644.834L175.702,644.834L175.702,715.422L195.211,715.422L195.211,744.122L195.211,744.122" id="L-G-J-0" class="edge-thickness-normal edge-pattern-solid flowchart-link LS-G LE-J" style="fill:none;" marker-end="url(#my-svg_flowchart-pointEnd)"/><path d="M421.392,639.986L395.407,639.986L395.407,715.422L369.422,715.422L369.422,744.122L369.422,744.122" id="L-H-K-0" class="edge-thickness-normal edge-pattern-solid flowchart-link LS-H LE-K" style="fill:none;" marker-end="url(#my-svg_flowchart-pointEnd)"/><path d="M505.264,639.986L530.749,639.986L530.749,715.422L556.234,715.422L556.234,744.122L556.234,744.122" id="L-H-L-0" class="edge-thickness-normal edge-pattern-solid flowchart-link LS-H LE-L" style="fill:none;" marker-end="url(#my-svg_flowchart-pointEnd)"/></g><g class="edgeLabels"><g class="edgeLabel"><g class="label" transform="translate(0, 0)"><rect rx="0" ry="0" width="0" height="0"/><text style=""><tspan xml:space="preserve" dy="1em" x="0" class="row"/></text></g></g><g class="edgeLabel" transform="translate(118.60546875, 248.8125)"><g class="label" transform="translate(-29.40625, -9)"><rect rx="0" ry="0" width="58.8125" height="18"/><text style=""><tspan xml:space="preserve" dy="1em" x="0" class="row">5% keep</tspan></text></g></g><g class="edgeLabel" transform="translate(462.828125, 248.8125)"><g class="label" transform="translate(-33.6015625, -9)"><rect rx="0" ry="0" width="67.203125" height="18"/><text style=""><tspan xml:space="preserve" dy="1em" x="0" class="row">95% drop</tspan></text></g></g><g class="edgeLabel"><g class="label" transform="translate(0, 0)"><rect rx="0" ry="0" width="0" height="0"/><text style=""><tspan xml:space="preserve" dy="1em" x="0" class="row"/></text></g></g><g class="edgeLabel"><g class="label" transform="translate(0, 0)"><rect rx="0" ry="0" width="0" height="0"/><text style=""><tspan xml:space="preserve" dy="1em" x="0" class="row"/></text></g></g><g class="edgeLabel"><g class="label" transform="translate(0, 0)"><rect rx="0" ry="0" width="0" height="0"/><text style=""><tspan xml:space="preserve" dy="1em" x="0" class="row"/></text></g></g><g class="edgeLabel"><g class="label" transform="translate(0, 0)"><rect rx="0" ry="0" width="0" height="0"/><text style=""><tspan xml:space="preserve" dy="1em" x="0" class="row"/></text></g></g><g class="edgeLabel" transform="translate(42, 715.421875)"><g class="label" transform="translate(-42, -9)"><rect rx="0" ry="0" width="84" height="18"/><text style=""><tspan xml:space="preserve" dy="1em" x="0" class="row">Yes, lucky</tspan></text></g></g><g class="edgeLabel" transform="translate(195.2109375, 715.421875)"><g class="label" transform="translate(-8.40625, -9)"><rect rx="0" ry="0" width="16.8125" height="18"/><text style=""><tspan xml:space="preserve" dy="1em" x="0" class="row">No</tspan></text></g></g><g class="edgeLabel" transform="translate(369.421875, 715.421875)"><g class="label" transform="translate(-50.40625, -9)"><rect rx="0" ry="0" width="100.8125" height="18"/><text style=""><tspan xml:space="preserve" dy="1em" x="0" class="row">Yes, unlucky</tspan></text></g></g><g class="edgeLabel" transform="translate(556.234375, 715.421875)"><g class="label" transform="translate(-8.40625, -9)"><rect rx="0" ry="0" width="16.8125" height="18"/><text style=""><tspan xml:space="preserve" dy="1em" x="0" class="row">No</tspan></text></g></g></g><g class="nodes"><g class="node default default flowchart-label" id="flowchart-A-0" data-node="true" data-id="A" transform="translate(299.1171875, 16.5)"><rect class="basic label-container" style="" rx="0" ry="0" x="-70.5" y="-16.5" width="141" height="33"/><g class="label" style="" transform="translate(0, -9)"><rect/><text style=""><tspan xml:space="preserve" dy="1em" x="0" class="row">Request Arrives</tspan></text></g></g><g class="node default default flowchart-label" id="flowchart-B-1" data-node="true" data-id="B" transform="translate(299.1171875, 136.40625)"><polygon points="53.40625,0 106.8125,-53.40625 53.40625,-106.8125 0,-53.40625" class="label-container" transform="translate(-53.40625,53.40625)" style=""/><g class="label" style="" transform="translate(0, -9)"><rect/><text style=""><tspan xml:space="preserve" dy="1em" x="0" class="row">Sample?</tspan></text></g></g><g class="node default default flowchart-label" id="flowchart-C-3" data-node="true" data-id="C" transform="translate(118.60546875, 324.3125)"><rect class="basic label-container" style="" rx="0" ry="0" x="-66.3046875" y="-16.5" width="132.609375" height="33"/><g class="label" style="" transform="translate(0, -9)"><rect/><text style=""><tspan xml:space="preserve" dy="1em" x="0" class="row">Trace Recorded</tspan></text></g></g><g class="node default default flowchart-label" id="flowchart-D-5" data-node="true" data-id="D" transform="translate(462.828125, 324.3125)"><rect class="basic label-container" style="" rx="0" ry="0" x="-70.5" y="-16.5" width="141" height="33"/><g class="label" style="" transform="translate(0, -9)"><rect/><text style=""><tspan xml:space="preserve" dy="1em" x="0" class="row">Trace Discarded</tspan></text></g></g><g class="node default default flowchart-label" id="flowchart-E-7" data-node="true" data-id="E" transform="translate(118.60546875, 407.3125)"><rect class="basic label-container" style="" rx="0" ry="0" x="-78.90625" y="-16.5" width="157.8125" height="33"/><g class="label" style="" transform="translate(0, -9)"><rect/><text style=""><tspan xml:space="preserve" dy="1em" x="0" class="row">Request Completes</tspan></text></g></g><g class="node default default flowchart-label" id="flowchart-F-9" data-node="true" data-id="F" transform="translate(462.828125, 407.3125)"><rect class="basic label-container" style="" rx="0" ry="0" x="-78.90625" y="-16.5" width="157.8125" height="33"/><g class="label" style="" transform="translate(0, -9)"><rect/><text style=""><tspan xml:space="preserve" dy="1em" x="0" class="row">Request Completes</tspan></text></g></g><g class="node default default flowchart-label" id="flowchart-G-11" data-node="true" data-id="G" transform="translate(118.60546875, 577.6171875)"><polygon points="103.8046875,0 207.609375,-103.8046875 103.8046875,-207.609375 0,-103.8046875" class="label-container" transform="translate(-103.8046875,103.8046875)" style=""/><g class="label" style="" transform="translate(0, -9)"><rect/><text style=""><tspan xml:space="preserve" dy="1em" x="0" class="row">Was it interesting?</tspan></text></g></g><g class="node default default flowchart-label" id="flowchart-H-13" data-node="true" data-id="H" transform="translate(462.828125, 577.6171875)"><polygon points="103.8046875,0 207.609375,-103.8046875 103.8046875,-207.609375 0,-103.8046875" class="label-container" transform="translate(-103.8046875,103.8046875)" style=""/><g class="label" style="" transform="translate(0, -9)"><rect/><text style=""><tspan xml:space="preserve" dy="1em" x="0" class="row">Was it interesting?</tspan></text></g></g><g class="node default default flowchart-label" id="flowchart-I-15" data-node="true" data-id="I" transform="translate(42, 765.921875)"><rect class="basic label-container" style="" rx="0" ry="0" x="-36.90625" y="-16.5" width="73.8125" height="33"/><g class="label" style="" transform="translate(0, -9)"><rect/><text style=""><tspan xml:space="preserve" dy="1em" x="0" class="row">Visible</tspan></text></g></g><g class="node default default flowchart-label" id="flowchart-J-17" data-node="true" data-id="J" transform="translate(195.2109375, 765.921875)"><rect class="basic label-container" style="" rx="0" ry="0" x="-66.3046875" y="-16.5" width="132.609375" height="33"/><g class="label" style="" transform="translate(0, -9)"><rect/><text style=""><tspan xml:space="preserve" dy="1em" x="0" class="row">Noise you kept</tspan></text></g></g><g class="node default default flowchart-label" id="flowchart-K-19" data-node="true" data-id="K" transform="translate(369.421875, 765.921875)"><rect class="basic label-container" style="" rx="0" ry="0" x="-57.90625" y="-16.5" width="115.8125" height="33"/><g class="label" style="" transform="translate(0, -9)"><rect/><text style=""><tspan xml:space="preserve" dy="1em" x="0" class="row">Gone forever</tspan></text></g></g><g class="node default default flowchart-label" id="flowchart-L-21" data-node="true" data-id="L" transform="translate(556.234375, 765.921875)"><rect class="basic label-container" style="" rx="0" ry="0" x="-78.90625" y="-16.5" width="157.8125" height="33"/><g class="label" style="" transform="translate(0, -9)"><rect/><text style=""><tspan xml:space="preserve" dy="1em" x="0" class="row">Noise you dropped</tspan></text></g></g></g></g></g></svg>