<svg id="my-svg" xmlns="http://www.w3.org/2000/svg" xmlns:xlink="http://www.w3.org/1999/xlink" style="max-width: 614.633px; background-color: transparent;" viewBox="-8 -8 614.6328125 795.609375" role="img" aria-roledescription="flowchart-v2"><style>#my-svg{font-family:'IBM Plex Mono',monospace;font-size:14px;fill:var(--nlab);}#my-svg .error-icon{fill:var(--surface);}#my-svg .error-text{fill:var(--nlab);stroke:var(--nlab);}#my-svg .edge-thickness-normal{stroke-width:2px;}#my-svg .edge-thickness-thick{stroke-width:3.5px;}#my-svg .edge-pattern-solid{stroke-dasharray:0;}#my-svg .edge-pattern-dashed{stroke-dasharray:3;}#my-svg .edge-pattern-dotted{stroke-dasharray:2;}#my-svg .marker{fill:var(--edge);stroke:var(--edge);}#my-svg .marker.cross{stroke:var(--edge);}#my-svg svg{font-family:'IBM Plex Mono',monospace;font-size:14px;}#my-svg .label{font-family:'IBM Plex Mono',monospace;color:var(--nlab);}#my-svg .cluster-label text{fill:var(--nlab);}#my-svg .cluster-label span,#my-svg p{color:var(--nlab);}#my-svg .label text,#my-svg span,#my-svg p{fill:var(--nlab);color:var(--nlab);}#my-svg .node rect,#my-svg .node circle,#my-svg .node ellipse,#my-svg .node polygon,#my-svg .node path{fill:var(--node-fill);stroke:var(--node-stroke);stroke-width:1px;}#my-svg .flowchart-label text{text-anchor:middle;}#my-svg .node .katex path{fill:var(--nlab);stroke:var(--nlab);stroke-width:1px;}#my-svg .node .label{text-align:center;}#my-svg .node.clickable{cursor:pointer;}#my-svg .arrowheadPath{fill:var(--edge);}#my-svg .edgePath .path{stroke:var(--edge);stroke-width:2.0px;}#my-svg .flowchart-link{stroke:var(--edge);fill:none;}#my-svg .edgeLabel{background-color:var(--surface);text-align:center;}#my-svg .edgeLabel rect{opacity:0.5;background-color:var(--surface);fill:var(--surface);}#my-svg .labelBkg{background-color:var(--surface);}#my-svg .cluster rect{fill:var(--surface);stroke:var(--border);stroke-width:1px;}#my-svg .cluster text{fill:var(--nlab);}#my-svg .cluster span,#my-svg p{color:var(--nlab);}#my-svg div.mermaidTooltip{position:absolute;text-align:center;max-width:200px;padding:2px;font-family:'IBM Plex Mono',monospace;font-size:12px;background:var(--surface);border:1px solid hsl(21.7021276596, 55.9183673469%, 38.0392156863%);border-radius:2px;pointer-events:none;z-index:100;}#my-svg .flowchartTitleText{text-anchor:middle;font-size:18px;fill:var(--nlab);}#my-svg .edgeLabel rect{opacity:1;stroke:var(--surface);stroke-width:6px;stroke-linejoin:round;}#my-svg :root{--mermaid-font-family:"trebuchet ms",verdana,arial,sans-serif;}</style><g><marker id="my-svg_flowchart-pointEnd" class="marker flowchart" viewBox="0 0 10 10" refX="6" refY="5" markerUnits="userSpaceOnUse" markerWidth="12" markerHeight="12" orient="auto"><path d="M 0 0 L 10 5 L 0 10 z" class="arrowMarkerPath" style="stroke-width: 1; stroke-dasharray: 1, 0;"/></marker><marker id="my-svg_flowchart-pointStart" class="marker flowchart" viewBox="0 0 10 10" refX="4.5" refY="5" markerUnits="userSpaceOnUse" markerWidth="12" markerHeight="12" orient="auto"><path d="M 0 5 L 10 10 L 10 0 z" class="arrowMarkerPath" style="stroke-width: 1; stroke-dasharray: 1, 0;"/></marker><marker id="my-svg_flowchart-circleEnd" class="marker flowchart" viewBox="0 0 10 10" refX="11" refY="5" markerUnits="userSpaceOnUse" markerWidth="11" markerHeight="11" orient="auto"><circle cx="5" cy="5" r="5" class="arrowMarkerPath" style="stroke-width: 1; stroke-dasharray: 1, 0;"/></marker><marker id="my-svg_flowchart-circleStart" class="marker flowchart" viewBox="0 0 10 10" refX="-1" refY="5" markerUnits="userSpaceOnUse" markerWidth="11" markerHeight="11" orient="auto"><circle cx="5" cy="5" r="5" class="arrowMarkerPath" style="stroke-width: 1; stroke-dasharray: 1, 0;"/></marker><marker id="my-svg_flowchart-crossEnd" class="marker cross flowchart" viewBox="0 0 11 11" refX="12" refY="5.2" markerUnits="userSpaceOnUse" markerWidth="11" markerHeight="11" orient="auto"><path d="M 1,1 l 9,9 M 10,1 l -9,9" class="arrowMarkerPath" style="stroke-width: 2; stroke-dasharray: 1, 0;"/></marker><marker id="my-svg_flowchart-crossStart" class="marker cross flowchart" viewBox="0 0 11 11" refX="-1" refY="5.2" markerUnits="userSpaceOnUse" markerWidth="11" markerHeight="11" orient="auto"><path d="M 1,1 l 9,9 M 10,1 l -9,9" class="arrowMarkerPath" style="stroke-width: 2; stroke-dasharray: 1, 0;"/></marker><g class="root"><g class="clusters"/><g class="edgePaths"><path d="M303.516,33L303.516,33L303.516,58L303.516,58L303.516,77.7L303.516,77.7" id="L-A-B-0" class="edge-thickness-normal edge-pattern-solid flowchart-link LS-A LE-B" style="fill:none;" marker-end="url(#my-svg_flowchart-pointEnd)"/><path d="M303.516,116L303.516,116L303.516,141L303.714,141L303.714,161.201L303.912,161.201" id="L-B-C-0" class="edge-thickness-normal edge-pattern-solid flowchart-link LS-B LE-C" style="fill:none;" marker-end="url(#my-svg_flowchart-pointEnd)"/><path d="M250.255,278.348L168.78,278.348L168.78,365.609L87.305,365.609L87.305,394.309L87.305,394.309" id="L-C-D-0" class="edge-thickness-normal edge-pattern-solid flowchart-link LS-C LE-D" style="fill:none;" marker-end="url(#my-svg_flowchart-pointEnd)"/><path d="M304.016,332.109L303.766,332.109L303.766,365.609L303.516,365.609L303.516,437.109L303.516,437.109L303.516,499.609L303.516,499.609L303.516,519.309L303.516,519.309" id="L-C-E-0" class="edge-thickness-normal edge-pattern-solid flowchart-link LS-C LE-E" style="fill:none;" marker-end="url(#my-svg_flowchart-pointEnd)"/><path d="M357.777,278.348L438.752,278.348L438.752,365.609L519.727,365.609L519.727,437.109L519.727,437.109L519.727,499.609L519.727,499.609L519.727,519.309L519.727,519.309" id="L-C-F-0" class="edge-thickness-normal edge-pattern-solid flowchart-link LS-C LE-F" style="fill:none;" marker-end="url(#my-svg_flowchart-pointEnd)"/><path d="M87.305,474.609L87.305,474.609L87.305,499.609L87.305,499.609L87.305,526.309L87.305,526.309" id="L-D-G-0" class="edge-thickness-normal edge-pattern-solid flowchart-link LS-D LE-G" style="fill:none;" marker-end="url(#my-svg_flowchart-pointEnd)"/><path d="M87.305,606.609L87.305,606.609L87.305,638.609L174.355,638.609L174.355,672.026L261.404,672.026" id="L-G-I-0" class="edge-thickness-normal edge-pattern-solid flowchart-link LS-G LE-I" style="fill:none;" marker-end="url(#my-svg_flowchart-pointEnd)"/><path d="M303.516,613.609L303.516,613.609L303.516,638.609L303.516,638.609L303.516,658.309L303.516,658.309" id="L-E-I-0" class="edge-thickness-normal edge-pattern-solid flowchart-link LS-E LE-I" style="fill:none;" marker-end="url(#my-svg_flowchart-pointEnd)"/><path d="M519.727,613.609L519.727,613.609L519.727,638.609L432.677,638.609L432.677,672.026L345.627,672.026" id="L-F-I-0" class="edge-thickness-normal edge-pattern-solid flowchart-link LS-F LE-I" style="fill:none;" marker-end="url(#my-svg_flowchart-pointEnd)"/><path d="M303.516,696.609L303.516,696.609L303.516,721.609L303.516,721.609L303.516,741.309L303.516,741.309" id="L-I-J-0" class="edge-thickness-normal edge-pattern-solid flowchart-link LS-I LE-J" style="fill:none;" marker-end="url(#my-svg_flowchart-pointEnd)"/></g><g class="edgeLabels"><g class="edgeLabel"><g class="label" transform="translate(0, 0)"><rect rx="0" ry="0" width="0" height="0"/><text style=""><tspan xml:space="preserve" dy="1em" x="0" class="row"/></text></g></g><g class="edgeLabel"><g class="label" transform="translate(0, 0)"><rect rx="0" ry="0" width="0" height="0"/><text style=""><tspan xml:space="preserve" dy="1em" x="0" class="row"/></text></g></g><g class="edgeLabel" transform="translate(87.3046875, 365.609375)"><g class="label" transform="translate(-8.40625, -9)"><rect rx="0" ry="0" width="16.797204971313477" height="18.000354766845703"/><text style=""><tspan xml:space="preserve" dy="1em" x="0" class="row">P0</tspan></text></g></g><g class="edgeLabel" transform="translate(303.515625, 437.109375)"><g class="label" transform="translate(-8.40625, -9)"><rect rx="0" ry="0" width="16.797204971313477" height="18.000354766845703"/><text style=""><tspan xml:space="preserve" dy="1em" x="0" class="row">P1</tspan></text></g></g><g class="edgeLabel" transform="translate(519.7265625, 437.109375)"><g class="label" transform="translate(-8.40625, -9)"><rect rx="0" ry="0" width="16.797204971313477" height="18.000354766845703"/><text style=""><tspan xml:space="preserve" dy="1em" x="0" class="row">P2</tspan></text></g></g><g class="edgeLabel"><g class="label" transform="translate(0, 0)"><rect rx="0" ry="0" width="0" height="0"/><text style=""><tspan xml:space="preserve" dy="1em" x="0" class="row"/></text></g></g><g class="edgeLabel"><g class="label" transform="translate(0, 0)"><rect rx="0" ry="0" width="0" height="0"/><text style=""><tspan xml:space="preserve" dy="1em" x="0" class="row"/></text></g></g><g class="edgeLabel"><g class="label" transform="translate(0, 0)"><rect rx="0" ry="0" width="0" height="0"/><text style=""><tspan xml:space="preserve" dy="1em" x="0" class="row"/></text></g></g><g class="edgeLabel"><g class="label" transform="translate(0, 0)"><rect rx="0" ry="0" width="0" height="0"/><text style=""><tspan xml:space="preserve" dy="1em" x="0" class="row"/></text></g></g><g class="edgeLabel"><g class="label" transform="translate(0, 0)"><rect rx="0" ry="0" width="0" height="0"/><text style=""><tspan xml:space="preserve" dy="1em" x="0" class="row"/></text></g></g></g><g class="nodes"><g class="node default default flowchart-label" id="flowchart-A-0" data-node="true" data-id="A" transform="translate(303.515625, 16.5)"><rect class="basic label-container" style="" rx="0" ry="0" x="-78.90625" y="-16.5" width="157.8125" height="33"/><g class="label" style="" transform="translate(0, -9)"><rect/><text style=""><tspan xml:space="preserve" dy="1em" x="0" class="row">Incident Detected</tspan></text></g></g><g class="node default default flowchart-label" id="flowchart-B-1" data-node="true" data-id="B" transform="translate(303.515625, 99.5)"><rect class="basic label-container" style="" rx="0" ry="0" x="-70.5" y="-16.5" width="141" height="33"/><g class="label" style="" transform="translate(0, -9)"><rect/><text style=""><tspan xml:space="preserve" dy="1em" x="0" class="row">Assess Severity</tspan></text></g></g><g class="node default default flowchart-label" id="flowchart-C-3" data-node="true" data-id="C" transform="translate(303.515625, 248.8046875)"><polygon points="82.8046875,0 165.609375,-82.8046875 82.8046875,-165.609375 0,-82.8046875" class="label-container" transform="translate(-82.8046875,82.8046875)" style=""/><g class="label" style="" transform="translate(0, -9)"><rect/><text style=""><tspan xml:space="preserve" dy="1em" x="0" class="row">Severity Level</tspan></text></g></g><g class="node default default flowchart-label" id="flowchart-D-5" data-node="true" data-id="D" transform="translate(87.3046875, 437.109375)"><rect class="basic label-container" style="" rx="0" ry="0" x="-87.3046875" y="-37.5" width="174.609375" height="75"/><g class="label" style="" transform="translate(0, -30)"><rect/><text style=""><tspan xml:space="preserve" dy="1em" x="0" class="row">Activate Incident</tspan><tspan xml:space="preserve" dy="1em" x="0" class="row">Response: bridge,</tspan><tspan xml:space="preserve" dy="1em" x="0" class="row">incident commander,</tspan><tspan xml:space="preserve" dy="1em" x="0" class="row">status page update</tspan></text></g></g><g class="node default default flowchart-label" id="flowchart-E-7" data-node="true" data-id="E" transform="translate(303.515625, 569.109375)"><rect class="basic label-container" style="" rx="0" ry="0" x="-87.3046875" y="-44.5" width="174.609375" height="89"/><g class="label" style="" transform="translate(0, -37)"><rect/><text style=""><tspan xml:space="preserve" dy="1em" x="0" class="row">Investigate and</tspan><tspan xml:space="preserve" dy="1em" x="0" class="row">Mitigate: one</tspan><tspan xml:space="preserve" dy="1em" x="0" class="row">on-call engineer</tspan><tspan xml:space="preserve" dy="1em" x="0" class="row">starts, team pulled</tspan><tspan xml:space="preserve" dy="1em" x="0" class="row">in if not contained</tspan></text></g></g><g class="node default default flowchart-label" id="flowchart-F-9" data-node="true" data-id="F" transform="translate(519.7265625, 569.109375)"><rect class="basic label-container" style="" rx="0" ry="0" x="-78.90625" y="-44.5" width="157.8125" height="89"/><g class="label" style="" transform="translate(0, -37)"><rect/><text style=""><tspan xml:space="preserve" dy="1em" x="0" class="row">Resolve in</tspan><tspan xml:space="preserve" dy="1em" x="0" class="row">Business Hours</tspan><tspan xml:space="preserve" dy="1em" x="0" class="row">from the incident</tspan><tspan xml:space="preserve" dy="1em" x="0" class="row">channel, nobody</tspan><tspan xml:space="preserve" dy="1em" x="0" class="row">woken up</tspan></text></g></g><g class="node default default flowchart-label" id="flowchart-G-11" data-node="true" data-id="G" transform="translate(87.3046875, 569.109375)"><rect class="basic label-container" style="" rx="0" ry="0" x="-78.90625" y="-37.5" width="157.8125" height="75"/><g class="label" style="" transform="translate(0, -30)"><rect/><text style=""><tspan xml:space="preserve" dy="1em" x="0" class="row">Communicate to</tspan><tspan xml:space="preserve" dy="1em" x="0" class="row">stakeholders;</tspan><tspan xml:space="preserve" dy="1em" x="0" class="row">escalate if</tspan><tspan xml:space="preserve" dy="1em" x="0" class="row">unresolved in SLA</tspan></text></g></g><g class="node default default flowchart-label" id="flowchart-I-13" data-node="true" data-id="I" transform="translate(303.515625, 680.109375)"><rect class="basic label-container" style="" rx="0" ry="0" x="-36.90625" y="-16.5" width="73.8125" height="33"/><g class="label" style="" transform="translate(0, -9)"><rect/><text style=""><tspan xml:space="preserve" dy="1em" x="0" class="row">Resolve</tspan></text></g></g><g class="node default default flowchart-label" id="flowchart-J-19" data-node="true" data-id="J" transform="translate(303.515625, 763.109375)"><rect class="basic label-container" style="" rx="0" ry="0" x="-49.5" y="-16.5" width="99" height="33"/><g class="label" style="" transform="translate(0, -9)"><rect/><text style=""><tspan xml:space="preserve" dy="1em" x="0" class="row">Postmortem</tspan></text></g></g></g></g></g></svg>