<svg id="my-svg" xmlns="http://www.w3.org/2000/svg" xmlns:xlink="http://www.w3.org/1999/xlink" style="max-width: 448.859px; background-color: transparent;" viewBox="-8 -8 448.859375 424.5" role="img" aria-roledescription="flowchart-v2"><style>#my-svg{font-family:'IBM Plex Mono',monospace;font-size:14px;fill:var(--nlab);}#my-svg .error-icon{fill:var(--surface);}#my-svg .error-text{fill:var(--nlab);stroke:var(--nlab);}#my-svg .edge-thickness-normal{stroke-width:2px;}#my-svg .edge-thickness-thick{stroke-width:3.5px;}#my-svg .edge-pattern-solid{stroke-dasharray:0;}#my-svg .edge-pattern-dashed{stroke-dasharray:3;}#my-svg .edge-pattern-dotted{stroke-dasharray:2;}#my-svg .marker{fill:var(--edge);stroke:var(--edge);}#my-svg .marker.cross{stroke:var(--edge);}#my-svg svg{font-family:'IBM Plex Mono',monospace;font-size:14px;}#my-svg .label{font-family:'IBM Plex Mono',monospace;color:var(--nlab);}#my-svg .cluster-label text{fill:var(--nlab);}#my-svg .cluster-label span,#my-svg p{color:var(--nlab);}#my-svg .label text,#my-svg span,#my-svg p{fill:var(--nlab);color:var(--nlab);}#my-svg .node rect,#my-svg .node circle,#my-svg .node ellipse,#my-svg .node polygon,#my-svg .node path{fill:var(--node-fill);stroke:var(--node-stroke);stroke-width:1px;}#my-svg .flowchart-label text{text-anchor:middle;}#my-svg .node .katex path{fill:var(--nlab);stroke:var(--nlab);stroke-width:1px;}#my-svg .node .label{text-align:center;}#my-svg .node.clickable{cursor:pointer;}#my-svg .arrowheadPath{fill:var(--edge);}#my-svg .edgePath .path{stroke:var(--edge);stroke-width:2.0px;}#my-svg .flowchart-link{stroke:var(--edge);fill:none;}#my-svg .edgeLabel{background-color:var(--surface);text-align:center;}#my-svg .edgeLabel rect{opacity:0.5;background-color:var(--surface);fill:var(--surface);}#my-svg .labelBkg{background-color:var(--surface);}#my-svg .cluster rect{fill:var(--surface);stroke:var(--border);stroke-width:1px;}#my-svg .cluster text{fill:var(--nlab);}#my-svg .cluster span,#my-svg p{color:var(--nlab);}#my-svg div.mermaidTooltip{position:absolute;text-align:center;max-width:200px;padding:2px;font-family:'IBM Plex Mono',monospace;font-size:12px;background:var(--surface);border:1px solid hsl(21.7021276596, 55.9183673469%, 38.0392156863%);border-radius:2px;pointer-events:none;z-index:100;}#my-svg .flowchartTitleText{text-anchor:middle;font-size:18px;fill:var(--nlab);}#my-svg .edgeLabel rect{opacity:1;stroke:var(--surface);stroke-width:6px;stroke-linejoin:round;}#my-svg :root{--mermaid-font-family:"trebuchet ms",verdana,arial,sans-serif;}</style><g><marker id="my-svg_flowchart-pointEnd" class="marker flowchart" viewBox="0 0 10 10" refX="6" refY="5" markerUnits="userSpaceOnUse" markerWidth="12" markerHeight="12" orient="auto"><path d="M 0 0 L 10 5 L 0 10 z" class="arrowMarkerPath" style="stroke-width: 1; stroke-dasharray: 1, 0;"/></marker><marker id="my-svg_flowchart-pointStart" class="marker flowchart" viewBox="0 0 10 10" refX="4.5" refY="5" markerUnits="userSpaceOnUse" markerWidth="12" markerHeight="12" orient="auto"><path d="M 0 5 L 10 10 L 10 0 z" class="arrowMarkerPath" style="stroke-width: 1; stroke-dasharray: 1, 0;"/></marker><marker id="my-svg_flowchart-circleEnd" class="marker flowchart" viewBox="0 0 10 10" refX="11" refY="5" markerUnits="userSpaceOnUse" markerWidth="11" markerHeight="11" orient="auto"><circle cx="5" cy="5" r="5" class="arrowMarkerPath" style="stroke-width: 1; stroke-dasharray: 1, 0;"/></marker><marker id="my-svg_flowchart-circleStart" class="marker flowchart" viewBox="0 0 10 10" refX="-1" refY="5" markerUnits="userSpaceOnUse" markerWidth="11" markerHeight="11" orient="auto"><circle cx="5" cy="5" r="5" class="arrowMarkerPath" style="stroke-width: 1; stroke-dasharray: 1, 0;"/></marker><marker id="my-svg_flowchart-crossEnd" class="marker cross flowchart" viewBox="0 0 11 11" refX="12" refY="5.2" markerUnits="userSpaceOnUse" markerWidth="11" markerHeight="11" orient="auto"><path d="M 1,1 l 9,9 M 10,1 l -9,9" class="arrowMarkerPath" style="stroke-width: 2; stroke-dasharray: 1, 0;"/></marker><marker id="my-svg_flowchart-crossStart" class="marker cross flowchart" viewBox="0 0 11 11" refX="-1" refY="5.2" markerUnits="userSpaceOnUse" markerWidth="11" markerHeight="11" orient="auto"><path d="M 1,1 l 9,9 M 10,1 l -9,9" class="arrowMarkerPath" style="stroke-width: 2; stroke-dasharray: 1, 0;"/></marker><g class="root"><g class="clusters"/><g class="edgePaths"><path d="M95.715,30.5L95.715,34.667C95.715,38.833,95.715,47.167,95.715,54.617C95.715,62.067,95.715,68.633,95.715,71.917L95.715,75.2" id="L-A-B-0" class="edge-thickness-normal edge-pattern-solid flowchart-link LS-A LE-B" style="fill:none;" marker-end="url(#my-svg_flowchart-pointEnd)"/><path d="M95.715,125L95.715,129.167C95.715,133.333,95.715,141.667,95.715,149.117C95.715,156.567,95.715,163.133,95.715,166.417L95.715,169.7" id="L-B-C-0" class="edge-thickness-normal edge-pattern-solid flowchart-link LS-B LE-C" style="fill:none;" marker-end="url(#my-svg_flowchart-pointEnd)"/><path d="M95.715,219.5L95.715,223.667C95.715,227.833,95.715,236.167,95.715,243.617C95.715,251.067,95.715,257.633,95.715,260.917L95.715,264.2" id="L-C-D-0" class="edge-thickness-normal edge-pattern-solid flowchart-link LS-C LE-D" style="fill:none;" marker-end="url(#my-svg_flowchart-pointEnd)"/><path d="M95.715,314L95.715,318.167C95.715,322.333,95.715,330.667,95.715,338.117C95.715,345.567,95.715,352.133,95.715,355.417L95.715,358.7" id="L-D-E-0" class="edge-thickness-normal edge-pattern-solid flowchart-link LS-D LE-E" style="fill:none;" marker-end="url(#my-svg_flowchart-pointEnd)"/><path d="M337.145,30.5L337.145,34.667C337.145,38.833,337.145,47.167,337.145,54.617C337.145,62.067,337.145,68.633,337.145,71.917L337.145,75.2" id="L-A2-B2-0" class="edge-thickness-normal edge-pattern-solid flowchart-link LS-A2 LE-B2" style="fill:none;" marker-end="url(#my-svg_flowchart-pointEnd)"/><path d="M337.145,125L337.145,129.167C337.145,133.333,337.145,141.667,337.145,149.117C337.145,156.567,337.145,163.133,337.145,166.417L337.145,169.7" id="L-B2-C2-0" class="edge-thickness-normal edge-pattern-solid flowchart-link LS-B2 LE-C2" style="fill:none;" marker-end="url(#my-svg_flowchart-pointEnd)"/><path d="M337.145,219.5L337.145,223.667C337.145,227.833,337.145,236.167,337.145,243.617C337.145,251.067,337.145,257.633,337.145,260.917L337.145,264.2" id="L-C2-D2-0" class="edge-thickness-normal edge-pattern-dotted flowchart-link LS-C2 LE-D2" style="fill:none;stroke-width:2px;stroke-dasharray:3;" marker-end="url(#my-svg_flowchart-pointEnd)"/><path d="M337.145,314L337.145,318.167C337.145,322.333,337.145,330.667,337.145,338.117C337.145,345.567,337.145,352.133,337.145,355.417L337.145,358.7" id="L-D2-E2-0" class="edge-thickness-normal edge-pattern-dotted flowchart-link LS-D2 LE-E2" style="fill:none;stroke-width:2px;stroke-dasharray:3;" marker-end="url(#my-svg_flowchart-pointEnd)"/></g><g class="edgeLabels"><g class="edgeLabel"><g class="label" transform="translate(0, 0)"><rect rx="0" ry="0" width="0" height="0"/><text style=""><tspan xml:space="preserve" dy="1em" x="0" class="row"/></text></g></g><g class="edgeLabel"><g class="label" transform="translate(0, 0)"><rect rx="0" ry="0" width="0" height="0"/><text style=""><tspan xml:space="preserve" dy="1em" x="0" class="row"/></text></g></g><g class="edgeLabel"><g class="label" transform="translate(0, 0)"><rect rx="0" ry="0" width="0" height="0"/><text style=""><tspan xml:space="preserve" dy="1em" x="0" class="row"/></text></g></g><g class="edgeLabel"><g class="label" transform="translate(0, 0)"><rect rx="0" ry="0" width="0" height="0"/><text style=""><tspan xml:space="preserve" dy="1em" x="0" class="row"/></text></g></g><g class="edgeLabel"><g class="label" transform="translate(0, 0)"><rect rx="0" ry="0" width="0" height="0"/><text style=""><tspan xml:space="preserve" dy="1em" x="0" class="row"/></text></g></g><g class="edgeLabel"><g class="label" transform="translate(0, 0)"><rect rx="0" ry="0" width="0" height="0"/><text style=""><tspan xml:space="preserve" dy="1em" x="0" class="row"/></text></g></g><g class="edgeLabel"><g class="label" transform="translate(0, 0)"><rect rx="0" ry="0" width="0" height="0"/><text style=""><tspan xml:space="preserve" dy="1em" x="0" class="row"/></text></g></g><g class="edgeLabel"><g class="label" transform="translate(0, 0)"><rect rx="0" ry="0" width="0" height="0"/><text style=""><tspan xml:space="preserve" dy="1em" x="0" class="row"/></text></g></g></g><g class="nodes"><g class="node default default flowchart-label" id="flowchart-A-0" data-node="true" data-id="A" transform="translate(95.71484375, 15.25)"><rect class="basic label-container" style="" rx="0" ry="0" x="-95.71484375" y="-15.25" width="191.4296875" height="30.5"/><g class="label" style="" transform="translate(0, -7.75)"><rect/><text style=""><tspan xml:space="preserve" dy="1em" x="0" class="row">Burn rate alert fires</tspan></text></g></g><g class="node default default flowchart-label" id="flowchart-B-1" data-node="true" data-id="B" transform="translate(95.71484375, 102.75)"><rect class="basic label-container" style="" rx="0" ry="0" x="-57.91015625" y="-22.25" width="115.8203125" height="44.5"/><g class="label" style="" transform="translate(0, -14.75)"><rect/><text style=""><tspan xml:space="preserve" dy="1em" x="0" class="row">Metric spike</tspan><tspan xml:space="preserve" dy="1em" x="0" class="row">(error rate)</tspan></text></g></g><g class="node default default flowchart-label" id="flowchart-C-3" data-node="true" data-id="C" transform="translate(95.71484375, 197.25)"><rect class="basic label-container" style="" rx="0" ry="0" x="-74.7109375" y="-22.25" width="149.421875" height="44.5"/><g class="label" style="" transform="translate(0, -14.75)"><rect/><text style=""><tspan xml:space="preserve" dy="1em" x="0" class="row">Correlated trace</tspan><tspan xml:space="preserve" dy="1em" x="0" class="row">(via trace_id)</tspan></text></g></g><g class="node default default flowchart-label" id="flowchart-D-5" data-node="true" data-id="D" transform="translate(95.71484375, 291.75)"><rect class="basic label-container" style="" rx="0" ry="0" x="-70.51171875" y="-22.25" width="141.0234375" height="44.5"/><g class="label" style="" transform="translate(0, -14.75)"><rect/><text style=""><tspan xml:space="preserve" dy="1em" x="0" class="row">Exact log lines</tspan><tspan xml:space="preserve" dy="1em" x="0" class="row">from that span</tspan></text></g></g><g class="node default default flowchart-label" id="flowchart-E-7" data-node="true" data-id="E" transform="translate(95.71484375, 386.25)"><rect class="basic label-container" style="" rx="0" ry="0" x="-49.5078125" y="-22.25" width="99.015625" height="44.5"/><g class="label" style="" transform="translate(0, -14.75)"><rect/><text style=""><tspan xml:space="preserve" dy="1em" x="0" class="row">Root cause</tspan><tspan xml:space="preserve" dy="1em" x="0" class="row">identified</tspan></text></g></g><g class="node default default flowchart-label" id="flowchart-A2-8" data-node="true" data-id="A2" transform="translate(337.14453125, 15.25)"><rect class="basic label-container" style="" rx="0" ry="0" x="-95.71484375" y="-15.25" width="191.4296875" height="30.5"/><g class="label" style="" transform="translate(0, -7.75)"><rect/><text style=""><tspan xml:space="preserve" dy="1em" x="0" class="row">Burn rate alert fires</tspan></text></g></g><g class="node default default flowchart-label" id="flowchart-B2-9" data-node="true" data-id="B2" transform="translate(337.14453125, 102.75)"><rect class="basic label-container" style="" rx="0" ry="0" x="-57.91015625" y="-22.25" width="115.8203125" height="44.5"/><g class="label" style="" transform="translate(0, -14.75)"><rect/><text style=""><tspan xml:space="preserve" dy="1em" x="0" class="row">Metric spike</tspan><tspan xml:space="preserve" dy="1em" x="0" class="row">(error rate)</tspan></text></g></g><g class="node default default flowchart-label" id="flowchart-C2-11" data-node="true" data-id="C2" transform="translate(337.14453125, 197.25)"><rect class="basic label-container" style="" rx="0" ry="0" x="-83.11328125" y="-22.25" width="166.2265625" height="44.5"/><g class="label" style="" transform="translate(0, -14.75)"><rect/><text style=""><tspan xml:space="preserve" dy="1em" x="0" class="row">Manual time search</tspan><tspan xml:space="preserve" dy="1em" x="0" class="row">across services</tspan></text></g></g><g class="node default default flowchart-label" id="flowchart-D2-13" data-node="true" data-id="D2" transform="translate(337.14453125, 291.75)"><rect class="basic label-container" style="" rx="0" ry="0" x="-95.71484375" y="-22.25" width="191.4296875" height="44.5"/><g class="label" style="" transform="translate(0, -14.75)"><rect/><text style=""><tspan xml:space="preserve" dy="1em" x="0" class="row">Maybe the right logs?</tspan><tspan xml:space="preserve" dy="1em" x="0" class="row">(timestamp guess)</tspan></text></g></g><g class="node default default flowchart-label" id="flowchart-E2-15" data-node="true" data-id="E2" transform="translate(337.14453125, 386.25)"><rect class="basic label-container" style="" rx="0" ry="0" x="-87.31640625" y="-22.25" width="174.6328125" height="44.5"/><g class="label" style="" transform="translate(0, -14.75)"><rect/><text style=""><tspan xml:space="preserve" dy="1em" x="0" class="row">Root cause</tspan><tspan xml:space="preserve" dy="1em" x="0" class="row">possibly identified</tspan></text></g></g></g></g></g></svg>