<svg id="my-svg" xmlns="http://www.w3.org/2000/svg" xmlns:xlink="http://www.w3.org/1999/xlink" style="max-width: 1372.59px; background-color: transparent;" viewBox="-8 -8 1372.5859375 207.5" role="img" aria-roledescription="flowchart-v2"><style>#my-svg{font-family:'IBM Plex Mono',monospace;font-size:14px;fill:var(--nlab);}#my-svg .error-icon{fill:var(--surface);}#my-svg .error-text{fill:var(--nlab);stroke:var(--nlab);}#my-svg .edge-thickness-normal{stroke-width:2px;}#my-svg .edge-thickness-thick{stroke-width:3.5px;}#my-svg .edge-pattern-solid{stroke-dasharray:0;}#my-svg .edge-pattern-dashed{stroke-dasharray:3;}#my-svg .edge-pattern-dotted{stroke-dasharray:2;}#my-svg .marker{fill:var(--edge);stroke:var(--edge);}#my-svg .marker.cross{stroke:var(--edge);}#my-svg svg{font-family:'IBM Plex Mono',monospace;font-size:14px;}#my-svg .label{font-family:'IBM Plex Mono',monospace;color:var(--nlab);}#my-svg .cluster-label text{fill:var(--nlab);}#my-svg .cluster-label span,#my-svg p{color:var(--nlab);}#my-svg .label text,#my-svg span,#my-svg p{fill:var(--nlab);color:var(--nlab);}#my-svg .node rect,#my-svg .node circle,#my-svg .node ellipse,#my-svg .node polygon,#my-svg .node path{fill:var(--node-fill);stroke:var(--node-stroke);stroke-width:1px;}#my-svg .flowchart-label text{text-anchor:middle;}#my-svg .node .katex path{fill:var(--nlab);stroke:var(--nlab);stroke-width:1px;}#my-svg .node .label{text-align:center;}#my-svg .node.clickable{cursor:pointer;}#my-svg .arrowheadPath{fill:var(--edge);}#my-svg .edgePath .path{stroke:var(--edge);stroke-width:2.0px;}#my-svg .flowchart-link{stroke:var(--edge);fill:none;}#my-svg .edgeLabel{background-color:var(--surface);text-align:center;}#my-svg .edgeLabel rect{opacity:0.5;background-color:var(--surface);fill:var(--surface);}#my-svg .labelBkg{background-color:var(--surface);}#my-svg .cluster rect{fill:var(--surface);stroke:var(--border);stroke-width:1px;}#my-svg .cluster text{fill:var(--nlab);}#my-svg .cluster span,#my-svg p{color:var(--nlab);}#my-svg div.mermaidTooltip{position:absolute;text-align:center;max-width:200px;padding:2px;font-family:'IBM Plex Mono',monospace;font-size:12px;background:var(--surface);border:1px solid hsl(21.7021276596, 55.9183673469%, 38.0392156863%);border-radius:2px;pointer-events:none;z-index:100;}#my-svg .flowchartTitleText{text-anchor:middle;font-size:18px;fill:var(--nlab);}#my-svg :root{--mermaid-font-family:"trebuchet ms",verdana,arial,sans-serif;}</style><g><marker id="my-svg_flowchart-pointEnd" class="marker flowchart" viewBox="0 0 10 10" refX="6" refY="5" markerUnits="userSpaceOnUse" markerWidth="12" markerHeight="12" orient="auto"><path d="M 0 0 L 10 5 L 0 10 z" class="arrowMarkerPath" style="stroke-width: 1; stroke-dasharray: 1, 0;"/></marker><marker id="my-svg_flowchart-pointStart" class="marker flowchart" viewBox="0 0 10 10" refX="4.5" refY="5" markerUnits="userSpaceOnUse" markerWidth="12" markerHeight="12" orient="auto"><path d="M 0 5 L 10 10 L 10 0 z" class="arrowMarkerPath" style="stroke-width: 1; stroke-dasharray: 1, 0;"/></marker><marker id="my-svg_flowchart-circleEnd" class="marker flowchart" viewBox="0 0 10 10" refX="11" refY="5" markerUnits="userSpaceOnUse" markerWidth="11" markerHeight="11" orient="auto"><circle cx="5" cy="5" r="5" class="arrowMarkerPath" style="stroke-width: 1; stroke-dasharray: 1, 0;"/></marker><marker id="my-svg_flowchart-circleStart" class="marker flowchart" viewBox="0 0 10 10" refX="-1" refY="5" markerUnits="userSpaceOnUse" markerWidth="11" markerHeight="11" orient="auto"><circle cx="5" cy="5" r="5" class="arrowMarkerPath" style="stroke-width: 1; stroke-dasharray: 1, 0;"/></marker><marker id="my-svg_flowchart-crossEnd" class="marker cross flowchart" viewBox="0 0 11 11" refX="12" refY="5.2" markerUnits="userSpaceOnUse" markerWidth="11" markerHeight="11" orient="auto"><path d="M 1,1 l 9,9 M 10,1 l -9,9" class="arrowMarkerPath" style="stroke-width: 2; stroke-dasharray: 1, 0;"/></marker><marker id="my-svg_flowchart-crossStart" class="marker cross flowchart" viewBox="0 0 11 11" refX="-1" refY="5.2" markerUnits="userSpaceOnUse" markerWidth="11" markerHeight="11" orient="auto"><path d="M 1,1 l 9,9 M 10,1 l -9,9" class="arrowMarkerPath" style="stroke-width: 2; stroke-dasharray: 1, 0;"/></marker><g class="root"><g class="clusters"/><g class="edgePaths"><path d="M582.578,23.184L523.304,28.57C464.031,33.956,345.483,44.728,286.209,53.397C226.936,62.067,226.936,68.633,226.936,71.917L226.936,75.2" id="L-A-B-0" class="edge-thickness-normal edge-pattern-solid flowchart-link LS-A LE-B" style="fill:none;" marker-end="url(#my-svg_flowchart-pointEnd)"/><path d="M669.895,30.5L669.895,34.667C669.895,38.833,669.895,47.167,669.895,54.617C669.895,62.067,669.895,68.633,669.895,71.917L669.895,75.2" id="L-A-C-0" class="edge-thickness-normal edge-pattern-solid flowchart-link LS-A LE-C" style="fill:none;" marker-end="url(#my-svg_flowchart-pointEnd)"/><path d="M757.211,23.538L813.333,28.865C869.456,34.192,981.701,44.846,1037.823,53.456C1093.945,62.067,1093.945,68.633,1093.945,71.917L1093.945,75.2" id="L-A-D-0" class="edge-thickness-normal edge-pattern-solid flowchart-link LS-A LE-D" style="fill:none;" marker-end="url(#my-svg_flowchart-pointEnd)"/><path d="M178.811,111L165.662,115.167C152.513,119.333,126.216,127.667,113.067,135.117C99.918,142.567,99.918,149.133,99.918,152.417L99.918,155.7" id="L-B-B1-0" class="edge-thickness-normal edge-pattern-solid flowchart-link LS-B LE-B1" style="fill:none;" marker-end="url(#my-svg_flowchart-pointEnd)"/><path d="M275.06,111L288.209,115.167C301.358,119.333,327.655,127.667,340.804,135.117C353.953,142.567,353.953,149.133,353.953,152.417L353.953,155.7" id="L-B-B2-0" class="edge-thickness-normal edge-pattern-solid flowchart-link LS-B LE-B2" style="fill:none;" marker-end="url(#my-svg_flowchart-pointEnd)"/><path d="M633.707,111L623.82,115.167C613.932,119.333,594.157,127.667,584.27,135.117C574.383,142.567,574.383,149.133,574.383,152.417L574.383,155.7" id="L-C-C1-0" class="edge-thickness-normal edge-pattern-solid flowchart-link LS-C LE-C1" style="fill:none;" marker-end="url(#my-svg_flowchart-pointEnd)"/><path d="M706.082,111L715.97,115.167C725.857,119.333,745.632,127.667,755.519,135.117C765.406,142.567,765.406,149.133,765.406,152.417L765.406,155.7" id="L-C-C2-0" class="edge-thickness-normal edge-pattern-solid flowchart-link LS-C LE-C2" style="fill:none;" marker-end="url(#my-svg_flowchart-pointEnd)"/><path d="M1045.025,111L1031.659,115.167C1018.293,119.333,991.56,127.667,978.194,135.117C964.828,142.567,964.828,149.133,964.828,152.417L964.828,155.7" id="L-D-D1-0" class="edge-thickness-normal edge-pattern-solid flowchart-link LS-D LE-D1" style="fill:none;" marker-end="url(#my-svg_flowchart-pointEnd)"/><path d="M1142.865,111L1156.232,115.167C1169.598,119.333,1196.33,127.667,1209.696,135.117C1223.063,142.567,1223.063,149.133,1223.063,152.417L1223.063,155.7" id="L-D-D2-0" class="edge-thickness-normal edge-pattern-solid flowchart-link LS-D LE-D2" style="fill:none;" marker-end="url(#my-svg_flowchart-pointEnd)"/></g><g class="edgeLabels"><g class="edgeLabel"><g class="label" transform="translate(0, 0)"><rect rx="0" ry="0" width="0" height="0"/><text style=""><tspan xml:space="preserve" dy="1em" x="0" class="row"/></text></g></g><g class="edgeLabel"><g class="label" transform="translate(0, 0)"><rect rx="0" ry="0" width="0" height="0"/><text style=""><tspan xml:space="preserve" dy="1em" x="0" class="row"/></text></g></g><g class="edgeLabel"><g class="label" transform="translate(0, 0)"><rect rx="0" ry="0" width="0" height="0"/><text style=""><tspan xml:space="preserve" dy="1em" x="0" class="row"/></text></g></g><g class="edgeLabel"><g class="label" transform="translate(0, 0)"><rect rx="0" ry="0" width="0" height="0"/><text style=""><tspan xml:space="preserve" dy="1em" x="0" class="row"/></text></g></g><g class="edgeLabel"><g class="label" transform="translate(0, 0)"><rect rx="0" ry="0" width="0" height="0"/><text style=""><tspan xml:space="preserve" dy="1em" x="0" class="row"/></text></g></g><g class="edgeLabel"><g class="label" transform="translate(0, 0)"><rect rx="0" ry="0" width="0" height="0"/><text style=""><tspan xml:space="preserve" dy="1em" x="0" class="row"/></text></g></g><g class="edgeLabel"><g class="label" transform="translate(0, 0)"><rect rx="0" ry="0" width="0" height="0"/><text style=""><tspan xml:space="preserve" dy="1em" x="0" class="row"/></text></g></g><g class="edgeLabel"><g class="label" transform="translate(0, 0)"><rect rx="0" ry="0" width="0" height="0"/><text style=""><tspan xml:space="preserve" dy="1em" x="0" class="row"/></text></g></g><g class="edgeLabel"><g class="label" transform="translate(0, 0)"><rect rx="0" ry="0" width="0" height="0"/><text style=""><tspan xml:space="preserve" dy="1em" x="0" class="row"/></text></g></g></g><g class="nodes"><g class="node default default flowchart-label" id="flowchart-A-0" data-node="true" data-id="A" transform="translate(669.89453125, 15.25)"><rect class="basic label-container" style="" rx="0" ry="0" x="-87.31640625" y="-15.25" width="174.6328125" height="30.5"/><g class="label" style="" transform="translate(0, -7.75)"><rect/><text style=""><tspan xml:space="preserve" dy="1em" x="0" class="row">Error Budget Policy</tspan></text></g></g><g class="node default default flowchart-label" id="flowchart-B-1" data-node="true" data-id="B" transform="translate(226.935546875, 95.75)"><rect class="basic label-container" style="" rx="0" ry="0" x="-78.9140625" y="-15.25" width="157.828125" height="30.5"/><g class="label" style="" transform="translate(0, -7.75)"><rect/><text style=""><tspan xml:space="preserve" dy="1em" x="0" class="row">Consumption rules</tspan></text></g></g><g class="node default default flowchart-label" id="flowchart-C-3" data-node="true" data-id="C" transform="translate(669.89453125, 95.75)"><rect class="basic label-container" style="" rx="0" ry="0" x="-57.91015625" y="-15.25" width="115.8203125" height="30.5"/><g class="label" style="" transform="translate(0, -7.75)"><rect/><text style=""><tspan xml:space="preserve" dy="1em" x="0" class="row">Reset policy</tspan></text></g></g><g class="node default default flowchart-label" id="flowchart-D-5" data-node="true" data-id="D" transform="translate(1093.9453125, 95.75)"><rect class="basic label-container" style="" rx="0" ry="0" x="-74.7109375" y="-15.25" width="149.421875" height="30.5"/><g class="label" style="" transform="translate(0, -7.75)"><rect/><text style=""><tspan xml:space="preserve" dy="1em" x="0" class="row">Response actions</tspan></text></g></g><g class="node default default flowchart-label" id="flowchart-B1-7" data-node="true" data-id="B1" transform="translate(99.91796875, 176.25)"><rect class="basic label-container" style="" rx="0" ry="0" x="-99.91796875" y="-15.25" width="199.8359375" height="30.5"/><g class="label" style="" transform="translate(0, -7.75)"><rect/><text style=""><tspan xml:space="preserve" dy="1em" x="0" class="row">What counts as a burn?</tspan></text></g></g><g class="node default default flowchart-label" id="flowchart-B2-9" data-node="true" data-id="B2" transform="translate(353.953125, 176.25)"><rect class="basic label-container" style="" rx="0" ry="0" x="-104.1171875" y="-15.25" width="208.234375" height="30.5"/><g class="label" style="" transform="translate(0, -7.75)"><rect/><text style=""><tspan xml:space="preserve" dy="1em" x="0" class="row">How is impact measured?</tspan></text></g></g><g class="node default default flowchart-label" id="flowchart-C1-11" data-node="true" data-id="C1" transform="translate(574.3828125, 176.25)"><rect class="basic label-container" style="" rx="0" ry="0" x="-66.3125" y="-15.25" width="132.625" height="30.5"/><g class="label" style="" transform="translate(0, -7.75)"><rect/><text style=""><tspan xml:space="preserve" dy="1em" x="0" class="row">Reset interval</tspan></text></g></g><g class="node default default flowchart-label" id="flowchart-C2-13" data-node="true" data-id="C2" transform="translate(765.40625, 176.25)"><rect class="basic label-container" style="" rx="0" ry="0" x="-74.7109375" y="-15.25" width="149.421875" height="30.5"/><g class="label" style="" transform="translate(0, -7.75)"><rect/><text style=""><tspan xml:space="preserve" dy="1em" x="0" class="row">Overrun handling</tspan></text></g></g><g class="node default default flowchart-label" id="flowchart-D1-15" data-node="true" data-id="D1" transform="translate(964.828125, 176.25)"><rect class="basic label-container" style="" rx="0" ry="0" x="-74.7109375" y="-15.25" width="149.421875" height="30.5"/><g class="label" style="" transform="translate(0, -7.75)"><rect/><text style=""><tspan xml:space="preserve" dy="1em" x="0" class="row">Alert thresholds</tspan></text></g></g><g class="node default default flowchart-label" id="flowchart-D2-17" data-node="true" data-id="D2" transform="translate(1223.0625, 176.25)"><rect class="basic label-container" style="" rx="0" ry="0" x="-133.5234375" y="-15.25" width="267.046875" height="30.5"/><g class="label" style="" transform="translate(0, -7.75)"><rect/><text style=""><tspan xml:space="preserve" dy="1em" x="0" class="row">Required actions per threshold</tspan></text></g></g></g></g></g></svg>