<svg xmlns="http://www.w3.org/2000/svg" viewBox="0 0 1024 1024"><path d="M0 0 C2 2 2 2 2.4 5.4 C2.2 11.2 -0.2 16.3 -2.4 21.6 C-5.9 30.5 -8.5 38.5 -9 48 C-4.7 44 -1.5 39.6 1.8 34.8 C13.6 17.7 13.6 17.7 19 15 C21 15 23 15 25 15 C28 21.9 26.1 27 24 34 C23.5 35.7 23 37.5 22.5 39.2 C21 44.2 19.5 49.1 18 54 C23.3 52.1 26.1 50.3 29.7 45.9 C34.1 40.4 34.1 40.4 38 40 C41.1 43.9 41.5 47.1 41.4 51.9 C39.7 66.1 35.4 81.8 24.4 91.4 C17.9 96.1 9.7 97.3 2 99 C2 101 2 101 3.5 102.5 C10.2 107.9 17.4 112.6 24.7 117.3 C25.5 117.8 26.3 118.3 27.2 118.9 C27.6 119.1 27.6 119.1 29.4 120.3 C29.8 120.5 29.8 120.5 32 122 C32.3 122.2 32.3 122.2 33.9 123.2 C39.6 127.1 42.4 131.3 45.5 137.4 C46 138.4 46.5 139.3 47 140.3 C48.7 143.5 50.4 146.8 52 150 C52.6 151.2 53.2 152.4 53.8 153.6 C58.2 162.1 62.5 170.7 66.7 179.3 C68.4 182.8 70.2 186.2 71.9 189.6 C81.8 209.5 81.8 209.5 85.5 217.1 C89.1 224.3 92.8 231.4 96.9 238.4 C97.9 240.2 98.9 241.9 100 243.7 C100.5 244.6 101 245.5 101.5 246.4 C103.9 250.5 106.2 254.7 108.5 258.8 C108.9 259.5 109.3 260.2 109.7 261 C110.8 263 111.9 265 113 267 C113.2 267.4 113.2 267.4 114.2 269.2 C114.5 269.9 114.9 270.6 115.3 271.3 C115.6 271.9 115.9 272.5 116.3 273.2 C117.7 276.7 117.2 279.6 116 283 C113 289 109.9 294.4 105 299 C106.5 303 108.6 304.2 112.4 306.2 C123.4 312.4 133 320.5 142.5 328.7 C143.8 329.9 145.2 331 146.5 332.1 C151.9 336.8 156.9 341.9 161.8 347.1 C162.4 347.7 163 348.4 163.6 349.1 C170.9 356.9 176.5 365.2 181.9 374.4 C182.5 375.5 183.1 376.6 183.7 377.7 C188.3 385.6 192.4 393.6 196.1 402 C197 404.1 198 406.2 199 408.3 C207.2 426.1 213.3 444.3 218.4 463.2 C218.6 464 218.8 464.8 219 465.6 C226.8 494.5 226.8 494.5 223 503.4 C221.5 508.7 221.9 513.9 222 519.4 C222.1 520.7 222.1 522 222.1 523.2 C222.2 526.7 222.3 530.1 222.4 533.5 C222.5 537.2 222.6 540.8 222.7 544.4 C222.8 551.2 223 558.1 223.2 565 C223.5 575 223.7 585 223.9 595 C224 595.3 224 595.3 224 597.2 C224 598.7 224.1 600.2 224.1 601.7 C224.2 605.9 224.3 610.2 224.4 614.5 C225.6 658.6 225.6 658.6 224.2 672.2 C224.2 673.2 224.1 674.1 224 675.1 C223.2 683.4 221.8 691.5 220.5 699.7 C219.5 705.9 218.8 712 218.5 718.2 C218.4 718.9 218.4 719.6 218.4 720.3 C218.2 723.7 218 727 217.9 730.4 C217.6 737.5 216.7 742.5 213.2 748.7 C211.3 752.3 210.9 755.8 210.5 759.7 C207.7 779.2 199.5 798.6 187 814 C184 816 184 816 181.9 815.8 C181.3 815.5 180.6 815.3 180 815 C176.6 804.9 179.5 791.8 180.9 781.6 C182.4 771.1 183.7 760.6 184 750 C183.6 750 183.6 750 181.8 750.1 C174 750.3 168.4 749.5 162.5 744 C158.6 739.9 152 732.9 152 727 C151 727 150 727 149 727 C148.9 727.7 148.8 728.4 148.7 729.1 C146.5 738.5 141.3 747.8 133 753 C127 756.4 120.8 756.7 114 756 C106.4 753.5 100.5 746.6 95 741 C94.8 741.6 94.5 742.1 94.2 742.7 C92.8 745.4 91.1 747.4 89.1 749.6 C88.4 750.4 87.7 751.2 87 752 C85 754 85 754 82 756 C81 759.1 80.3 762.3 79.6 765.5 C77.9 769.2 77.1 769.7 73.9 771.9 C70.9 774.4 70.1 775.6 69.3 779.5 C68.9 783.8 68.9 788 69 792.2 C69 793.7 69 795.2 69 796.7 C68.9 800.5 69 804.2 69 808 C69 811.7 68.7 815.5 68.5 819.2 C68.5 819.9 68.4 820.7 68.4 821.5 C68.2 823.3 68.1 825.2 68 827 C68.6 827 68.6 827 71.4 826.8 C72.6 826.9 73.8 826.9 75 827 C77 830 77 830 77.4 832.5 C78 835 78 835 79.7 836.6 C87.7 841 94.9 840 103.7 839.2 C114.5 838.3 125.1 839.1 135.8 840.5 C136.7 840.6 137.5 840.7 138.4 840.8 C138.8 840.8 138.8 840.8 140.6 841 C143 841 143 841 145.9 840 C149.4 838.9 151.4 839.1 155 839.8 C162.1 841.1 169.3 841.7 176.5 842.4 C190.3 843.7 203.9 845.6 217.4 849.1 C221 850 221 850 224 849.9 C227.5 850 229.6 851.3 232.7 852.9 C236.6 854.8 240.8 856 244.9 857.4 C251.3 859.6 257.2 861.8 262.9 865.6 C265.1 867.1 267.4 868.1 269.9 869.1 C274.5 871.3 277.7 874.4 281.1 878.1 C281.5 878.6 282 879.1 282.5 879.6 C284.9 882.3 286.6 884.4 287 888 C287.1 888.7 287.2 889.3 287.3 890 C287.8 896 286.1 899.7 282.4 904.4 C259.7 928.7 226.7 935.8 195.3 941.9 C195 942 195 942 193.3 942.3 C191.5 942.7 189.8 943 188 943.3 C185 944 185 944 182.3 945 C178.7 946.1 175.1 946.6 171.4 947 C170.7 947.1 170 947.2 169.2 947.2 C166.9 947.5 164.7 947.8 162.4 948 C159.4 948.3 156.4 948.7 153.4 949 C152.7 949.1 152 949.2 151.2 949.2 C145.8 949.9 140.5 950.7 135.1 951.7 C134.4 951.8 133.7 951.9 133 952 C132.7 951.7 132.3 951.3 132 951 C125.6 950.5 119.7 951.9 113.4 953.2 C112.4 953.5 111.4 953.7 110.4 953.9 C104.7 955.1 100.8 956.6 96 960 C93 961.3 89.9 962.4 86.8 963.5 C85 964.1 83.3 964.7 81.6 965.3 C80.8 965.6 80 965.9 79.2 966.2 C76.7 967.1 74.3 968.2 71.9 969.2 C67.2 971.1 62.5 971.9 57.6 972.7 C50.1 973.9 42.8 975.5 35.4 977 C32.9 977.5 30.3 978.1 27.8 978.6 C24.1 979.4 20.3 980.1 16.6 981 C-35.3 992.1 -105 988.6 -151.4 960.9 C-153.3 959.6 -155.2 958.3 -157 957 C-158 956.4 -159 955.8 -160.1 955.2 C-165.5 951.8 -168.5 949.3 -170.2 943 C-172 931 -171.7 919.6 -168 908 C-169 907.9 -170.1 907.8 -171.1 907.7 C-188.8 905.4 -206.4 901.3 -223 895 C-223 894 -223 893 -223 892 C-222 892 -221 892 -220 892 C-220 891.3 -220 890.6 -220.1 889.9 C-220.2 883.3 -219.7 877.4 -218 871 C-217.8 870.1 -217.6 869.2 -217.4 868.3 C-216.3 864.5 -215.3 861.8 -211.9 859.6 C-209.9 858.9 -208 858.1 -206 857.5 C-201.8 856 -197.9 854.1 -194 852.1 C-184.4 847.3 -174.9 843.3 -164.6 840.2 C-163.7 839.9 -162.9 839.7 -162.1 839.4 C-161.4 839.2 -160.6 839 -159.9 838.8 C-155.4 836.9 -154 833.2 -152 829 C-149.7 829.3 -147.4 829.7 -145 830 C-145 822.7 -145 815.5 -145 808.2 C-145.1 805.8 -145.1 803.3 -145 800.8 C-145 797.3 -145.1 793.7 -145.1 790.2 C-145.1 789.6 -145.1 789.6 -145.1 786.8 C-145.2 780 -146.3 776.4 -151.3 771.6 C-151.8 771.1 -152.4 770.6 -153 770 C-155.7 766.6 -156.9 764.8 -157.4 760.4 C-158.1 756.6 -159 755.8 -162.1 753.6 C-165.6 750.7 -168.2 746.9 -171 743.3 C-173 741 -173 741 -175 740 C-175.1 741.2 -175.1 742.3 -175.2 743.5 C-176 750 -179 754.5 -184.1 758.4 C-190.2 761.7 -196.1 761.9 -202.8 760.4 C-211.9 757.4 -218.2 752.3 -223 744 C-224 741.1 -224.6 738.2 -225.2 735.2 C-225.3 734.9 -225.3 734.9 -225.8 732.9 C-227 727.4 -227 727.4 -227 725 C-227.7 725 -228.3 725 -229 725 C-229.2 725.9 -229.5 726.9 -229.7 727.8 C-232.2 736.4 -235.2 744.1 -243 749 C-248.2 751.7 -253.4 751.4 -259 750 C-261.7 748.6 -263.7 747 -266 745 C-265.8 745.5 -265.8 745.5 -265 748 C-264.8 750 -264.6 752 -264.5 754 C-263.3 767.7 -261.9 780.7 -258.1 793.9 C-253.3 810.7 -253.3 810.7 -256 816 C-262.1 816 -265.4 813.9 -269.7 809.6 C-281.4 796 -288.1 774.4 -290.3 756.9 C-291.2 754.3 -292.6 754.2 -295 753 C-299.7 744 -299.2 731.3 -300.1 721.4 C-300.2 719.6 -300.4 717.8 -300.5 715.9 C-300.9 712.3 -301.2 708.7 -301.5 705.1 C-301.8 701.2 -302.2 697.3 -302.5 693.3 C-303.9 678.2 -304.3 663.2 -304.3 648.1 C-304.3 645.6 -304.3 643.2 -304.3 640.8 C-304.3 635.8 -304.3 630.7 -304.3 625.7 C-304.2 619.3 -304.3 613 -304.3 606.7 C-304.4 540.6 -304.4 540.6 -301.1 509.5 C-301 506.9 -301.4 504.8 -302 502.3 C-305.3 488 -300.7 472.8 -297 459 C-296.8 458.1 -296.5 457.2 -296.3 456.2 C-290.3 434.1 -281.2 414.1 -270.8 393.7 C-269.7 391.3 -268.5 389 -267.4 386.7 C-264.2 380 -260.4 374 -256 368 C-255.4 367 -254.8 366.1 -254.1 365.1 C-245.6 352.7 -234.9 341.8 -224.4 331.2 C-222.9 329.7 -221.5 328.3 -220.1 326.9 C-215.5 322.3 -210.9 318 -205.6 314.2 C-204 313 -204 313 -201.9 310.9 C-199.5 308.5 -197 307 -194.2 305.2 C-193.3 304.6 -192.3 304 -191.3 303.4 C-190.5 302.9 -189.8 302.5 -189 302 C-190.7 296.5 -192.7 291.6 -195.2 286.5 C-197.9 280.7 -199.2 277.1 -197 271 C-192.2 260.1 -185.4 250.1 -179.1 240.1 C-170.8 226.6 -163.3 212.8 -156.3 198.6 C-147.1 180 -137.5 161.6 -127.3 143.5 C-126.4 141.7 -125.5 140 -124.6 138.2 C-121.3 131.7 -117.9 127.4 -112 123 C-111.3 122.5 -110.6 122 -109.9 121.4 C-107.8 119.9 -105.7 118.3 -103.5 116.8 C-101.9 115.7 -100.3 114.6 -98.8 113.4 C-98 112.9 -97.2 112.3 -96.4 111.7 C-92.6 109 -88.9 106.3 -85.2 103.5 C-84.5 103 -83.9 102.5 -83.2 102 C-73.5 94.8 -73.5 94.8 -72.2 90 C-72 85.6 -72 81.2 -72.1 76.8 C-72.3 62.4 -71.9 51.2 -64.4 38.5 C-63.1 36.2 -62.3 34.1 -61.6 31.5 C-58.5 21.2 -48.1 8.7 -39 3 C-36.2 3.3 -36.2 3.3 -34 4 C-33.2 6.3 -32.8 7.5 -33.7 9.8 C-33.8 10.2 -33.8 10.2 -34.8 11.8 C-41.2 25.3 -42.6 43.3 -40 58 C-38.3 56.3 -38.5 54.1 -38.1 51.8 C-35 32.8 -25.5 15.6 -10.6 3.1 C-7.1 0.6 -4.4 -0.5 0 0 Z" fill="#1C1915" transform="translate(551,1)"/><path d="M0 0 C3.8 0.3 5.5 2.3 8 5 C9 5.7 10 6.3 11 7 C9.6 11.1 7.6 13.9 4.9 17.2 C4 19 4 19 4 21.4 C5.3 24.9 7.5 27.2 10.1 29.8 C11.1 30.9 12.2 32 13.2 33 C13.7 33.5 14.2 34.1 14.7 34.6 C16.3 36.3 17.8 38.1 19.4 39.9 C22.7 43.7 26.2 47.3 29.8 50.9 C30.3 51.4 30.9 52 31.5 52.6 C37.7 58.8 37.7 58.8 41.5 59.3 C44 59 44 59 45.6 57.4 C46 57 46.5 56.5 47 56 C50.5 56.1 53.2 58.2 56 60.1 C58 61 58 61 61.1 61.2 C62 61.5 63 61.7 64 62 C65.5 64.7 65.5 64.7 66.6 68.2 C72.7 84.7 87.6 94.1 102.7 101.5 C111.2 105.3 120 107.5 129 104.5 C132.7 103.6 133.7 103.8 137 105.8 C139.1 107.4 141.2 109 143.2 110.7 C146.4 113.3 149.1 114.7 153 116 C153 117 153 118 153 119 C153.8 118.9 154.6 118.8 155.5 118.7 C160.2 119.1 163.1 120.9 167.1 123.3 C167.8 123.7 168.5 124.1 169.2 124.5 C170.5 125.3 171.8 126.1 173.2 126.9 C174.8 127.9 176.4 128.8 178 129.7 C178.7 130.1 179.3 130.5 180 131 C180 131.7 180 132.3 180 133 C181.6 132.7 183.3 132.3 185 132 C184 135 184 135 181.7 136.4 C181.2 136.7 181.2 136.7 178.8 137.9 C175.4 139.6 172.3 141.3 169.4 143.9 C167 146 167 146 165 146 C164.7 147 164.3 148 164 149 C159.4 148.3 155.4 146.5 151.2 144.7 C124.4 133.4 96.1 133.4 69 144.3 C57.5 149.1 46.4 155.9 37.7 164.9 C36 166 36 166 33.7 165.7 C30.7 164.9 28.2 163.7 25.4 162.2 C24.3 161.6 23.3 161.1 22.2 160.5 C21.1 159.9 20 159.3 18.8 158.7 C6.6 152.1 6.6 152.1 0.6 149.9 C-3.7 148.2 -6.8 146.2 -10.4 143.3 C-15.7 139.1 -15.7 139.1 -19 138 C-12.9 144.8 -6 149.7 1.6 154.7 C16.3 164.4 16.3 164.4 20 168 C20 169 20 170 20 171 C3.9 176.4 -15.4 168.6 -29.8 161.7 C-40.3 156.2 -49.4 148.8 -58 140.8 C-60 139 -60 139 -62 138 C-58.5 142.1 -54.9 146.2 -51 150 C-38.1 162.7 -38.1 162.7 -37.9 167.7 C-37.9 168.5 -38 169.2 -38 170 C-50.4 172.5 -61.3 165.2 -71.3 158.5 C-81.7 151.5 -90.1 143.6 -97 133 C-97.7 132.7 -98.3 132.3 -99 132 C-97.5 138.5 -95.9 144 -92 149.4 C-91 151 -91 151 -91 153 C-104.9 148 -113.7 135.7 -120 123 C-120.7 122.3 -121.3 121.7 -122 121 C-122 119.7 -122 118.4 -122 117 C-122.7 116.7 -123.3 116.3 -124 116 C-124 114.7 -124 113.4 -124 112 C-124.7 112 -125.3 112 -126 112 C-127.3 108.1 -128.6 104.2 -129.9 100.3 C-130.3 99.2 -130.7 98.1 -131.1 97 C-131.2 96.4 -131.2 96.4 -132.2 93.7 C-132.5 92.8 -132.8 91.8 -133.2 90.8 C-135.5 83.2 -136.7 74.2 -133.5 66.8 C-133.3 66.3 -133.3 66.3 -132 64 C-131 64 -130 64 -129 64 C-129.3 63.3 -129.6 62.7 -129.9 62 C-130 58 -128.5 56.4 -126.1 53.3 C-119.4 46.1 -111.9 41.2 -103.4 36.3 C-102.3 35.7 -101.2 35 -100.1 34.3 C-97.1 32.5 -94 30.8 -91 29 C-90.3 28.6 -89.5 28.1 -88.8 27.7 C-85.3 25.6 -83.1 24.5 -79 25 C-79 24.3 -79 23.7 -79 23 C-77.1 22.2 -75.2 21.4 -73.3 20.6 C-72.3 20.2 -71.2 19.7 -70.1 19.3 C-69.1 18.9 -68.1 18.4 -67 18 C-66.1 17.6 -65.2 17.2 -64.3 16.8 C-62 16 -62 16 -59 16 C-58.9 16.3 -58.9 16.3 -58.7 18 C-54.2 39.2 -41 58.8 -27.7 75.7 C-26.2 77.7 -25.1 79.7 -24 82 C-27.5 81.5 -30.7 81.1 -34 80 C-34 80.7 -34 81.3 -34 82 C-33.3 82.2 -32.5 82.5 -31.7 82.7 C-28.5 84.2 -27.3 85.8 -25.2 88.6 C-21.1 93.8 -16.6 98.6 -11.9 103.2 C-11.3 103.9 -10.6 104.6 -9.9 105.3 C-5.4 109.7 -0.8 113.9 4 118 C5.1 119 6.2 119.9 7.3 120.9 C38.8 148.4 38.8 148.4 52 150 C47.1 145.9 42.2 142 36.8 138.7 C18.3 127.3 1.4 111.7 -13.7 96.2 C-16.2 93.8 -18.6 91.4 -21.4 89.3 C-21.8 88.9 -21.8 88.9 -24 87 C-24 86.3 -24 85.7 -24 85 C-23 84.7 -22 84.3 -21 84 C-22.3 81.2 -23.8 78.8 -25.6 76.4 C-26.2 75.7 -26.7 75 -27.2 74.4 C-28.3 73 -29.3 71.6 -30.4 70.2 C-33 66.8 -35.6 63.3 -37.9 59.7 C-38.4 59.1 -38.8 58.5 -39.2 57.9 C-40.2 55.4 -39.9 54.4 -39 52 C-38 50.2 -38 50.2 -36.7 48.3 C-33.9 44 -31.7 39.5 -29.5 34.8 C-29.1 34 -28.7 33.2 -28.3 32.3 C-25.6 26.5 -23.2 20.6 -21.2 14.5 C-19.8 11.7 -18.7 10.5 -16 9 C-13.8 9.3 -13.8 9.3 -12 10 C-11.7 9 -11.3 8 -11 7 C-9 5.7 -9 5.7 -6.6 4.4 C-3.9 3.1 -2.1 2.1 0 0 Z" fill="#F6F3EC" transform="translate(403,416)"/><path d="M0 0 C0.7 0 1.3 0 2 0 C2.2 0.6 2.3 1.3 2.5 2 C11.9 42.3 11.9 42.3 24.1 51.7 C28.6 53.7 31.5 52.5 36 51 C37 49.3 37 49.3 38 47 C39.1 45.1 40.2 43.2 41.3 41.4 C43.5 37.6 45.6 33.9 47.4 29.9 C49.8 25.1 52.7 21 55.9 16.8 C59.1 12.6 62 8.3 65 4 C69.5 5.5 72.9 8 76.6 10.8 C83.6 16.1 90.8 20.9 98.2 25.6 C105 29.9 110 33.3 113.9 40.6 C114.5 41.7 115.1 42.8 115.7 44 C117 47 117 47 116 50 C113.7 48.7 111.4 47.4 109 46 C109 46.7 109 47.3 109 48 C109.5 48.2 110.1 48.5 110.6 48.8 C115.2 51.1 119.3 53.5 122 58 C122 58.7 122 59.3 122 60 C121.2 59.7 120.5 59.4 119.7 59.1 C117.8 58.3 115.9 57.6 114 57 C114.3 57.3 114.3 57.3 116.1 58.6 C116.5 59 116.5 59 118.8 60.8 C119.7 61.5 120.6 62.2 121.5 63 C125.3 66.1 127.4 68.5 129.5 73 C130 74 130.4 75 130.9 76 C131.4 77.1 131.9 78.1 132.4 79.2 C136.9 88.6 141.4 97.8 146.3 107 C149.1 112.4 151.9 117.8 154.6 123.3 C161.6 137.7 169 151.4 177.8 164.9 C185.9 177.5 185.9 177.5 186.2 182.4 C184.4 187.6 181.1 194.5 176 197 C175.7 194 175.3 191.1 175 188 C174.8 189.2 174.5 190.3 174.3 191.5 C174 193.1 173.6 194.6 173.3 196.2 C173.2 197 173 197.7 172.9 198.5 C171.7 203.8 170.2 206.4 166 210 C165.2 210.8 164.5 211.5 163.7 212.3 C151.9 223.5 137.9 231.1 123.7 239 C114.7 244.1 106.2 249.8 97.8 255.7 C95.6 257.3 93.3 258.7 91 260 C90.7 258.6 90.3 257.2 90 255.8 C89.8 255 89.6 254.2 89.4 253.4 C89 251 89 251 89 247 C90.9 245.4 90.9 245.4 93.7 243.9 C103.8 237.8 112.8 230.4 121.5 222.3 C123.2 220.7 125.1 219.1 127 217.6 C130.4 214.8 133.1 211.5 135.8 208.1 C136.1 207.8 136.1 207.8 137.3 206.3 C140.2 202.6 142.1 199.8 142 195 C141.1 191.5 139.8 188.2 138.5 184.8 C138.1 183.9 137.8 182.9 137.4 182 C132.8 170.7 126.4 162.1 118.6 152.8 C114.2 147.5 110 142.1 105.9 136.5 C105.4 135.7 104.8 134.9 104.2 134.1 C103 132.5 101.9 130.9 100.7 129.3 C61.8 76.2 61.8 76.2 36.7 71.4 C24.7 70.9 16.1 76.8 7 84 C6.7 84.3 6.7 84.3 5 85.6 C1.3 88.6 -1.8 92 -4.9 95.6 C-7 98 -9.1 100.3 -11.3 102.6 C-17.2 108.9 -22.6 115.3 -28 122 C-29 123.2 -30 124.5 -31 125.7 C-38.6 134.9 -46 144.3 -53 154 C-53.4 154.6 -53.8 155.1 -54.3 155.7 C-76.5 186.5 -76.5 186.5 -75 198 C-70.5 207.7 -63.5 215.5 -56 223 C-55.1 223.9 -54.2 224.8 -53.2 225.8 C-43.3 235.3 -32 243.3 -20 250 C-20.3 253.6 -20.7 257.3 -21 261 C-46.3 249.4 -71.9 236.5 -93 218 C-93.8 217.3 -94.6 216.6 -95.5 215.8 C-98 213.6 -100.5 211.3 -103 209 C-103.9 208.2 -104.8 207.4 -105.7 206.6 C-106.5 205.9 -107.3 205.1 -108.2 204.3 C-108.9 203.6 -109.7 202.9 -110.5 202.2 C-112 200 -112 200 -111.8 197 C-111.1 194.5 -110.4 192.2 -109.4 189.8 C-108.4 187.2 -108 185.9 -108 183 C-108.8 184.8 -108.8 184.8 -113 194 C-113.7 194 -114.3 194 -115 194 C-115.9 192 -116.7 189.9 -117.6 187.9 C-118 186.7 -118.5 185.6 -119 184.4 C-120.5 179.4 -119.7 176.5 -117.4 171.8 C-116.8 170.7 -116.1 169.6 -115.4 168.5 C-114.7 167.2 -114 166 -113.2 164.7 C-112.9 164.1 -112.5 163.5 -112.1 162.8 C-106.2 152.9 -100.6 142.7 -95.1 132.4 C-91.3 125.4 -87.4 118.4 -83.4 111.4 C-79 103.7 -74.8 95.9 -70.7 88.1 C-70.2 87.1 -69.7 86.2 -69.2 85.2 C-67 80.9 -64.8 76.6 -62.7 72.2 C-62.4 71.4 -62 70.7 -61.7 70 C-61 68.6 -60.4 67.3 -59.8 66 C-57.5 60.9 -54.5 59 -50 56 C-49.8 55.7 -49.8 55.7 -49 54 C-50.6 54.7 -52.3 55.3 -54 56 C-52.7 51.7 -51.2 50.1 -47.4 47.8 C-43.1 45.2 -43.1 45.2 -42 43 C-43.6 43.7 -45.3 44.3 -47 45 C-46.7 39.6 -43.7 36.6 -40 33 C-35.4 28.9 -30.5 25.2 -25.7 21.4 C-24.5 20.5 -23.3 19.6 -22.2 18.7 C-21.6 18.2 -21 17.8 -20.4 17.3 C-6 6 -6 6 0 0 Z" fill="#A78FE0" transform="translate(478,98)"/><path d="M0 0 C1.9 0.3 1.9 0.3 4 1 C4.2 1.5 4.2 1.5 5 4 C5.7 3.8 6.5 3.6 7.2 3.3 C10.7 2.9 11.6 3.6 14.4 5.5 C18.5 8.1 22.7 10.4 27 12.6 C27.3 12.7 27.3 12.7 28.8 13.5 C31.4 14.8 34 16 36.7 17.2 C43.2 20.2 48.6 24.3 54.2 28.8 C57 31 57 31 60 33 C60.3 34 60.7 35 61 36 C62 36.3 63 36.7 64 37 C64 37.7 64 38.3 64 39 C65 39.3 66 39.7 67 40 C67 41 67 42 67 43 C67.7 43 68.3 43 69 43 C73.3 49 74.5 53.1 73.5 60.4 C73.3 61.3 73.2 62.1 73 63 C72.8 63.8 72.7 64.7 72.5 65.5 C72 68 71.3 70.3 70.6 72.8 C69.3 76.9 68.3 81 67.4 85.2 C67 87 67 87 66 89 C65 89 64 89 63 89 C63.2 89.7 63.4 90.4 63.7 91.1 C64.1 94.9 63 96.8 61.2 100.2 C60.6 101.2 60.1 102.3 59.5 103.4 C58 106 58 106 56 108 C55.6 109 55.2 110 54.8 111.1 C50.1 122.3 39.2 132.6 29 139 C29.7 135.8 30.8 133.3 32.4 130.4 C35.6 124.2 37.3 117.8 39 111 C38.5 111.8 37.9 112.5 37.3 113.3 C24.1 131.3 9.7 146.2 -13 151 C-16 151.2 -16 151.2 -18.5 151.1 C-19.4 151.1 -20.2 151.1 -21.1 151.1 C-21.7 151 -22.4 151 -23 151 C-21.8 142 -13.1 136 -6.7 130.2 C-5.3 128.9 -3.9 127.6 -2.4 126.3 C-1.8 125.7 -1.2 125.2 -0.6 124.6 C1 123 1 123 3 120 C2.6 120.4 2.2 120.7 1.8 121.1 C-0.5 123.1 -2.7 125.1 -5 127 C-5.5 127.5 -6.1 127.9 -6.6 128.4 C-23.5 142.7 -44 156.2 -67 155 C-69.7 154.8 -72.3 154.4 -75 154 C-74.7 149.7 -73.2 147.8 -70.1 145 C-69.5 144.6 -69 144.1 -68.4 143.6 C-68.2 143.4 -68.2 143.4 -66.8 142.2 C-65.2 140.8 -63.6 139.4 -62 138 C-61.3 137.4 -60.6 136.8 -59.9 136.2 C-56.8 133.4 -53.7 130.7 -50.5 128 C-49.9 127.5 -49.2 127 -48.6 126.4 C-47.4 125.4 -46.1 124.3 -44.8 123.3 C-41.8 120.7 -39.2 118.3 -37 115 C-47.4 123.4 -47.4 123.4 -52.1 127.9 C-58.6 133.8 -66.4 137.8 -74 142 C-74.7 142.4 -75.5 142.8 -76.3 143.2 C-78.4 144.4 -80.6 145.6 -82.8 146.7 C-83.4 147 -84.1 147.4 -84.7 147.8 C-87.4 149.1 -89.6 150 -92.6 150 C-95.9 148.6 -98.4 146.5 -101 144.1 C-104.5 141 -107.9 138.3 -112 136 C-110.6 131.8 -107.5 130.6 -103.8 128.4 C-84.1 116.5 -66.6 101.9 -50.4 85.4 C-49 84 -49 84 -46.5 82.1 C-42.9 79.1 -40 75.6 -37 72 C-35.9 70.7 -34.7 69.3 -33.6 68 C-32.7 67 -31.9 66 -31 65 C-34.3 66 -37.6 67 -41 68 C-39 64 -36.6 61.1 -33.6 57.8 C-18.5 40.5 -6.9 21.9 0 0 Z" fill="#F6F3EC" transform="translate(681,432)"/><path d="M0 0 C0 0.7 0 1.3 0 2 C1 2 2 2 3 2 C3 3 3 4 3 5 C2 5 1 5 0 5 C0 6 0 7 0 8 C1 7.7 2 7.3 3 7 C3.3 6.3 3.7 5.7 4 5 C5 5.3 6 5.7 7 6 C7 6.7 7 7.3 7 8 C6.3 8 5.7 8 5 8 C6.1 10.4 6.1 10.4 8 13 C11.7 14.3 11.7 14.3 15 15 C15 15.7 15 16.3 15 17 C16.6 17.3 18.3 17.7 20 18 C20 17 20 16 20 15 C21 15 22 15 23 15 C23 16 23 17 23 18 C24 18 25 18 26 18 C26 17 26 16 26 15 C28.4 15.8 28.4 15.8 31 17 C31.3 17.7 31.7 18.4 32 19.1 C32.3 19.7 32.7 20.3 33 21 C35.6 21.8 35.6 21.8 38 22 C38 23 38 24 38 25 C38.8 24.9 39.6 24.8 40.4 24.6 C45 25.1 47.5 27 51.3 29.4 C54.7 31.4 58.2 32.7 61.9 34 C64.1 35.1 65.3 36.2 67 38 C68 38.3 69 38.7 70 39 C70.3 40 70.7 41 71 42 C71.7 42.3 72.3 42.7 73 43 C73 42.3 73 41.7 73 41 C75.9 41.6 78.4 42.6 81 44 C81 45 81 46 81 47 C82.3 47.3 83.6 47.7 85 48 C85 48.7 85 49.3 85 50 C85.7 49.8 86.5 49.6 87.2 49.3 C91.5 48.8 93.5 50.7 96.9 53.1 C99.6 55.5 100.6 57.8 102 61 C103.5 64 105.9 65.8 108.6 67.8 C109.1 68.2 109.5 68.6 110 69 C110 69.7 110 70.3 110 71 C100.3 75 90.6 78.6 80.6 82 C68.4 86 56.3 90.3 44.3 94.8 C35.1 98.2 25.8 101.4 16.4 104.2 C15.4 104.6 14.4 104.9 13.4 105.2 C12.4 105.4 11.5 105.7 10.6 106 C9.8 106.2 9 106.4 8.2 106.6 C6 107 6 107 2 106 C3.3 102 4.6 98.1 6 94 C5.3 94 4.7 94 4 94 C3.8 94.8 3.6 95.7 3.4 96.5 C3.2 97.6 2.9 98.7 2.6 99.8 C2.5 100.4 2.5 100.4 1.9 103.1 C1 106 1 106 -1 109 C-1.7 109 -2.3 109 -3 109 C-2 105 -1 101.1 0 97 C-0.7 97 -1.3 97 -2 97 C-1.9 97.8 -1.9 98.6 -1.8 99.5 C-2 103.6 -2.5 106.8 -5 110 C-11.2 114.2 -18.8 116.3 -25.8 118.8 C-30.6 120.6 -35.3 122.8 -40 125 C-40.9 125.4 -41.7 125.8 -42.6 126.2 C-55.1 132.4 -66.6 139.7 -77 149 C-77.7 149.6 -78.3 150.2 -79 150.8 C-86.3 157.7 -90.8 166.1 -95 175 C-95.3 175.7 -95.7 176.4 -96 177.1 C-98.3 182.1 -100.7 187 -103 192 C-103.7 192 -104.3 192 -105 192 C-105.7 176.9 -103.8 163.6 -100 149 C-99.7 147.9 -99.5 146.8 -99.2 145.7 C-95.3 130.3 -90.3 116.3 -83.1 102.2 C-79.8 95.8 -77.1 89.3 -74.2 82.7 C-70.5 74.1 -66.7 66.4 -61 59 C-60.3 58 -59.5 57 -58.7 56 C-56.2 52.6 -53.6 49.3 -51 46 C-50.5 45.3 -50 44.7 -49.4 44 C-40.2 32.3 -30.8 22.1 -19 13 C-17.2 11.6 -15.5 10.2 -13.8 8.8 C-12.9 8.2 -12.1 7.5 -11.3 6.8 C-9.3 5.3 -7.4 3.6 -5.6 2 C-3 0 -3 0 0 0 Z" fill="#A78FE0" transform="translate(358,313)"/><path d="M0 0 C3.1 0.6 4.9 1.5 7.2 3.6 C7.8 4.1 8.4 4.7 9 5.2 C9.7 5.8 10.3 6.3 10.9 6.9 C15.6 11.1 20.3 15 25.3 18.7 C44.7 33.5 59.7 52.5 71 74 C71.3 74.6 71.6 75.2 71.9 75.8 C87.1 104.3 96.6 135 104.7 166.1 C104.9 167 105.1 167.8 105.4 168.7 C106 171.2 106.6 173.6 107.3 176.1 C107.5 176.8 107.6 177.5 107.8 178.3 C108.8 182.2 109.2 185.1 108 189 C106.7 189.3 105.4 189.7 104 190 C103.7 189.2 103.4 188.4 103.1 187.6 C92.6 161.2 75.4 142.5 50.4 129.3 C47.7 127.8 45 126.4 42.3 124.9 C25.8 116 8.9 108.7 -9.1 103.6 C-11 103 -11 103 -12 102 C-12.1 100.5 -12.1 99 -12.1 97.5 C-12.1 97.1 -12.1 97.1 -12.1 94.8 C-12.1 94.3 -12.1 94.3 -12.1 91.9 C-12.1 91 -12.1 90 -12 89.1 C-12 86.7 -12 84.4 -12 82 C-12.7 82 -13.3 82 -14 82 C-14.1 83.2 -14.1 84.4 -14.2 85.6 C-14.3 87.2 -14.4 88.8 -14.4 90.4 C-14.5 91.2 -14.5 92 -14.6 92.8 C-14.9 98.8 -14.9 98.8 -16 101 C-33 99.3 -49.6 93.7 -65.6 88.1 C-69.8 86.7 -74 85.4 -78.2 84 C-80.7 83.2 -83.2 82.4 -85.6 81.6 C-87.3 81 -88.9 80.5 -90.6 80 C-92.9 79.2 -95.2 78.4 -97.6 77.7 C-98.3 77.4 -99 77.2 -99.7 77 C-103.1 75.9 -105.7 74.9 -108 72 C-105.9 71.4 -104.2 71 -102 71 C-104.3 70.7 -106.6 70.3 -109 70 C-107.3 68.3 -105.7 66.7 -104 65 C-103.3 64.2 -102.6 63.5 -101.8 62.7 C-100 61 -100 61 -98 61 C-98.3 62.3 -98.7 63.6 -99 65 C-98.7 64.8 -98.7 64.8 -97 64 C-96.7 63 -96.3 62 -96 61 C-95 61 -94 61 -93 61 C-93 60.3 -93 59.7 -93 59 C-92.3 58.8 -91.5 58.5 -90.8 58.3 C-87.5 56.8 -86.2 54.8 -84 52 C-83.3 52 -82.7 52 -82 52 C-82 52.7 -82 53.3 -82 54 C-81.3 53.3 -80.7 52.7 -80 52 C-80.3 51 -80.7 50 -81 49 C-80 49 -79 49 -78 49 C-78 49.7 -78 50.3 -78 51 C-77 51 -76 51 -75 51 C-75 50.3 -75 49.7 -75 49 C-73.5 47.4 -73.5 47.4 -72 46 C-73 46 -74 46 -75 46 C-75 46.7 -75 47.3 -75 48 C-76 48 -77 48 -78 48 C-77.7 47 -77.3 46 -77 45 C-73.9 43.8 -73.9 43.8 -71 43 C-71 43.7 -71 44.3 -71 45 C-70.3 45 -69.7 45 -69 45 C-68.7 44 -68.3 43 -68 42 C-65.7 40.4 -63.4 38.9 -61 37.5 C-59.5 36.6 -58.1 35.7 -56.6 34.8 C-55.9 34.4 -55.1 33.9 -54.3 33.4 C-50.4 31 -46.6 28.5 -42.7 26 C-42.3 25.8 -42.3 25.8 -40.5 24.6 C-37.7 22.7 -34.8 20.9 -32 19 C-29.3 18.9 -29.3 18.9 -27 19 C-27 18.3 -27 17.7 -27 17 C-26.7 17 -26.7 17 -25.3 16.8 C-22.1 15.7 -20.4 13.4 -18 11 C-17 10.7 -16 10.3 -15 10 C-15 11.6 -15 13.3 -15 15 C-14.3 15 -13.7 15 -13 15 C-13 12.7 -13 10.4 -13 8 C-11.4 8 -9.7 8 -8 8 C-8 7 -8 6 -8 5 C-7.3 5 -6.7 5 -6 5 C-6 7 -6 9 -6 11 C-5.7 10.3 -5.3 9.7 -5 9 C-4.3 9 -3.7 9 -3 9 C-3.2 8 -3.2 8 -4 3 C-3 3 -2 3 -1 3 C-0.7 2 -0.3 1 0 0 Z" fill="#A78FE0" transform="translate(664,314)"/><path d="M0 0 C3.4 1.2 6 2.6 8.8 4.8 C19.2 11.8 36.1 18.1 48.7 16.8 C52 16 52 16 55 14 C55.7 11.4 55.7 11.4 56 9 C56.7 9.3 57.5 9.6 58.2 9.9 C68.2 13.8 80.2 16.6 90.7 13.1 C92.9 12 92.9 12 96 10 C96.7 10 97.3 10 98 10 C96.7 12.7 95.3 15.1 93.6 17.5 C84.2 31.3 78.8 44.5 76 61 C75.8 62.1 75.6 63.1 75.4 64.2 C72.6 88.4 76.3 112 87.8 133.6 C89 136 89 136 90 139 C89.2 139.4 88.4 139.7 87.6 140.1 C81.3 143.1 76.5 145.7 72 151 C58 144.8 51.6 128 46 114.8 C45 112 45 112 45 110 C44.3 110 43.7 110 43 110 C43.2 110.7 43.5 111.4 43.7 112.1 C44.8 115.3 45.9 118.5 47 121.8 C47.4 122.9 47.8 124 48.2 125.1 C48.5 126.2 48.9 127.3 49.2 128.4 C49.6 129.3 49.9 130.3 50.3 131.3 C51 134 51 134 51 138 C44.5 137.4 42.4 134.9 38.3 130.1 C26.4 114.2 20.7 95.9 21 76 C20.3 76 19.7 76 19 76 C19 76.6 19 77.2 18.9 77.8 C18.8 80.4 18.7 83 18.6 85.7 C18.6 86.1 18.6 86.1 18.5 88.5 C18.3 93 18.1 96.9 16 101 C7.9 97.6 4.5 87.4 1.4 79.8 C-8.4 53.9 -7.8 26.3 0 0 Z" fill="#F6F3EC" transform="translate(325,588)"/><path d="M0 0 C1.6 8.2 1.7 16.6 2 25 C2.1 26.2 2.1 27.5 2.2 28.7 C2.6 48.3 -2.4 69.4 -11.1 87 C-11.4 87.6 -11.7 88.3 -12 88.9 C-14.1 93 -16.6 96 -20 99 C-20.7 99 -21.3 99 -22 99 C-22.3 91.1 -22.7 83.2 -23 75 C-24.7 76.7 -24.5 78.9 -24.8 81.2 C-27.8 100.7 -34.3 123 -50 136 C-52.8 136.8 -52.8 136.8 -55 137 C-54.8 136.3 -54.6 135.6 -54.4 134.9 C-53.9 132.9 -53.3 130.9 -52.8 129 C-52.3 127.2 -51.8 125.5 -51.4 123.7 C-50.1 119.3 -49.8 115.5 -50 111 C-50.2 111.6 -50.4 112.2 -50.6 112.8 C-55.2 126.7 -62.7 140.7 -72 152 C-72.7 152 -73.3 152 -74 152 C-74.5 151.1 -75.1 150.2 -75.6 149.3 C-78.2 145.3 -81.6 143.7 -85.8 141.6 C-86.4 141.3 -87.1 140.9 -87.9 140.6 C-89.6 139.7 -91.3 138.8 -93 138 C-92.7 137.5 -92.5 137 -92.2 136.5 C-77.5 107 -74.4 75.7 -84.5 44 C-88.2 33.2 -92.8 21.9 -99.7 12.7 C-101 11 -101 11 -101 9 C-100.4 9.1 -99.8 9.3 -99.2 9.4 C-98.4 9.6 -97.6 9.8 -96.8 9.9 C-96 10.1 -95.3 10.3 -94.5 10.5 C-93.6 10.6 -92.8 10.8 -92 11 C-91.2 11.2 -90.4 11.4 -89.5 11.5 C-81 13.1 -73.9 11.7 -65.8 8.8 C-63 8 -61.7 8 -59 9 C-59 10.6 -59 12.3 -59 14 C-49.9 16.2 -42.2 15.9 -33 14 C-31.9 13.8 -30.8 13.6 -29.7 13.3 C-22.3 11.5 -17.2 8.4 -11.6 3.4 C-7.7 -0 -5.1 -0.5 0 0 Z" fill="#F6F3EC" transform="translate(703,588)"/><path d="M0 0 C-0.5 7.1 -2.1 12.6 -4.9 19.1 C-11.3 34 -11.3 34 -11.2 41.8 C-11.3 42.5 -11.3 43.3 -11.3 44 C-11 46 -11 46 -9 49 C-5.6 47.6 -4.1 46.1 -2.1 43 C-1.6 42.2 -1 41.4 -0.5 40.6 C-0.2 40.1 -0.2 40.1 1.2 38 C13.1 20.1 13.1 20.1 21 15 C22 15 23 15 24 15 C24.6 22.3 22.1 28.2 19.6 35 C17.5 40.9 16 46.7 16 53 C16.3 53.7 16.7 54.3 17 55 C20.4 55.4 21.7 55.2 24.5 53.2 C25.4 52.4 26.2 51.6 27.1 50.8 C27.9 50 28.7 49.3 29.6 48.5 C31.9 46.1 34 43.6 36 41 C36.5 41.2 36.5 41.2 39 42 C37.3 57.7 34.5 72.9 23.4 84.8 C17.5 89.3 9.2 91.6 2 91 C1.3 90.3 0.7 89.7 0 89 C0.3 84.9 0.7 82.5 3 79 C4 78.7 5 78.3 6 78 C5.2 78.2 4.5 78.3 3.7 78.5 C2.7 78.7 1.7 78.9 0.7 79.1 C-0.3 79.3 -1.3 79.5 -2.3 79.7 C-5 80 -5 80 -8 79 C-8 79.7 -8 80.3 -8 81 C-9 81.3 -10 81.7 -11 82 C-12.7 83.8 -12.7 83.8 -14.5 86 C-17.7 89.9 -17.7 89.9 -21 91 C-21 92.3 -21 93.6 -21 95 C-21.7 95 -22.3 95 -23 95 C-23.1 95.9 -23.3 96.9 -23.4 97.9 C-24 101 -24 101 -25 103 C-25.7 103 -26.3 103 -27 103 C-27 103.7 -27.1 104.3 -27.1 105 C-27.5 110.5 -28.5 114.1 -31 119 C-31.2 120.6 -31.3 122.2 -31.4 123.8 C-31.8 129.1 -33.6 133.3 -36 138 C-37 138 -38 138 -39 138 C-39.1 138.6 -39.2 139.3 -39.3 139.9 C-39.5 140.6 -39.8 141.3 -40 142 C-41 142.3 -42 142.7 -43 143 C-55.2 135.8 -59.6 120.9 -63 108 C-66 95.1 -68.2 82.1 -68.2 68.8 C-68.2 67.9 -68.2 67.1 -68.2 66.3 C-68 49.1 -68 49.1 -64 42 C-61.8 45.3 -61.5 47.3 -60.9 51.2 C-60.7 52.3 -60.5 53.4 -60.4 54.5 C-60.2 55.3 -60.1 56.1 -60 57 C-60 53.7 -60 50.4 -60 47 C-58.7 47.3 -57.4 47.7 -56 48 C-56.2 47.2 -56.3 46.3 -56.5 45.4 C-57.8 37.1 -58.6 28.6 -53.8 21.3 C-53.2 20.5 -52.6 19.8 -52 19 C-51.2 18 -50.4 16.9 -49.6 15.9 C-42.3 6.6 -42.3 6.6 -37 5 C-37.3 5.7 -37.5 6.5 -37.8 7.2 C-38.2 8.3 -38.5 9.3 -38.9 10.3 C-39.2 11.3 -39.6 12.3 -39.9 13.3 C-42.5 22.1 -43.3 30.5 -43.2 39.6 C-43.3 40.6 -43.3 41.6 -43.3 42.6 C-43.2 57.4 -43.2 57.4 -39.6 61.7 C-38 63 -38 63 -36 64 C-35.9 63.3 -35.9 62.7 -35.8 62 C-33.3 37.3 -33.3 37.3 -28 28 C-27.5 27.1 -26.9 26.2 -26.4 25.2 C-11.1 0 -11.1 0 0 0 Z" fill="#B84A3A" transform="translate(550,4)"/><path d="M0 0 C2.4 0.8 2.4 0.8 5 2 C5.2 2.5 5.2 2.5 6 5 C6.7 5.1 7.4 5.2 8.1 5.2 C11 6 11 6 13.8 7.9 C17.2 10.1 20.2 11.1 24 12.2 C26 13 26 13 28 16 C28.3 18 28.3 18 28.5 20.1 C29 24 29 24 31 26 C31.6 27.9 31.6 27.9 32 30.1 C32.2 30.9 32.4 31.7 32.5 32.6 C32.7 33.4 32.9 34.3 33.1 35.2 C33.2 36 33.4 36.9 33.6 37.7 C33.9 39.4 34.2 41 34.6 42.7 C34.9 44.7 35.4 46.7 35.9 48.7 C36 53.2 34 55.4 31.2 58.6 C30.2 59.8 29.2 61.1 28.1 62.3 C27.6 62.9 27.1 63.5 26.6 64.1 C24.1 67.1 21.7 70.2 19.4 73.2 C18.9 73.8 18.5 74.3 18.1 74.9 C16.6 76.9 15.1 78.8 14 81 C16.3 81 18.6 81 21 81 C19 83.4 17 85.7 15 88 C14.2 89 13.3 89.9 12.4 90.9 C11.5 92 10.6 93 9.6 94 C8.8 95 7.9 95.9 7 96.9 C4 99 4 99 0.4 99.1 C-5.3 98 -10.5 95.3 -15.7 92.8 C-16.8 92.2 -17.9 91.7 -19 91.1 C-29 86.2 -38.4 80.5 -47.7 74.5 C-49.9 73.1 -52.2 71.7 -54.4 70.3 C-55.7 69.5 -57 68.7 -58.3 67.9 C-59.4 67.2 -60.5 66.5 -61.7 65.8 C-62.4 65.2 -63.2 64.6 -64 64 C-64 61 -64 61 -62.7 59.5 C-62.1 59 -61.6 58.4 -61 57.9 C-60.3 57.3 -59.6 56.7 -59 56.1 C-58.3 55.4 -57.5 54.8 -56.8 54.1 C-55.3 52.8 -53.9 51.4 -52.4 50.1 C-51.7 49.4 -50.9 48.7 -50.2 48 C-47 45 -43.8 42 -40.8 38.9 C-40.5 38.6 -40.5 38.6 -39.2 37.3 C-37 35.1 -35 33 -33.2 30.5 C-29.4 26.2 -24.5 23.2 -19.7 20 C-15.2 16.8 -11.6 13.8 -8.4 9.3 C-7 8 -7 8 -3 8 C-3 6.7 -3 5.4 -3 4 C-2 4 -1 4 0 4 C0 2.7 0 1.4 0 0 Z" fill="#F6F3EC" transform="translate(622,421)"/><path d="M0 0 C0.8 0.6 1.6 1.2 2.4 1.9 C3.3 2.5 4.1 3.2 5 3.8 C12.4 9.9 16.4 16.9 19.4 25.9 C20.4 38.5 18.7 48.9 10.4 58.8 C7.1 62.2 3.5 64.6 -0.6 66.9 C-1.2 67.2 -1.8 67.5 -2.4 67.9 C-12.6 72.6 -26.4 70.4 -36.6 66.9 C-45.5 62.8 -51.5 54.8 -55.5 46 C-59.1 35.5 -58.2 25.9 -53.6 15.9 C-47.3 5.1 -37.3 -0.8 -25.6 -4.1 C-16.6 -6.4 -7.7 -5.3 0 0 Z" fill="#F6F3EC" transform="translate(526.58984375,436.1484375)"/><path d="M0 0 C3 0.7 3 0.7 18 4 C18 7 18 9.9 18 13 C19 12.3 20 11.7 21 11 C22.9 10.6 22.9 10.6 25 10.4 C25.8 10.3 26.5 10.2 27.3 10.1 C28.1 10 28.9 10 29.7 9.9 C30.5 9.8 31.3 9.7 32.1 9.6 C34.1 9.4 36 9.2 38 9 C42.6 30.4 42.6 30.4 43 41 C39.7 42.3 36.3 43.7 33 45 C32.1 45.4 31.3 45.7 30.4 46.1 C28 47 28 47 25 47 C25 44.4 25 41.7 25 39 C24.7 39.2 24.7 39.2 23 40 C22.6 42.1 22.6 42.1 22.4 44.6 C22.3 45.4 22.2 46.2 22.1 47.1 C22.1 47.4 22.1 47.4 22 49 C21 49.3 20 49.7 18.9 50 C10.5 53 3.5 56.2 -3.7 61.5 C-6 63 -6 63 -8 63 C-8 57.4 -8 51.8 -8 46 C-8.7 46 -9.3 46 -10 46 C-10 46.7 -10 47.3 -10.1 48 C-10.2 50.9 -10.3 53.9 -10.4 56.8 C-10.4 57.8 -10.4 58.9 -10.5 59.9 C-10.5 60.9 -10.5 61.9 -10.6 62.9 C-10.6 63.8 -10.6 64.7 -10.7 65.6 C-11 68 -11 68 -13 71 C-13.3 70.8 -13.3 70.8 -15 70 C-14.9 69.5 -14.9 69.5 -14.5 66.8 C-13.7 60.9 -13.9 55 -14 49 C-15.8 56.6 -17 64.2 -18 72 C-28 70.4 -37.8 67.9 -47.7 65.4 C-49.4 65 -51.1 64.5 -52.7 64.1 C-56.8 63.1 -60.9 62 -65 61 C-65.2 55.2 -64.8 50 -63.6 44.3 C-63.4 43.1 -63.1 41.8 -62.9 40.6 C-62.1 37.3 -61.1 34.2 -60 31 C-52.9 32.2 -46.2 34.1 -39.3 36.4 C-18.3 43.3 -18.3 43.3 -8 43 C-8 42.3 -8 41.7 -8 41 C-9.1 40.8 -10.2 40.6 -11.3 40.3 C-24.4 37.7 -37.2 34.5 -50 31 C-50 30 -50 29 -50 28 C-46 26.1 -42 24.3 -37.9 22.5 C-36.8 22 -35.7 21.5 -34.5 20.9 C-33.4 20.4 -32.3 19.9 -31.2 19.4 C-30.1 18.9 -29.1 18.5 -28.1 18 C-23 16.3 -18.2 16.7 -13.1 18 C-12.3 18.2 -11.5 18.4 -10.7 18.6 C-10.2 18.7 -9.6 18.9 -9 19 C-9.2 18.7 -9.2 18.7 -10 17 C-12.3 16.3 -14.6 15.6 -17 15 C-17 14.3 -17 13.7 -17 13 C-12.3 10.1 -8.8 8.4 -3.1 9.5 C-2.8 9.6 -2.8 9.6 -1 10 C-0.2 10.2 0.7 10.3 1.5 10.5 C3.7 11 5.8 11.5 8 12 C8 11.3 8 10.7 8 10 C6.4 9.7 6.4 9.7 -2 8 C-1 3 -1 3 0 0 Z" fill="#F6F3EC" transform="translate(400,833)"/><path d="M0 0 C1 0 2 0 3 0 C3 1.1 3 2.3 3 3.5 C3.4 26.6 4.2 49.5 6.4 72.5 C6.9 77.6 7.3 82.7 7.6 87.8 C9.1 110.2 11.6 132.5 14.4 154.9 C16.2 170.1 17.9 185.4 19.2 200.7 C20.9 220.4 23.4 239.7 28.9 258.8 C30.1 263.2 31.1 267.6 32 272 C15.8 259.2 6.1 238.1 2 218 C2 213.1 2.8 209.3 5 205 C4.3 205 3.7 205 3 205 C2.9 205.6 2.7 206.2 2.6 206.9 C2 209 2 209 1 211 C0 211 -1 211 -2 211 C-4.7 200.9 -5.9 191 -6.7 180.6 C-6.7 179.8 -6.8 179 -6.9 178.2 C-7.3 172.8 -7.7 167.4 -8 162 C-8.1 160.8 -8.1 159.6 -8.2 158.4 C-8.9 146.5 -8.5 137.3 -2 127 C-4.6 129.5 -5.8 131.6 -7 135 C-7.7 135 -8.3 135 -9 135 C-9.8 128.8 -10.1 122.8 -10.1 116.5 C-10.1 115.6 -10.1 114.7 -10.1 113.7 C-10 100.1 -9.8 86.4 -9.5 72.8 C-9.5 69.1 -9.4 65.4 -9.4 61.7 C-9.2 54.5 -9.1 47.2 -9 40 C-8 40 -7 40 -6 40 C-6.3 39.4 -6.7 38.7 -7 38.1 C-8.3 34 -8 30.4 -7.6 26.2 C-7.6 25.4 -7.5 24.6 -7.5 23.8 C-7.3 21.9 -7.2 19.9 -7 18 C-5.3 17.7 -3.7 17.3 -2 17 C-2.1 16.4 -2.2 15.9 -2.3 15.3 C-3.3 9.2 -2.5 5.6 0 0 Z" fill="#A78FE0" transform="translate(261,541)"/><path d="M0 0 C0.7 0 1.3 0 2 0 C3.5 6.3 4.5 12.5 5 19 C3.7 19 2.4 19 1 19 C1.3 20 1.7 21 2 22 C2.7 22 3.3 22 4 22 C4.3 21.3 4.7 20.7 5 20 C5.7 20 6.3 20 7 20 C7 20.5 7 20.5 6.8 22.8 C7 26 7 26 8.5 27.8 C10.4 30.6 10.5 32.4 10.7 35.8 C10.7 36.4 10.7 36.4 10.8 39.6 C10.9 41.1 11 42.5 11 44 C11 44.8 11.1 45.7 11.1 46.5 C11.3 53.4 11.4 60.4 11.6 67.3 C11.6 68.4 11.6 69.5 11.6 70.6 C11.9 84.5 12.1 98.5 12.1 112.4 C12.1 113.1 12.1 113.8 12.1 114.5 C12.1 116.5 12.1 118.4 12.1 120.3 C12.1 121.4 12.1 122.4 12.1 123.5 C12 126 12 126 11 128 C10.3 128 9.7 128 9 128 C8.3 124.4 7.7 120.7 7 117 C6.3 117 5.7 117 5 117 C5.2 118 5.4 119 5.7 120 C9.2 137.3 8.3 154.1 6.5 171.6 C5.9 177.6 5.6 183.6 5.3 189.7 C5.1 194.5 4.8 199.2 4 204 C3.3 204.3 2.7 204.7 2 205 C1.7 203 1.3 201 1 199 C0.3 199 -0.3 199 -1 199 C-0.9 200 -0.7 201 -0.6 202.1 C0.8 213.9 -1.4 222.6 -5.9 233.5 C-6.5 235 -7.1 236.6 -7.7 238.1 C-16.1 259.6 -16.1 259.6 -22 268 C-23 268.3 -24 268.7 -25 269 C-24.5 260 -23.5 251.1 -22.2 242.1 C-19.4 221.7 -17.4 201.2 -15.4 180.7 C-15.1 177.5 -14.7 174.2 -14.4 170.9 C-10.1 128.2 -6.1 85.4 -3.7 42.5 C-2.8 28.3 -1.4 14.2 0 0 Z" fill="#A78FE0" transform="translate(759,541)"/><path d="M0 0 C8.5 6.1 13.7 14.2 15.5 24.5 C16.7 34.6 14.3 44.1 8.3 52.4 C4.7 56.7 0.5 59.8 -4.5 62.5 C-5.1 62.8 -5.7 63.2 -6.3 63.5 C-14.4 67.3 -25 66.6 -33.3 64.1 C-42 60.4 -49.6 53.1 -53.5 44.5 C-57.2 35 -57.2 26 -54 16.4 C-49.5 6.4 -41.3 -0.7 -31.3 -4.8 C-20 -6.8 -9.9 -6 0 0 Z" fill="#F6F3EC" transform="translate(531.46875,188.5078125)"/><path d="M0 0 C0 0.7 0 1.3 0 2 C5.1 7.5 10.2 10 17.7 10.4 C26 10.2 32.6 7.1 39 2 C42.2 0.9 42.2 0.9 46 1 C48.6 2.3 50.9 3.7 53.3 5.3 C61.5 10.5 68.3 12.9 78 12 C78.9 11.9 79.8 11.8 80.7 11.8 C82.8 11.5 84.9 11.3 87 11 C86.7 12 86.3 13 86 14 C86.6 13.8 87.2 13.6 87.8 13.4 C90.6 12.9 91.5 13.4 93.9 14.9 C94.2 15.1 94.2 15.1 96 16.1 C96.8 16.5 97.5 17 98.2 17.4 C99 17.9 99.7 18.3 100.5 18.8 C102.3 19.8 104.2 20.9 106 22 C97.2 30.8 88 38.4 78 45.8 C77.1 46.4 76.3 47 75.4 47.6 C74.7 48.2 73.9 48.7 73.1 49.3 C70.9 51.1 69 53 67 55 C63.8 53.5 61.1 51.7 58.3 49.6 C49.8 43.6 41.5 40.1 31 41 C24.5 42.3 18.9 44.9 13.2 48.1 C10.7 49.1 9.6 49 7 48 C7.3 47.3 7.7 46.6 8 45.8 C9.1 42.8 9.4 41.1 9 38 C2 27.8 -8.9 19.1 -19 12 C-18.8 10.1 -18.8 10.1 -18 8 C-16.2 7.1 -16.2 7.1 -13.9 6.6 C-9.3 5.3 -4.2 0 0 0 Z" fill="#F6F3EC" transform="translate(474,387)"/><path d="M0 0 C2.4 1.6 4.3 3.2 6.4 5.1 C7 5.7 7.6 6.2 8.2 6.7 C10.2 8.5 12.1 10.2 14 12 C15.4 13.2 16.7 14.5 18.1 15.7 C19.4 17 20.8 18.2 22.1 19.4 C22.8 20 23.4 20.6 24 21.2 C27.3 24.3 30.3 27.4 33 31 C26.2 40.2 19.3 49.2 12 58 C10.4 59.9 8.8 61.9 7.2 63.8 C6.5 64.7 5.8 65.6 5 66.5 C3.8 68 2.6 69.5 1.5 71 C-1.5 74.8 -1.5 74.8 -3.9 75.8 C-6 76 -6 76 -9 73.6 C-10.2 72.4 -11.4 71.2 -12.6 70 C-13.2 69.4 -13.8 68.7 -14.5 68.1 C-15.8 66.8 -17.1 65.4 -18.4 64.1 C-20.4 62 -22.4 60 -24.4 58 C-25.7 56.7 -27 55.4 -28.3 54.1 C-28.9 53.5 -29.5 52.9 -30.1 52.2 C-33.9 48.4 -37 44.4 -40 40 C-34.6 32.4 -29 25.1 -23 18 C-22.5 17.4 -22 16.8 -21.5 16.2 C-19.9 14.3 -18.3 12.4 -16.8 10.6 C-16.3 10 -15.8 9.4 -15.2 8.8 C-6.7 -1.2 -6.7 -1.2 0 0 Z" fill="#F6F3EC" transform="translate(449,397)"/><path d="M0 0 C5 1.8 9.9 3.2 15.1 4.1 C13.6 8.6 11.2 11.8 8.2 15.4 C-1.2 27.2 -9.7 39.5 -17.4 52.4 C-17.8 53.1 -18.3 53.9 -18.7 54.6 C-19.1 55.2 -19.5 55.9 -19.8 56.5 C-20.9 58.1 -20.9 58.1 -22.9 60.1 C-28.7 59.6 -32.4 54.3 -35.9 50.1 C-65.9 12.1 -65.9 12.1 -65.9 4.1 C-61.6 2.7 -57.2 1.3 -52.9 -0.1 C-51.4 -0.6 -49.9 -1 -48.4 -1.5 C-46.3 -2.2 -44.2 -2.9 -42.1 -3.6 C-41.4 -3.8 -40.8 -4 -40.1 -4.2 C-25.4 -8.9 -14 -5.1 0 0 Z" fill="#F6F3EC" transform="translate(536.89404296875,266.8642578125)"/><path d="M0 0 C2.5 1 3.8 1.7 5.2 3.9 C6 6 6 6 6 10 C0.2 13 0.2 13 -2 13 C-2 13.7 -2 14.3 -2 15 C-1.6 14.8 -1.6 14.8 0.4 14.1 C1.5 13.7 2.5 13.3 3.6 12.9 C4.7 12.5 5.7 12.1 6.8 11.7 C12.5 10.5 17 13.4 22 16 C22 16.7 22 17.3 22 18 C20.3 19 18.7 20 17 21 C16.7 21.7 16.3 22.3 16 23 C17.2 22.5 18.4 22 19.6 21.4 C24.6 19.2 28.8 20.1 33.8 22.1 C37 23.5 40.2 24.9 43.4 26.4 C44.5 26.9 45.6 27.4 46.7 28 C54.9 31.7 54.9 31.7 56 34 C55.1 34.2 54.2 34.4 53.3 34.6 C49.9 35.3 46.6 36.1 43.2 36.8 C41.8 37.1 40.4 37.5 38.9 37.8 C36.8 38.2 34.7 38.7 32.7 39.2 C31.4 39.5 30.2 39.7 28.9 40 C24.5 41.1 20.3 42.6 16 44 C15.7 50.9 15.3 57.9 15 65 C12.8 63.9 10.6 62.8 8.4 61.7 C2 58.3 -4.5 55.6 -11.4 53.4 C-14 52 -14 52 -15.4 49.5 C-16 46.9 -16.2 44.7 -16 42 C-16.7 42 -17.3 42 -18 42 C-18 44.6 -18 47.3 -18 50 C-23.8 48.9 -29.4 47.7 -35 46 C-35.5 34.4 -33.9 23.4 -32 12 C-28.1 10.7 -25.8 11.5 -21.8 12.4 C-20.5 12.7 -19.3 13 -18 13.3 C-17 13.5 -16 13.8 -15 14 C-14.7 11.4 -14.3 8.7 -14 6 C-13.3 5.8 -12.6 5.6 -12 5.4 C-11.1 5.2 -10.2 4.9 -9.2 4.7 C-8.4 4.4 -7.5 4.2 -6.6 3.9 C-3.9 3 -2.1 1.8 0 0 Z" fill="#F6F3EC" transform="translate(620,830)"/><path d="M0 0 C4.5 1.5 6.1 4.8 8.8 8.6 C9.3 9.4 9.8 10.2 10.4 10.9 C21.8 27.6 26.9 44.7 25 65 C23.6 72 21.5 78.3 16 83 C9.6 86.1 3.3 88.5 -3.8 86 C-10.9 82.4 -14.9 78.4 -18 71 C-22.3 53.4 -11.5 36.2 -4.2 20.8 C-1.9 15.8 -0.8 11.8 -0.4 6.3 C-0.4 5.1 -0.3 4 -0.2 2.7 C-0.2 2.3 -0.2 2.3 0 0 Z" fill="#B84A3A" transform="translate(480,297)"/><path d="M0 0 C0.7 0 1.3 0 2 0 C2 0.3 2 0.3 2.3 1.7 C5.2 20.8 10.5 38.3 18.6 55.8 C21.3 62 22.3 68.1 20.1 74.6 C16.8 81.7 12.6 87 5.6 90.9 C-4.8 94.1 -4.8 94.1 -9.7 91.7 C-16 87.4 -21.1 83.3 -22.7 75.5 C-26 49.8 -12.7 24.1 -1 2 C-0.7 1.3 -0.3 0.7 0 0 Z" fill="#B84A3A" transform="translate(543,291)"/><path d="M0 0 C1.8 4.8 2 10.5 0.1 15.3 C-1.1 17.7 -2.5 19.8 -4 22 C-4.2 22.4 -4.2 22.4 -5.2 24.3 C-6.9 27.2 -8 28.4 -11 30 C-17.9 31 -25 30.5 -32 30 C-32 31 -32 32 -31.9 33 C-31.6 50 -31.6 50 -35.2 54.6 C-37.5 56.4 -39.6 57.2 -42.4 58.1 C-43.3 58.5 -44.2 58.8 -45.2 59.1 C-49.1 60.3 -52.9 61.2 -57 61.3 C-57.3 61.3 -57.3 61.3 -58.9 61.4 C-62.1 60.8 -63.7 59.3 -66 57 C-67.9 49.7 -65.8 42.4 -63.3 35.6 C-63.1 34.9 -62.8 34.2 -62.6 33.6 C-60.7 29 -58.3 25.7 -55 22 C-53.1 22.3 -53.1 22.3 -51 23 C-50.3 24 -49.7 25 -49 26 C-47.7 25.7 -46.4 25.3 -45 25 C-44.7 23.7 -44.3 22.4 -44 21 C-45.6 20 -47.3 19 -49 18 C-48.7 13.7 -47.8 10.7 -44.8 7.5 C-33.2 -2.1 -13.8 -7.3 0 0 Z" fill="#F6F3EC" transform="translate(506,582)"/><path d="M0 0 C3.5 0.6 5.6 2 8.5 4.1 C14.3 8.3 20.4 12.1 26.6 15.8 C26.9 15.9 26.9 15.9 28.4 16.8 C41.7 24.7 55.6 31.3 70 37 C68.4 41.5 65 43.9 61.4 46.9 C61.1 47.1 61.1 47.1 59.5 48.5 C46.8 59 46.8 59 41.8 58.9 C37.1 57.8 33.4 55.8 29.2 53.3 C28.4 52.9 27.6 52.4 26.8 51.9 C22 49.2 17.3 46.4 12.6 43.5 C9.1 41.5 5.5 39.8 1.9 38.1 C-3.7 35.4 -8.5 32.5 -13.2 28.3 C-15.1 26.9 -16.6 26.4 -19 26 C-19 25.3 -19 24.7 -19 24 C-17.7 24 -16.5 24 -15.2 23.9 C-14.5 23.9 -13.8 23.9 -13 23.9 C-11 24 -11 24 -8 25 C-8 24 -8 23 -8 22 C-7 21.7 -6 21.3 -5 21 C-3.8 19.2 -3.8 19.2 -2.8 16.9 C-2.5 16.2 -2.1 15.5 -1.8 14.7 C-1.6 14.4 -1.6 14.4 -1 13 C-2.6 13.3 -4.3 13.7 -6 14 C-4.5 9.8 -1.7 8.3 2 6 C2.3 5.3 2.7 4.7 3 4 C1.7 4 0.4 4 -1 4 C-0.7 2.7 -0.3 1.4 0 0 Z" fill="#F6F3EC" transform="translate(551,485)"/><path d="M0 0 C2.2 0.8 4.2 1.7 6.3 2.8 C6.3 3.8 6.3 4.8 6.3 5.8 C6.8 5.6 7.4 5.4 7.9 5.2 C11.1 4.7 13.3 5.6 16.3 6.8 C16.3 7.8 16.3 8.8 16.3 9.8 C17 9.6 17.8 9.4 18.6 9.2 C21.3 8.8 22.8 8.9 25.3 9.8 C17.2 29.1 -12 52.5 -30.7 60.8 C-32.8 60.4 -32.8 60.4 -34.7 59.8 C-37.4 60.7 -37.4 60.7 -39.7 61.8 C-39.7 60.8 -39.7 59.8 -39.7 58.8 C-40.4 59 -40.4 59 -43.7 59.8 C-43.4 58.1 -43 56.5 -42.7 54.8 C-41.7 54.8 -40.7 54.8 -39.7 54.8 C-39.7 53.8 -39.7 52.8 -39.7 51.8 C-40.4 52 -40.4 52 -43.7 52.8 C-44 52.1 -44.4 51.5 -44.7 50.8 C-44 50.8 -43.4 50.8 -42.7 50.8 C-43.7 48.8 -43.7 48.8 -45.6 47.9 C-48.1 46.6 -49 45.3 -50.4 42.8 C-50.7 42.4 -50.7 42.4 -51.7 40.7 C-52.7 38.8 -52.7 38.8 -52.7 36.8 C-52.1 36.5 -51.4 36.2 -50.7 35.8 C-39.9 30.2 -30.8 22.7 -21.6 14.7 C-17.2 10.9 -12.7 7.1 -8.1 3.5 C-7.2 2.7 -6.3 2 -5.3 1.2 C-2.7 -0.2 -2.7 -0.2 0 0 Z" fill="#F6F3EC" transform="translate(593.6953125,405.203125)"/><path d="M0 0 C0.8 0.6 1.6 1.2 2.4 1.9 C3.3 2.5 4.1 3.2 5 3.8 C12.4 9.9 16.4 16.9 19.4 25.9 C20.4 38.5 18.7 48.9 10.4 58.8 C7.1 62.2 3.5 64.6 -0.6 66.9 C-1.2 67.2 -1.8 67.5 -2.4 67.9 C-12.6 72.6 -26.4 70.4 -36.6 66.9 C-45.5 62.8 -51.5 54.8 -55.5 46 C-59.1 35.5 -58.2 25.9 -53.6 15.9 C-47.3 5.1 -37.3 -0.8 -25.6 -4.1 C-16.6 -6.4 -7.7 -5.3 0 0 Z M-43.1 14 C-48.7 21.2 -50.5 28.8 -49.6 37.9 C-47.8 45.5 -44.7 51.8 -38.6 56.9 C-30.4 61.9 -22.4 64.5 -12.8 62.2 C-3.5 59.2 2.5 54.1 7.5 45.7 C10.7 39.1 10.5 30.2 8.8 23.2 C5.5 15.2 0.1 9.1 -7.8 5.5 C-20.8 0.6 -33.8 3.9 -43.1 14 Z" fill="#F6F3EC" transform="translate(526.58984375,436.1484375)"/><path d="M0 0 C1.6 0.3 3.3 0.7 5 1 C4.7 3 4.3 5 4 7 C3.3 7 2.7 7 2 7 C8.2 19.7 8.2 19.7 14 22 C19.4 22.5 24.7 22.5 30 21 C30.2 21.8 30.5 22.7 30.8 23.6 C32.6 28.6 34.2 32.7 38.7 35.9 C42.8 37.3 46.7 37.7 51 38 C51.1 40.4 51.1 42.8 51.1 45.2 C51.1 45.9 51.2 46.5 51.2 47.2 C51.2 51.3 50.6 54.3 49 58 C48.2 58 47.3 58.1 46.5 58.1 C43.3 58.2 40.1 58.3 37 58.4 C34.9 58.4 32.9 58.5 30.9 58.6 C22.2 58.8 13.6 59.3 5 60 C2.3 55.1 1.7 51.9 1.9 46.2 C2.1 39.2 2.1 39.2 1 37 C-1 37 -3 37 -5 37 C-4.5 33.2 -4.5 33.2 -2 14 C-1 13.7 -0 13.3 1 13 C0.3 12 -0.3 11 -1 10 C-1 7.5 -1 7.5 -0.6 4.8 C-0.5 3.9 -0.4 3 -0.3 2.1 C-0.2 1.7 -0.2 1.7 0 0 Z" fill="#F6F3EC" transform="translate(438,791)"/><path d="M0 0 C2.4 1.6 4.3 3.2 6.4 5.1 C7 5.7 7.6 6.2 8.2 6.7 C10.2 8.5 12.1 10.2 14 12 C15.4 13.2 16.7 14.5 18.1 15.7 C19.4 17 20.8 18.2 22.1 19.4 C22.8 20 23.4 20.6 24 21.2 C27.3 24.3 30.3 27.4 33 31 C26.2 40.2 19.3 49.2 12 58 C10.4 59.9 8.8 61.9 7.2 63.8 C6.5 64.7 5.8 65.6 5 66.5 C3.8 68 2.6 69.5 1.5 71 C-1.5 74.8 -1.5 74.8 -3.9 75.8 C-6 76 -6 76 -9 73.6 C-10.2 72.4 -11.4 71.2 -12.6 70 C-13.2 69.4 -13.8 68.7 -14.5 68.1 C-15.8 66.8 -17.1 65.4 -18.4 64.1 C-20.4 62 -22.4 60 -24.4 58 C-25.7 56.7 -27 55.4 -28.3 54.1 C-28.9 53.5 -29.5 52.9 -30.1 52.2 C-33.9 48.4 -37 44.4 -40 40 C-34.6 32.4 -29 25.1 -23 18 C-22.5 17.4 -22 16.8 -21.5 16.2 C-19.9 14.3 -18.3 12.4 -16.8 10.6 C-16.3 10 -15.8 9.4 -15.2 8.8 C-6.7 -1.2 -6.7 -1.2 0 0 Z M-5 8 C-6.9 10.3 -8.7 12.6 -10.4 15.1 C-11 15.8 -11.5 16.5 -12 17.2 C-13.1 18.7 -14.2 20.2 -15.3 21.7 C-16.9 23.9 -18.6 26.1 -20.2 28.2 C-21.2 29.5 -22.2 30.9 -23.2 32.2 C-23.7 32.8 -24.2 33.4 -24.7 34 C-26.5 36.4 -27.9 38.6 -28.7 41.5 C-27.5 45.8 -24.1 48.1 -20.9 51 C-20.2 51.6 -19.5 52.2 -18.9 52.8 C-17.5 54 -16.2 55.2 -14.9 56.4 C-13.7 57.4 -12.5 58.5 -11.3 59.6 C-7.6 63 -7.6 63 -4.9 63.1 C-2.2 61.5 -1 59.5 0.8 56.9 C4.4 52.1 4.4 52.1 7.2 51.5 C9.1 51.6 11.1 51.8 13 52 C15.6 50.6 15.6 50.6 17 48 C16.6 45.7 16.6 45.7 15.9 43.1 C15.3 40.4 15.3 40.4 15 38 C17.2 35.1 18.8 33.6 22 32 C18.8 24.9 12.3 20.3 6.2 15.7 C4.1 14.1 2.1 12.3 0.1 10.6 C-3 8 -3 8 -5 8 Z" fill="#F6F3EC" transform="translate(449,397)"/><path d="M0 0 C0 0.7 0 1.3 0 2 C-5.2 1.4 -10.1 0.2 -15.2 -1.3 C-36.6 -6.7 -64.8 -4.8 -84.3 5.7 C-96.1 12.8 -107.1 21.5 -117 31 C-117.6 31.5 -118.2 32.1 -118.9 32.6 C-132.4 45 -138.3 64.5 -142.3 81.8 C-143 85 -143 85 -144 88 C-145.7 111.4 -142.5 132.1 -132 153 C-131.6 153.9 -131.2 154.7 -130.8 155.6 C-127.6 161.8 -122.9 166.4 -118.1 171.3 C-117.8 171.7 -117.8 171.7 -116.1 173.4 C-112.2 177.2 -108.3 180.3 -103.5 183 C-103 183.3 -102.5 183.7 -102 184 C-102 184.7 -102 185.3 -102 186 C-116.8 185.3 -116.8 185.3 -121.4 180.6 C-136.9 162.4 -150.3 139.4 -151 115 C-151 114.7 -151 114.7 -151.1 113 C-151.9 83.5 -143.3 54.7 -124 32 C-123.3 31.1 -122.5 30.2 -121.8 29.3 C-111.1 17 -98.4 8.4 -84 1 C-83.4 0.7 -82.7 0.3 -82 -0 C-57.5 -12.9 -25.2 -10.9 0 0 Z" fill="#F6F3EC" transform="translate(555,565)"/><path d="M0 0 C0.9 2.3 1.5 4.5 2.1 6.9 C2.2 7.2 2.2 7.2 2.6 8.9 C4 14.6 4.8 20.2 5 26 C-1.6 29.1 -8.6 31.1 -15.6 33.1 C-16.2 33.3 -16.2 33.3 -19.3 34.2 C-26.7 36.4 -33.2 38.2 -41 38 C-41.1 37.3 -41.1 36.6 -41.2 35.9 C-41.4 32.9 -41.7 29.8 -41.9 26.7 C-42 26.2 -42 26.2 -42.2 23.4 C-42.3 22.4 -42.4 21.4 -42.5 20.3 C-42.5 19.9 -42.5 19.9 -42.7 17.5 C-43 15 -43 15 -44 12 C-44.7 11.7 -45.3 11.3 -46 11 C-46 10.3 -46 9.7 -46 9 C-37.8 6.2 -29.6 4.1 -21.1 2.3 C-20.1 2.1 -19.2 1.9 -18.1 1.7 C-4 -1.3 -4 -1.3 0 0 Z" fill="#F6F3EC" transform="translate(684,866)"/><path d="M0 0 C0.2 1.6 0.4 3.1 0.5 4.7 C0.6 5.6 0.7 6.5 0.8 7.4 C1.1 11 0.6 14.4 0 18 C-3.6 19.1 -7.1 19.2 -10.9 19.3 C-11.6 19.3 -12.3 19.4 -13 19.4 C-15.2 19.4 -17.4 19.5 -19.6 19.6 C-19.9 19.6 -19.9 19.6 -21.8 19.6 C-39 20.1 -55.9 20.2 -73 19 C-73 13.1 -73 7.1 -73 1 C-66.1 0.9 -59.3 0.7 -52.4 0.6 C-50.1 0.5 -47.8 0.5 -45.4 0.4 C-30.3 0.1 -15.2 -0.1 0 0 Z" fill="#F6F3EC" transform="translate(550,662)"/><path d="M0 0 C9.2 -0 18.4 -0 27.7 -0.1 C32 -0.1 36.2 -0.1 40.5 -0.1 C44.6 -0.1 48.8 -0.1 52.9 -0.1 C54.5 -0.1 56.1 -0.1 57.6 -0.1 C59.8 -0.1 62.1 -0.1 64.3 -0.1 C65.5 -0.1 66.8 -0.1 68.1 -0.1 C71 0 71 0 73 1 C74.5 5.8 75.3 13.4 73 18 C48.9 18 24.8 18 0 18 C-1.2 14.3 -0.9 11.1 -0.6 7.3 C-0.5 6.6 -0.5 5.9 -0.4 5.2 C-0.3 3.5 -0.1 1.7 0 0 Z" fill="#F6F3EC" transform="translate(477,639)"/><path d="M0 0 C23.8 0 47.5 0 72 0 C72 5.9 72 11.9 72 18 C47.9 18 23.8 18 -1 18 C-1 2 -1 2 0 0 Z" fill="#F6F3EC" transform="translate(478,686)"/><path d="M0 0 C0.8 0 0.8 0 4.9 0.2 C21.9 0.9 38.9 1.1 55.9 1 C56.7 1 57.6 1 58.4 1 C60 0.9 61.6 0.9 63.2 0.9 C66.7 0.9 69.5 1.1 73 2 C73 7.3 73 12.6 73 18 C48.7 18.8 24.4 19.1 0 19 C0 12.7 0 6.5 0 0 Z" fill="#F6F3EC" transform="translate(477,615)"/><path d="M0 0 C0.3 1.3 0.7 2.6 1 4 C1.9 3.8 2.8 3.5 3.7 3.2 C7 3 7 3 9.5 4.6 C14.2 9.2 16.5 16.2 17.3 22.6 C17.3 24.8 17.3 24.8 17 28 C16.6 27.4 16.1 26.8 15.7 26.2 C14.2 24.3 12.7 22.7 11 21 C11.1 21.3 11.1 21.3 11.3 23.1 C12.3 34.6 6.3 42.9 -0.8 51.4 C-1.2 51.9 -1.2 51.9 -3 54 C-4.5 49.5 -3.3 46.5 -2 42 C-4.3 44.2 -6.4 46.5 -8.4 48.9 C-9 49.6 -9.7 50.3 -10.3 51 C-11.7 52.6 -13 54.3 -14.3 56 C-14.9 56.7 -15.4 57.3 -16 58 C-16.7 58 -17.3 58 -18 58 C-18.8 47.1 -16.8 39.9 -10.9 30.8 C-9 29 -9 29 -5 29 C-5.3 28 -5.7 27 -6 26 C-9.1 24.8 -9.1 24.8 -12 24 C-12 25 -12 26 -12 27 C-15.5 28.8 -19.3 27.8 -23 27 C-25.8 25.9 -28.3 24.5 -31 23 C-28.7 20.5 -26.2 18.8 -23.3 17 C-18.3 13.8 -13.3 10.5 -8.4 7.2 C-8 6.9 -8 6.9 -6.2 5.7 C-1.1 2.2 -1.1 2.2 0 0 Z" fill="#F6F3EC" transform="translate(567,240)"/><path d="M0 0 C1.3 0 2.6 0 4 0 C4.4 0.9 4.7 1.8 5.1 2.7 C7.3 6.4 9.8 8.6 13.2 11.1 C13.8 11.5 14.4 11.9 15 12.4 C16.7 13.6 18.3 14.8 20 16 C20.7 16.6 21.4 17.1 22.1 17.7 C26.3 20.9 29.9 22 35 23 C35 23.7 35 24.3 35 25 C28 28.6 22.9 30.6 15 30 C15 27 15 27 16 25 C14.7 25.8 13.4 26.6 12.1 27.4 C11.7 27.6 11.7 27.6 9.8 28.7 C8 30 8 30 7 32 C7.9 31.8 8.9 31.6 9.8 31.4 C13 31 13 31 16 32 C17.5 34.4 18.8 36.7 20.1 39.2 C20.4 39.8 20.8 40.5 21.1 41.2 C24.2 47.1 26.3 52.2 26 59 C20.9 57.7 17.7 55.7 14 52 C12.1 48.7 12.1 48.7 11 46 C10.4 48.1 10 49.8 10 52 C2 48.8 -3.7 39 -7.2 31.4 C-8.5 27.5 -8.3 24.1 -8 20 C-10 21.3 -12 22.6 -14 24 C-13.5 19.2 -12.1 15.9 -9.6 11.8 C-9 10.8 -8.4 9.8 -7.8 8.7 C-6.3 6.5 -5.1 4.7 -3 3 C-0.8 3.3 -0.8 3.3 1 4 C0.7 2.7 0.3 1.4 0 0 Z" fill="#F6F3EC" transform="translate(451,238)"/><path d="M0 0 C1 0.3 2 0.7 3 1 C3 1.9 3 2.8 3 3.7 C3 4.9 2.9 6 2.9 7.2 C2.9 8.4 2.9 9.6 2.9 10.8 C3 13.5 3.3 15.4 4 18 C4.1 19.5 4.2 21 4.2 22.6 C4.2 23.3 4.2 24.1 4.2 24.9 C4 27 4 27 2 30 C1.3 29.7 0.7 29.3 0 29 C0 29.9 0 30.8 0 31.7 C0 32.9 0.1 34 0.1 35.2 C0.1 36.4 0.1 37.6 0.1 38.8 C0 42 0 42 -1 46 C-7.9 46.2 -7.9 46.2 -43 47 C-44.9 43.3 -45.2 42.2 -45.1 38.2 C-45.1 37.5 -45.1 36.7 -45.1 35.8 C-45 35.2 -45 34.6 -45 34 C-43.7 33.3 -42.5 32.7 -41.2 32 C-40.5 31.6 -39.8 31.3 -39 30.9 C-37 30 -37 30 -34 30 C-32.7 27.6 -31.9 25.5 -31.1 22.9 C-30 20 -30 20 -28.3 18.8 C-25.3 17.8 -23.3 18.1 -20.2 18.6 C-14.5 19.1 -11.1 18.8 -6 16 C-2.3 12.5 -1.1 9 0 4 C0 2.7 0 1.4 0 0 Z" fill="#F6F3EC" transform="translate(586,797)"/><path d="M0 0 C0.4 0 0.4 0 2.5 0 C3.5 0 4.4 0 5.4 0 C6.4 0 7.4 0.1 8.4 0.1 C27.2 0.2 46.1 0.8 64.9 1.2 C65 3.4 65 5.5 65 7.6 C65 8.8 65 10 65 11.2 C64.9 14.2 64.9 14.2 63.9 16.2 C55.4 17.8 46.3 17.4 37.6 17.3 C36.3 17.3 35 17.3 33.7 17.3 C30.2 17.3 26.8 17.3 23.3 17.3 C19.8 17.3 16.2 17.3 12.7 17.3 C5.8 17.3 -1.1 17.3 -8.1 17.2 C-8.1 12.3 -8.1 7.3 -8.1 2.2 C-3.6 -0 -3.6 -0 0 0 Z" fill="#F6F3EC" transform="translate(485.05859375,708.76953125)"/><path d="M0 0 C19.7 5.8 35.4 25.1 45 42.2 C49.6 50.7 53 59.5 55.8 68.7 C56 69.3 56.2 70 56.4 70.6 C59.5 81.5 60.4 92.4 60.3 103.7 C60.3 104.3 60.3 104.3 60.3 107.4 C60.1 120.1 59.6 133.7 53 145 C52.7 145.6 52.7 145.6 51.1 148.3 C47.2 155.1 43 161.6 38.7 168.1 C38.5 168.4 38.5 168.4 37.5 170 C36.3 171.7 35.2 173.3 34 175 C33.4 175.9 32.8 176.9 32.1 177.8 C29.3 180.7 27.1 181.1 23.2 181.8 C22.1 182 20.9 182.3 19.7 182.5 C18.8 182.7 17.9 182.8 17 183 C18.5 179.2 20.8 177.5 24 175 C27.2 171.5 30.1 167.7 33 164 C33.6 163.2 34.2 162.4 34.9 161.6 C42.5 151.4 50 137.4 50 124.5 C50 123.7 50 122.9 50 122 C50.5 121.6 51 121.1 51.5 120.7 C53.7 118.3 53.4 116.5 53.4 113.2 C53.4 112 53.5 110.9 53.5 109.6 C53.5 108.4 53.4 107.1 53.4 105.8 C53.4 104.5 53.4 103.2 53.4 101.9 C53.1 83.7 51.2 61.2 42 45 C41.1 44.3 40.3 43.7 39.4 43 C37 41 37 41 36.7 38.3 C35.8 33.9 33.5 31.6 30.5 28.3 C25.1 22.3 25.1 22.3 24 19 C22.2 18 22.2 18 20 17 C18.8 16.2 17.7 15.4 16.5 14.5 C15.9 14.1 15.2 13.6 14.6 13.1 C14.2 12.9 14.2 12.9 12.6 11.6 C11.9 11.1 11.3 10.7 10.6 10.2 C8.7 8.8 6.9 7.4 5 6 C4 5.3 3 4.5 2 3.8 C1.4 3.2 0.7 2.6 0 2 C0 1.3 0 0.7 0 0 Z" fill="#F6F3EC" transform="translate(560,568)"/><path d="M0 0 C9.2 2.5 9.2 2.5 12.7 4.6 C15.7 6.4 18.5 6.6 22 7 C22.3 7.3 22.7 7.7 23 8 C23 14.3 22.5 20.7 22 27 C21.9 28 21.9 29 21.8 30 C21.5 33 21.3 36 20.9 38.9 C20.9 39.9 20.8 40.8 20.7 41.8 C20 48.2 20 48.2 17.3 50.5 C13.6 52.5 10.3 53.6 6.1 52.8 C5.3 52.7 4.6 52.6 3.8 52.5 C2 52 2 52 1 51 C0.9 49.4 0.9 47.7 0.9 46.1 C0.9 45.1 0.9 44.1 0.9 43.1 C0.9 42.1 0.9 41 0.9 39.9 C0.9 38.9 0.9 37.8 1 36.8 C1 34.2 1 31.6 1 29 C3.3 29.7 5.6 30.3 8 31 C9.7 27.7 11.1 24.3 12.6 20.9 C14.9 15.2 14.9 15.2 16 13 C13 15.6 11.5 18.6 9.8 22.2 C9.3 23.3 8.8 24.4 8.2 25.5 C7.8 26.3 7.4 27.1 7 28 C1.1 26.1 1.1 26.1 0 25 C-1.3 17.2 -2.5 7.5 0 0 Z" fill="#F6F3EC" transform="translate(410,781)"/><path d="M0 0 C-0.1 3.7 -0.2 7.4 -0.3 11.1 C-0.3 12.2 -0.4 13.2 -0.4 14.3 C-0.6 19.8 -0.7 24.3 -4 29 C-6.2 29.9 -6.2 29.9 -8 30 C-12.4 25.4 -13 19.1 -13 13 C-13.7 13 -14.3 13 -15 13 C-14.7 15.3 -14.4 17.5 -14.1 19.8 C-14 21 -13.8 22.3 -13.6 23.5 C-13.1 26.5 -12.7 28.6 -11 31 C-7.4 32 -5.6 32.2 -2 31 C-1.8 34 -1.8 34 -1 49 C-9.7 51.2 -13.9 50.7 -22 47 C-22.1 43 -22.3 39 -22.4 35 C-22.5 33 -22.6 31 -22.6 29 C-22.9 22.7 -23.1 16.3 -23 10 C-17.1 8 -17.1 8 -16 8 C-16 7.7 -16 7.3 -16 7 C-14.4 7 -12.7 7 -11 7 C-11 6.3 -11 5.7 -11 5 C-9.7 5 -8.4 5 -7 5 C-7 4.3 -7 3.7 -7 3 C-2.6 0 -2.6 0 0 0 Z" fill="#F6F3EC" transform="translate(616,782)"/><path d="M0 0 C1 0 2 0 3 0 C3 1 3.1 1.9 3.1 2.9 C3.6 14.5 5.6 24.4 14 33 C18.7 36.8 23.8 39.9 29 43 C28 45 28 45 24.5 46.3 C18.6 47.6 14.4 46.1 9.3 43 C5.1 40.1 1 37.1 -3 34 C-3.8 33.4 -4.5 32.8 -5.3 32.2 C-9.1 29.2 -10.9 26.3 -13 22 C-14.5 20.6 -14.5 20.6 -16.2 19.3 C-17.1 18.5 -18 17.8 -19 17 C-19 16 -19 15 -19 14 C-17.4 12.5 -17.4 12.5 -15.1 10.9 C-14.3 10.3 -13.5 9.8 -12.7 9.2 C-12.2 8.9 -12.2 8.9 -10.1 7.4 C-8.4 6.2 -6.7 5 -5 3.8 C-4.7 3.6 -4.7 3.6 -2.8 2.3 C-1 1 -1 1 0 0 Z" fill="#B84A3A" transform="translate(466,215)"/><path d="M0 0 C3.8 1.6 6.6 4 9.8 6.7 C10.3 7.1 10.8 7.6 11.3 8 C24.3 19 24.3 19 27 22 C27 22.7 27 23.3 27 24 C26.5 24.3 26.5 24.3 24.1 25.8 C21 28 21 28 20 30.3 C20 33.8 20.9 36.7 22 40 C20.5 42 20.5 42 18 44 C16.8 43.9 15.6 43.7 14.3 43.6 C12.2 43.4 12.2 43.4 10 44 C6.5 47.3 3.8 51.1 1 55 C-3.6 54.1 -6.1 51.4 -9.3 48.3 C-10.5 47.2 -11.6 46.1 -12.8 45 C-13.1 44.8 -13.1 44.8 -14.5 43.4 C-16.3 41.7 -18.3 40.1 -20.3 38.6 C-23 36 -23 36 -23.5 33.8 C-22.8 29.8 -20.6 27.3 -18.2 24.2 C-17.8 23.5 -17.3 22.9 -16.8 22.2 C-15.7 20.9 -14.7 19.5 -13.6 18.1 C-11.4 15.2 -9.2 12.2 -6.9 9.2 C-4.6 6.1 -2.3 3.1 0 0 Z M-3 10 C-4.8 12 -6.4 14 -8 16.2 C-8.4 16.8 -8.9 17.3 -9.3 17.9 C-10.6 19.6 -11.8 21.3 -13 23 C-13.6 23.8 -14.2 24.6 -14.8 25.5 C-16.7 28.2 -18.1 30.1 -17.8 33.6 C-15 37.3 -11.6 40.1 -8 43 C-7.3 43.6 -6.5 44.2 -5.8 44.8 C-1.8 48 -1.8 48 0 49 C3.7 47.8 4.9 46.3 7 43 C6.9 40.3 6.2 39.2 4.4 37.1 C2.7 34.5 2.7 33 3 30 C5.7 28.6 7.3 29.3 10.3 29.8 C15.4 30.3 15.4 30.3 17.9 28.9 C19.7 26.8 21 25 20.9 22.1 C18.1 15.7 9.9 10.4 4 7 C1 7 -0.5 8.3 -3 10 Z" fill="#1C1915" transform="translate(444,405)"/><path d="M0 0 C0.2 0.2 0.2 0.2 1.3 1 C7.4 5.6 13.7 9.8 20 14 C21 14.7 22 15.3 23 16 C21.8 19.6 20.7 20.2 17.8 22.4 C15.2 24.2 13 26 10.8 28.3 C7.1 31.9 2.9 34.7 -1.4 37.6 C-2.2 38.1 -3 38.7 -3.9 39.3 C-16.5 47.9 -16.5 47.9 -20.3 48.2 C-23.3 47.6 -26.1 47 -29 46 C-29 45.3 -29 44.7 -29 44 C-28.1 43.6 -27.1 43.2 -26.2 42.8 C-13.5 36.9 -7.6 30 -2 17 C-0.9 13.5 -0.7 9.9 -0.4 6.2 C-0.4 5.1 -0.3 3.9 -0.2 2.7 C-0.2 2.3 -0.2 2.3 0 0 Z" fill="#B84A3A" transform="translate(555,214)"/><path d="M0 0 C8.9 4.8 13.9 11 17.1 20.4 C17.8 31.8 17.2 38.9 9.9 47.7 C4 54 -3.3 57.4 -12 57.8 C-20.5 57.6 -28.1 54.3 -34.2 48.5 C-39.9 41.7 -42.3 33.9 -42.2 25.2 C-41.4 16.8 -37.1 10 -30.9 4.4 C-22.1 -2.1 -10.5 -4.3 0 0 Z M-33.8 11.2 C-37.9 17.2 -40.1 24.1 -38.9 31.4 C-36.9 38.8 -33.5 45.6 -26.9 49.7 C-19.1 53.7 -11.7 54.8 -3.2 52.3 C4.2 49.5 8.4 44.6 12.1 37.7 C15.4 30 14.4 22.7 11.4 15.1 C8 8.3 2.2 4 -4.9 1.4 C-17 -1.3 -25.3 2.8 -33.8 11.2 Z" fill="#1C1915" transform="translate(518.9375,441.5625)"/><path d="M0 0 C1.6 0.3 3.3 0.7 5 1 C4.7 3 4.3 5 4 7 C3.3 7 2.7 7 2 7 C8.2 19.7 8.2 19.7 14 22 C19.4 22.5 24.7 22.5 30 21 C30.3 21.9 30.6 22.8 30.9 23.7 C31.8 26.5 32.9 29.3 34 32 C23.1 35.6 9.3 32.5 -1 28 C-1.7 27.3 -2.3 26.7 -3 26 C-3 23.2 -3 23.2 -2.6 19.9 C-2.5 18.8 -2.4 17.7 -2.3 16.6 C-2.2 16.1 -2.2 16.1 -2 14 C-1 13.7 -0 13.3 1 13 C0.3 12 -0.3 11 -1 10 C-1 7.5 -1 7.5 -0.6 4.8 C-0.5 3.9 -0.4 3 -0.3 2.1 C-0.2 1.4 -0.1 0.7 0 0 Z" fill="#A78FE0" transform="translate(438,791)"/><path d="M0 0 C7.6 0.6 15.2 1.3 22.8 2.3 C39.1 4.2 55.3 4.2 71.7 4.1 C74.4 4.1 77 4.1 79.7 4.1 C83.6 4.1 87.5 4.1 91.4 4.1 C92 4.1 92 4.1 94.9 4.1 C102.7 4.1 110.3 3.7 118 3 C117.7 4 117.3 5 117 6 C94.9 9.6 73.6 10.5 51.2 9.2 C50.4 9.2 49.7 9.2 48.9 9.1 C32.3 8.2 15.7 6.7 0 1 C0 0.7 0 0.3 0 0 Z" fill="#F6F3EC" transform="translate(445,755)"/><path d="M0 0 C4.8 0.5 6.6 1.8 9.8 5.4 C11.3 9.3 10.9 11.1 9.6 15.1 C7.8 18.4 7.8 18.4 4.8 20.4 C0.6 20.8 -1.5 20.8 -5.1 18.5 C-7.8 15.8 -8.1 15 -8.5 11.1 C-8 5.6 -5.7 0.7 0 0 Z" fill="#1C1915" transform="translate(505.1875,457.625)"/><path d="M0 0 C2.5 0.4 2.5 0.4 4.3 2 C6 5.4 6 7.7 5.5 11.4 C3.8 13.4 3.8 13.4 1.5 14.4 C-1 14.4 -1 14.4 -3.5 13.4 C-5.8 10.9 -5.8 10.9 -7.5 8.4 C-4.8 0.8 -4.8 0.8 0 0 Z" fill="#F6F3EC" transform="translate(506.5,460.5625)"/><path d="M0 0 C0.7 0.3 1.3 0.7 2 1 C2.6 8.4 0.6 14.2 -1.9 21.1 C-2.2 22.2 -2.6 23.2 -3 24.3 C-5.8 32.4 -5.8 32.4 -7.3 36.2 C-8.2 39.9 -8 43.2 -7.6 46.9 C-7.6 47.6 -7.5 48.3 -7.5 49 C-7.3 50.6 -7.2 52.3 -7 54 C-7.7 54 -8.3 54 -9 54 C-12.4 48.1 -12 41.9 -10.3 35.5 C-8.2 28.3 -5.8 21.2 -2.8 14.3 C-1.8 11.4 -1.3 8.7 -0.9 5.7 C-0.7 4.6 -0.5 3.6 -0.4 2.4 C-0.2 1.6 -0.1 0.8 0 0 Z" fill="#1C1915" transform="translate(482,309)"/><path d="M0 0 C0.7 0 1.3 0 2 0 C0.9 3.4 -0.5 5.7 -2.8 8.4 C-6.3 12.8 -8 17.7 -9.8 23 C-10.5 24.9 -10.5 24.9 -12 28 C-14.2 28.9 -14.2 28.9 -16 29 C-17 27.7 -18 26.4 -19 25 C-14.5 18.7 -9.9 12.5 -5.1 6.3 C-4.9 6 -4.9 6 -3.7 4.4 C-2.5 2.9 -1.3 1.4 0 0 Z" fill="#F6F3EC" transform="translate(478,437)"/><path d="M0 0 C0.1 2.9 0.1 2.9 0 6 C-2.8 8.8 -5.3 8.9 -9.1 9.6 C-9.8 9.8 -9.8 9.8 -13 10.4 C-14 10.6 -15 10.8 -16 11 C-16.3 9.7 -16.7 8.4 -17 7 C-14.7 5.8 -12.5 4.7 -10.2 3.5 C-9.9 3.3 -9.9 3.3 -8.2 2.5 C-5.3 1 -3.3 0 0 0 Z" fill="#F6F3EC" transform="translate(437,831)"/><path d="M0 0 C5 0.4 9.4 0.8 14 3 C14 5 14 7 14 9 C13.6 8.9 13.6 8.9 11.7 8.6 C10.7 8.4 9.7 8.2 8.7 8 C7.7 7.8 6.7 7.6 5.7 7.4 C3 7 3 7 0 7 C0 4.7 0 2.4 0 0 Z" fill="#F6F3EC" transform="translate(589,832)"/><path d="M0 0 C1 0 2 0 3 0 C2.9 0.5 2.9 0.5 2.6 3.1 C1.5 13.3 2.2 19.8 8.7 28.1 C10 30 10 30 10 32 C6.4 30.6 4.9 28.8 2.8 25.6 C2.3 24.9 1.8 24.1 1.3 23.3 C-1 19.2 -1.1 15.7 -1.1 11.1 C-1.1 10 -1.1 9 -1.1 8 C-1 5.2 -0.6 2.7 0 0 Z" fill="#1C1915" transform="translate(396,282)"/><path d="M0 0 C1 3 1 3 -0.5 6.4 C-1.3 7.8 -2 9.1 -2.8 10.5 C-6.1 16.8 -8.6 22.9 -10 30 C-11 30 -12 30 -13 30 C-12.5 23.8 -11.1 19.3 -8.2 13.9 C-7.8 13.2 -7.5 12.5 -7.1 11.8 C-5 7.7 -2.7 3.8 0 0 Z" fill="#1C1915" transform="translate(522,92)"/><path d="M0 0 C0.3 0 0.7 0 1 0 C1.7 6.6 -0.3 11.5 -4 17 C-6.8 19.1 -6.8 19.1 -9 20 C-12.2 17.4 -12.8 14.9 -13.7 11.1 C-13.9 10 -14.2 9 -14.4 7.9 C-15 5 -15 5 -15 1 C-14.3 1 -13.7 1 -13 1 C-12.8 1.9 -12.6 2.8 -12.4 3.8 C-12.1 5 -11.8 6.2 -11.6 7.4 C-11.4 8 -11.4 8 -10.8 11 C-10 14 -10 14 -9 16 C-7.1 15.4 -7.1 15.4 -5 14 C-3.8 11 -3.8 11 -2.8 7.4 C-1.1 1.1 -1.1 1.1 0 0 Z" fill="#1C1915" transform="translate(683,637)"/><path d="M0 0 C5.4 0.6 9.2 3.2 13 7 C13 8.3 13 9.6 13 11 C8 10.5 3.7 8.3 0 5 C-0.5 2.2 -0.5 2.2 0 0 Z" fill="#F6F3EC" transform="translate(449,435)"/><path d="M0 0 C0.7 0.3 1.3 0.7 2 1 C-4.6 7.8 -11.3 14.5 -19 20 C-19.7 20 -20.3 20 -21 20 C-17.6 11.5 -7.3 5.2 0 0 Z" fill="#1C1915" transform="translate(415,848)"/></svg>