<svg xmlns="http://www.w3.org/2000/svg" viewBox="0 0 24 24" fill="currentColor">
  <!-- Speech bubble outline -->
  <rect x="1" y="0" width="22" height="1"/>
  <rect x="1" y="0" width="1" height="21"/>
  <rect x="22" y="0" width="1" height="17"/>
  <rect x="6" y="16" width="17" height="1"/>
  <rect x="4" y="17" width="1" height="1"/>
  <rect x="3" y="18" width="1" height="1"/>
  <rect x="2" y="19" width="1" height="1"/>

  <!-- Crosshair circle (center 12,8, radius ~3, pixel art) -->
  <rect x="11" y="5" width="3" height="1"/>
  <rect x="10" y="6" width="1" height="1"/>
  <rect x="14" y="6" width="1" height="1"/>
  <rect x="9"  y="7" width="1" height="3"/>
  <rect x="15" y="7" width="1" height="3"/>
  <rect x="10" y="10" width="1" height="1"/>
  <rect x="14" y="10" width="1" height="1"/>
  <rect x="11" y="11" width="3" height="1"/>

  <!-- Crosshair tick marks -->
  <rect x="12" y="2" width="1" height="3"/>
  <rect x="12" y="12" width="1" height="3"/>
  <rect x="5"  y="8" width="4" height="1"/>
  <rect x="16" y="8" width="4" height="1"/>

  <!-- Center diamond (star marker) -->
  <rect x="12" y="7" width="1" height="1"/>
  <rect x="11" y="8" width="3" height="1"/>
  <rect x="12" y="9" width="1" height="1"/>
</svg>
